<svg xmlns="http://www.w3.org/2000/svg" xml:space="preserve" viewBox="0 0 207.28 192" version="1.1"><g transform="matrix(1.3333 0 0 -1.3333 0 192)"><g transform="scale(.1)"><path style="fill:#0977b6" d="m1333.4 1440h-1227.1c-58.652 0-106.3-46.5-106.3-103.8v-1232.3c0-57.349 47.648-103.9 106.29-103.9h1227.1c58.75 0 106.6 46.551 106.6 103.89v1232.3c0 57.29-47.85 103.77-106.6 103.77"/><path style="fill:#fff" d="m320.34 1241.7c68.277 0 123.78-55.49 123.78-123.79 0-68.37-55.5-123.86-123.78-123.86-68.457 0-123.86 55.494-123.86 123.86 0 68.3 55.403 123.79 123.86 123.79m-106.84-341.56h213.59v-687.21h-213.59v687.22"/><path style="fill:#fff" d="m561.06 900.14h204.84v-93.907h2.864c28.511 54.035 98.187 110.99 202.09 110.99 216.29 0 256.22-142.34 256.22-327.34v-376.95h-213.44v334.2c0 79.687-1.47 182.19-110.99 182.19-111.12 0-128.19-86.801-128.19-176.43v-339.96h-213.46v687.22"/></g></g></svg>
