<svg version="1.1" viewBox="0 0 512 512" xmlns="http://www.w3.org/2000/svg">
	<path d="m156.68 477.95c-24.652-2.5801-35.254-5.417-36.334-9.7221-0.80597-3.2113 0.83331-12.046 3.596-19.379 3.5246-9.356 8.3203-13.824 20.764-19.345 5.9379-2.6343 12.961-5.8729 15.608-7.197l4.8115-2.4074-3.2104-3.6564c-16.478-18.767-11.296-55.403 9.2861-65.659 12.549-6.2536 27.744-1.0747 35.456 12.085 9.718 16.583 8.1325 40.25-3.5909 53.602-3.5548 4.0486-4.3854 3.3603 14.207 11.773 14.117 6.3875 18.531 9.757 22.207 16.952 5.0613 9.906 7.1998 23.363 4.1192 25.92-2.123 1.7619-6.8621 2.9459-20.597 5.1457-14.495 2.3216-51.986 3.3893-66.322 1.8888z"/>
	<path d="m215.48 474.39c15.005-1.8431 25.027-4.0914 26.58-5.9629 1.5945-1.9213-0.29429-11.85-3.72-19.554-3.7486-8.4307-8.117-12.03-22.351-18.418-13.867-6.2229-18.989-9.0998-18.989-10.666 0-0.57598 1.6267-2.8478 3.6148-5.0484 7.664-8.4832 11.494-22.49 9.4296-34.491-2.1202-12.328-7.9673-21.826-16.432-26.69-5.6726-3.2602-9.85-3.9423-15.639-2.5537-14.505 3.4797-23.72 19.036-22.739 38.388 0.56297 11.108 3.2144 18.563 8.8981 25.02 2.3394 2.6577 3.8319 5.2328 3.5136 6.0622-0.62963 1.6408-5.8894 4.4331-20.774 11.029-11.779 5.2193-15.48 8.3128-19.315 16.145-2.8155 5.75-5.7736 17.624-4.9349 19.809 0.82112 2.1398 5.1751 3.5486 17.367 5.6193 23.064 3.9172 50.411 4.3925 75.49 1.312z" style="fill:#5d5e5c"/>
	<path d="m423.44 379.99c-20.078-1.5805-37.138-4.8235-39.899-7.5846-4.8215-4.8215 2.6767-28.656 11.016-35.017 1.7506-1.3353 8.528-4.8298 15.061-7.7656 6.5329-2.9358 13.081-5.9079 14.552-6.6047l2.6738-1.2669-3.8512-4.8721c-5.372-6.7961-8.115-14.641-8.7392-24.995-0.86852-14.405 3.4374-26.658 12.21-34.744 6.0104-5.5402 10.604-7.4405 18.08-7.4801 7.6311-0.0404 13.756 2.7785 19.443 8.9482 13.621 14.777 14.588 41.544 2.0964 58.039l-3.8956 5.1441 9.6545 4.5244c5.31 2.4884 12.136 5.6142 15.168 6.9463 9.4662 4.1582 15.088 11.625 18.413 24.457 2.0791 8.0234 2.0106 12.579-0.21935 14.597-6.1055 5.5254-53.066 9.933-81.763 7.674z"/>
	<path d="m485.05 375.13c20.181-3.2598 20.789-3.7144 18.455-13.787-3.4733-14.987-8.8306-22.094-20.249-26.863-11.401-4.761-24.252-11.443-24.252-12.61 0-0.60937 1.4163-2.721 3.1474-4.6926 16.552-18.852 11.813-53.278-8.6474-62.827-8.908-4.157-16.847-2.63-24.983 4.8052-15.209 13.901-16.174 41.032-2.0454 57.538 1.9404 2.2669 3.528 4.6062 3.528 5.1983 0 1.2048-7.6223 5.2224-21.333 11.244-11.834 5.1973-14.606 7.3937-18.459 14.621-3.4918 6.5513-6.6331 18.328-5.6854 21.314 0.77048 2.4276 7.4482 4.3636 21.977 6.3716 16.937 2.3409 17.486 2.3671 42.5 2.0299 17.555-0.23665 26.674-0.82947 36.047-2.3434z" style="fill:#5d5e5c"/>
	<path d="m211.2 357.97c-4.7952-4.4674-4.6348-5.3346 6.1772-33.393 5.4808-14.223 7.346-16.58 13.122-16.58 5.5354 0 9.034 3.5026 8.801 8.8108-0.22231 5.0626-13.757 39.24-16.411 41.439-2.9064 2.409-8.9597 2.2652-11.689-0.27768z"/>
	<path d="m221.7 355.64c1.484-1.4171 15.303-36.883 15.303-39.275 0-2.4663-3.962-6.374-6.4243-6.3363-1.1416 0.0175-2.8763 0.63919-3.8548 1.3816-2.0954 1.5897-15.721 35.94-15.703 39.587 0.0296 5.8276 6.4943 8.6382 10.679 4.6427z" style="fill-opacity:.45833;fill:#4f4e4f"/>
	<path d="m378 317.44c-11.825-6.4164-22.302-12.43-23.282-13.362-0.9801-0.93298-2.0373-3.2693-2.3492-5.1919-0.45906-2.8288-0.0545-4.1049 2.1209-6.6902 4.7054-5.592 7.3085-4.8887 32.102 8.6735 13.959 7.6355 22.168 12.718 23.017 14.25 3.2093 5.7895-0.0839 12.501-6.6088 13.468-3.0443 0.45138-6.2992-0.99993-25-11.147z"/>
	<path d="m406.17 324.35c2.1075-1.9072 2.4005-6.2361 0.57874-8.5514-1.6748-2.1285-43.369-24.794-45.61-24.794-4.8486 0-8.1242 8.088-4.5067 11.128 3.6929 3.1027 43.051 23.831 45.288 23.851 1.3317 0.012 3.2442-0.72301 4.25-1.6333z" style="fill-opacity:.45833;fill:#4f4e4f"/>
	<path d="m40.467 313.01c-13.37-1.3977-27.762-4.0668-31.467-5.8358-2.9559-1.4111-3.5482-2.2525-3.8099-5.4128-0.40282-4.8641 2.1623-14.862 5.5366-21.58 3.1841-6.3393 7.8206-10.646 14.771-13.72 2.8078-1.2417 9.5216-4.3216 14.92-6.844l9.8145-4.5864-3.1098-3.5419c-16.792-19.125-11.818-54.986 9.0744-65.427 6.9818-3.4889 13.005-3.9583 19.841-1.5465 22.773 8.0348 29.646 46.694 11.895 66.911l-3.0553 3.4798 4.9386 2.5026c2.7162 1.3764 9.6064 4.5709 15.311 7.0988 5.7051 2.5279 11.853 6.0285 13.662 7.7791 6.3797 6.1744 11.758 20.531 11.024 29.426-0.26556 3.2179-0.84992 4.0522-3.8746 5.5319-7.1833 3.5141-27.715 5.9256-53.438 6.2766-13.2 0.18007-27.615-0.0505-32.033-0.51238z"/>
	<path d="m98.282 309.94c14.488-1.7584 25.706-4.108 27.832-5.8293 1.888-1.5288 1.9801-2.151 1.0572-7.142-1.5959-8.6301-4.9371-16.447-8.9753-20.997-2.9747-3.3521-6.8146-5.6286-19.114-11.332-8.4655-3.9257-15.875-7.9134-16.465-8.8615-0.8728-1.4022-0.38698-2.4286 2.6031-5.5 7.6622-7.8705 11.728-22.161 9.8147-34.495-3.5834-23.095-21.693-36.078-37.969-27.22-6.3255 3.4428-9.4801 7.0132-13.206 14.946-7.149 15.223-4.8101 34.793 5.5256 46.234 1.9882 2.2007 3.6148 4.6638 3.6148 5.4736 0 1.3231-12.201 7.6958-26.008 13.584-6.6014 2.8154-10.721 6.7212-14.055 13.325-2.5862 5.1233-5.8799 16.025-5.923 19.604-0.029524 2.4508 4.8414 4.2912 16.677 6.3014 22.746 3.8632 52.268 4.6192 74.59 1.9101z" style="fill:#5d5e5c"/>
	<path d="m240.69 304.98c-25.73-2.3054-44.357-6.0154-48.232-9.6064-2.4378-2.2593-2.6379-2.9644-2.0655-7.2791 1.7716-13.355 7.0448-26.36 13.55-33.417 3.1994-3.471 6.7191-5.6323 15.835-9.7242 6.447-2.8937 15.662-7.2229 20.477-9.6204l8.7557-4.3591-2.4668-3.7371c-1.3567-2.0554-3.1745-5.7493-4.0395-8.2086s-2.4067-5.3843-3.426-6.5c-5.9001-6.4576-9.0355-20.894-5.6576-26.049 1.1736-1.7912 1.9263-6.0042 2.4618-13.78 0.82709-12.009 2.6673-17.325 7.9768-23.043 8.7475-9.421 30.166-12.18 43.699-5.6284 5.6361 2.7284 11.842 9.7637 13.875 15.729 0.87084 2.5558 1.8748 9.1683 2.2311 14.695 0.39715 6.1604 1.2198 10.93 2.1263 12.327 3.2443 5.0025 0.19644 17.936-6.2967 26.72-1.2197 1.65-2.7451 4.575-3.3897 6.5s-2.3018 5.2081-3.6826 7.2959l-2.5106 3.7959 13.795 6.5078c7.587 3.5793 16.873 7.9405 20.636 9.6916 8.4396 3.9274 13.675 9.4027 18.191 19.023 3.6838 7.8482 7.0256 22.326 6.0503 26.212-0.33793 1.3464-1.6972 3.1575-3.0205 4.0245-2.9557 1.9366-16.92 4.8416-33.562 6.9818-14.659 1.8852-56.863 2.7418-71.309 1.4474z"/>
	<path d="m309 301.57c24.952-3.0598 35.339-5.4659 37.001-8.5715 1.4903-2.7847-1.5856-17.227-5.4511-25.594-5.0965-11.032-8.6976-14.331-22.313-20.443-17.971-8.0664-29.27-13.884-29.838-15.364-0.28259-0.73643 0.60707-2.9907 1.977-5.0094 1.37-2.0187 3.2205-5.8672 4.1123-8.5521 0.89178-2.6849 2.3069-5.4505 3.1446-6.1458 5.362-4.45 9.3169-20.797 5.8664-24.248-1.3669-1.3669-1.8877-4.2716-2.4103-13.443-0.52535-9.2192-1.154-12.706-2.9657-16.447-3.0065-6.2083-9.2326-11.438-15.938-13.387-6.1699-1.7936-18.104-2.0031-23.98-0.42086-6.589 1.7742-13.198 6.948-16.555 12.96-2.7344 4.8968-3.0746 6.5224-3.6224 17.31-0.39894 7.8568-1.0287 12.168-1.8517 12.677-3.8256 2.3644-1.6254 15.428 3.878 23.025 1.7087 2.3588 3.763 6.1551 4.5651 8.4362 0.80211 2.2811 2.5987 5.8749 3.9924 7.9863s2.2974 4.4555 2.0081 5.2094c-0.64431 1.679-6.6556 4.8235-26.028 13.615-15.639 7.0972-19.161 9.6077-23.279 16.592-4.9487 8.3933-9.8387 25.518-8.6189 30.182 1.1773 4.502 20.467 8.4335 56.306 11.476 9.4851 0.80523 48.063-0.38074 60-1.8445z" style="fill:#5aaaff"/>
	<path d="m131.5 278.79c-3.2229-1.8483-4.4343-4.041-4.4682-8.0876-0.0577-6.886 1.6811-7.7373 29.78-14.58 28.146-6.8539 31.783-7.2498 35.014-3.8104 2.8724 3.0576 2.96 9.4651 0.17024 12.46-2.2538 2.4192-1.303 2.1326-32.128 9.6827-24.2 5.9274-25.3 6.0955-28.368 4.3355z"/>
	<path d="m163.22 270.89c25.784-6.3036 28.779-7.56 28.779-12.072 0-2.5002-3.6525-6.8144-5.7692-6.8144-1.2507 0-40.55 9.3949-50.483 12.068-2.0654 0.55591-4.4632 2.0944-5.3329 3.4218-2.6376 4.0255 0.39862 9.5097 5.2648 9.5097 1.395 0 13.789-2.751 27.542-6.1133z" style="fill-opacity:.45833;fill:#4f4e4f"/>
	<path d="m314.66 210.87c-2.4969-1.4514-4.5895-6.766-3.9602-10.058 0.6657-3.4824 1.195-3.9284 19.367-16.32 17.447-11.898 19.931-12.649 25.014-7.5662 3.1015 3.1014 3.6703 6.3429 1.8241 10.395-0.64408 1.4136-7.9914 7.022-17.75 13.549-16.979 11.357-20.024 12.6-24.495 10.001z"/>
	<path d="m336.86 199.1c8.1448-5.4472 15.559-10.654 16.476-11.571 3.739-3.739 0.68886-10.774-4.6712-10.774-1.421 0-8.8919 4.4517-18.261 10.881-17.26 11.845-19.147 14.054-16.043 18.791 3.0212 4.611 6.1957 3.5773 22.499-7.3266z" style="fill-opacity:.45833;fill:#4f4e4f"/>
	<path d="m197.85 192.4c-20.695-14.689-20.848-14.832-20.848-19.489 0-2.0591 0.27953-4.4723 0.62118-5.3627 0.7847-2.0449 5.5427-4.5448 8.65-4.5448 2.6727 0 36.622 23.581 39.154 27.197 2.302 3.2866 1.9294 7.2287-1.014 10.727-2.0573 2.445-3.3718 3.0767-6.4016 3.0767-3.2587 0-6.1884-1.6862-20.161-11.604z"/>
	<path d="m221.37 199.93c1.7494-1.376 2.6349-3.0339 2.6349-4.933 0-3.362-1.921-5.0348-22.203-19.334-14.429-10.172-17.247-11.211-20.797-7.6606-2.2317 2.2317-2.501 4.1953-0.96823 7.0594 1.1917 2.2267 35.529 26.941 37.431 26.941 0.69735 0 2.4536-0.93266 3.9028-2.0726z" style="fill-opacity:.45833;fill:#4f4e4f"/>
	<path d="m394.5 179.38c-22.382-2.3284-35.631-5.3034-37.873-8.5039-3.5967-5.135 2.9329-25.293 10.564-32.612 1.9208-1.8424 9.1685-5.8742 16.841-9.3683 7.4077-3.3736 14.005-6.5642 14.661-7.0902 0.88097-0.70657 0.0729-2.5914-3.0946-7.218-5.9224-8.6506-7.951-16.626-7.4368-29.236 0.34902-8.5584 0.83212-10.773 3.676-16.853 5.7172-12.223 13.584-18.363 24.67-19.253 27.6-2.2154 42.842 41.001 23.471 66.547l-4.0146 5.2944 16.374 7.8337c17.263 8.2591 18.928 9.5871 23.552 18.796 2.3068 4.5935 5.0716 15.171 5.0952 19.493 0.0296 5.4281-5.7503 7.7446-26.985 10.815-7.6164 1.1013-52.184 2.1167-59.5 1.3557z"/>
	<path d="m436.27 176.99c16.663-1.2015 31.687-3.4536 37.605-5.637l4.377-1.6148-0.52732-5.6188c-0.65763-7.0072-3.8525-15.612-7.8407-21.118-2.5722-3.5508-5.0303-5.138-15.718-10.149-18.159-8.514-21.168-10.18-21.168-11.719 0-0.75333 1.4163-2.9828 3.1474-4.9544 1.731-1.9716 4.5436-6.531 6.25-10.132 2.8915-6.1019 3.1012-7.2958 3.0819-17.547-0.0251-13.315-2.153-19.696-9.1705-27.501-7.5601-8.4086-15.182-11.116-23.958-8.5101-10.485 3.1138-19.195 14.719-21.605 28.785-2.1349 12.464 1.7511 26.419 9.8048 35.212 2.7192 2.9686 3.4047 4.3654 2.6982 5.4971-0.52099 0.83448-7.7787 4.6672-16.128 8.5172-8.3496 3.85-16.54 8.2969-18.201 9.882-3.7538 3.5826-7.4733 10.807-9.428 18.311-3.0051 11.537-2.1713 12.385 15.065 15.312 21.388 3.6322 40.148 4.5393 61.715 2.9842z" style="fill:#5d5e5c"/>
	<path d="m107.5 162.97c-23.326-2.6071-34.108-5.5642-35.13-9.6349-0.8585-3.4205 1.3158-13.824 4.242-20.297 4.6317-10.246 6.263-11.61 24.056-20.123l16.381-7.8369-3.3182-4.347c-7.5376-9.8748-10.835-22.945-8.9106-35.322 3.0126-19.378 15.141-32.377 30.233-32.403 10.84-0.01907 20.254 7.0899 26.308 19.867 3.002 6.336 3.1373 7.1657 3.1182 19.123-0.0234 14.636-1.868 20.751-8.5498 28.342l-4.0031 4.5478 7.2865 3.447c4.0076 1.8958 11.214 5.2618 16.015 7.48 4.8005 2.2182 9.9105 5.3043 11.356 6.8581 4.0132 4.3151 8.4153 13.804 10.057 21.68 2.4784 11.886 0.69361 13.349-20.421 16.74-14.477 2.3244-54.859 3.4291-68.72 1.88z"/>
	<path d="m152.9 160.95c17.426-1.2492 36.63-4.407 39.923-6.5648 2.1943-1.4378 2.3533-2.0336 1.7519-6.5669-0.86879-6.5493-3.8646-14.409-7.6986-20.197-2.5802-3.8954-4.4844-5.329-11.482-8.6447-4.614-2.1862-12.238-5.7991-16.941-8.0287-4.7036-2.2296-8.7722-4.6277-9.0414-5.3291s1.1256-3.0385 3.0994-5.1934c4.9326-5.3851 8.2181-12.576 9.6737-21.174 2.3515-13.889-2.4931-28.955-12.003-37.326-19.353-17.036-44.682 2.5468-42.934 33.194 0.55941 9.8112 3.9236 18.584 9.6101 25.061 1.731 1.9716 3.1474 4.2404 3.1474 5.042 0 0.90075-6.4712 4.5477-16.944 9.549-14.721 7.03-17.34 8.6392-19.968 12.266-3.9571 5.4626-7.1588 14.087-7.8117 21.041-0.50794 5.4108-0.43768 5.6113 2.3497 6.7032 5.074 1.9878 10.582 3.0634 23.873 4.6618 21.378 2.571 32.137 2.8862 51.395 1.5057z" style="fill:#5d5e5c"/>
</svg>
