<?xml version="1.0" encoding="UTF-8" standalone="no"?>
<!-- Created with Inkscape (http://www.inkscape.org/) -->

<svg
   xmlns:dc="http://purl.org/dc/elements/1.1/"
   xmlns:cc="http://creativecommons.org/ns#"
   xmlns:rdf="http://www.w3.org/1999/02/22-rdf-syntax-ns#"
   xmlns:svg="http://www.w3.org/2000/svg"
   xmlns="http://www.w3.org/2000/svg"
   xmlns:sodipodi="http://sodipodi.sourceforge.net/DTD/sodipodi-0.dtd"
   xmlns:inkscape="http://www.inkscape.org/namespaces/inkscape"
   width="336.91959"
   height="187.03459"
   viewbox="0 0 337 187"
   id="svg2"
   version="1.1"
   inkscape:version="0.48.4 r9939"
   sodipodi:docname="Nuovo documento 1">
  <defs
     id="defs4" />
  <sodipodi:namedview
     id="base"
     pagecolor="#ffffff"
     bordercolor="#666666"
     borderopacity="1.0"
     inkscape:pageopacity="0.0"
     inkscape:pageshadow="2"
     inkscape:zoom="1.4"
     inkscape:cx="539.78548"
     inkscape:cy="38.218509"
     inkscape:document-units="px"
     inkscape:current-layer="layer1"
     showgrid="false"
     fit-margin-top="0"
     fit-margin-left="0"
     fit-margin-right="0"
     fit-margin-bottom="0"
     inkscape:window-width="1920"
     inkscape:window-height="1028"
     inkscape:window-x="1358"
     inkscape:window-y="-8"
     inkscape:window-maximized="1" />
  <metadata
     id="metadata7">
    <rdf:RDF>
      <cc:Work
         rdf:about="">
        <dc:format>image/svg+xml</dc:format>
        <dc:type
           rdf:resource="http://purl.org/dc/dcmitype/StillImage" />
        <dc:title></dc:title>
      </cc:Work>
    </rdf:RDF>
  </metadata>
  <g
     inkscape:label="Livello 1"
     inkscape:groupmode="layer"
     id="layer1"
     transform="translate(911.34791,-343.82759)">
    <path
       style="fill:#000000"
       d="m -711.21666,529.77835 c -6.22079,-1.87883 -7.20392,-5.14816 -7.20817,-23.97038 l -0.004,-16.55422 2.94138,-4.63808 c 2.21769,-3.49694 3.89027,-4.92237 6.79808,-5.79357 7.31582,-2.19187 14.4112,2.98694 14.64975,10.69263 0.12928,4.176 -1.85596,5.9491 -5.60684,5.00769 -1.75859,-0.44138 -2.70277,-1.51222 -3.10452,-3.52098 -0.65165,-3.25824 -3.2463,-4.7423 -5.3046,-3.03406 -2.15688,1.79006 -1.9693,31.15524 0.21057,32.96438 2.03649,1.69013 4.65177,0.16852 5.43852,-3.16421 0.48141,-2.0393 1.16971,-2.40536 4.52274,-2.40536 3.2839,0 4.00686,0.3644 4.26107,2.14773 0.45268,3.17572 -2.28488,8.96461 -5.11685,10.8202 -3.21004,2.10329 -8.33784,2.69847 -12.47739,1.44823 z m 10.79859,-2.58143 c 3.12981,-1.84883 4.9895,-5.15925 4.9895,-8.88178 0,-1.90964 -0.52169,-2.45295 -2.35534,-2.45295 -1.78926,0 -2.57473,0.76498 -3.26819,3.18292 -1.07696,3.75513 -5.16188,5.42441 -8.07312,3.29903 -1.57762,-1.15175 -1.84334,-3.25906 -2.12281,-16.8352 -0.36724,-17.83965 0.18582,-19.93469 5.1359,-19.45515 2.49369,0.24157 3.49354,1.01267 4.61403,3.5584 1.82439,4.14499 6.06953,4.70247 6.06953,0.79705 0,-5.91211 -4.66048,-10.54705 -10.60518,-10.54705 -3.47341,0 -9.85195,6.53565 -10.74721,11.01193 -1.01852,5.09263 -0.74555,26.09525 0.39241,30.19258 1.94579,7.00595 9.54804,9.92405 15.97048,6.13022 z m 46.9895,1.66527 c -2.39251,-2.39251 -2.58847,-6.71482 -0.4433,-9.77749 2.0031,-2.85982 8.34702,-3.09137 10.78831,-0.39377 4.00196,4.42211 0.59891,12.17126 -5.34501,12.17126 -1.66667,0 -3.88889,-0.88889 -5,-2 z m 8.03997,-1.83128 c 1.74578,-1.41365 2.10966,-2.43643 1.59555,-4.48477 -0.87407,-3.48261 -4.94272,-4.6209 -7.67581,-2.14748 -2.48751,2.25115 -2.47694,3.9463 0.0403,6.46353 2.46318,2.46318 3.18165,2.48325 6.03997,0.16872 z m 18.17194,2.74744 c -6.22079,-1.87883 -7.20392,-5.14816 -7.20817,-23.97038 l -0.004,-16.55422 2.90995,-4.58851 c 3.64073,-5.74083 7.89,-7.48551 13.58736,-5.57873 4.75239,1.59052 7.72156,5.47166 7.88063,10.30113 0.21774,6.61078 -6.46411,7.53006 -9.37794,1.29021 -0.825,-1.7667 -1.95,-3.34066 -2.5,-3.49767 -2.92936,-0.83627 -3.43954,1.52208 -3.58457,16.5698 -0.12498,12.96738 0.10249,15.5587 1.48728,16.94349 2.04436,2.04436 4.7829,0.61851 5.61963,-2.92592 0.48141,-2.0393 1.16971,-2.40536 4.52274,-2.40536 3.2839,0 4.00686,0.3644 4.26107,2.14773 0.45268,3.17572 -2.28488,8.96461 -5.11685,10.8202 -3.21004,2.10329 -8.33784,2.69847 -12.47739,1.44823 z m 12.38809,-4.31616 c 4.31684,-4.31684 4.85482,-9.6 0.97755,-9.6 -1.88182,0 -2.68023,0.7811 -3.57755,3.5 -1.01775,3.0838 -1.5579,3.5 -4.54237,3.5 -2.32543,0 -3.71177,-0.60635 -4.42245,-1.93426 -1.50695,-2.81578 -1.36328,-32.33764 0.16482,-33.86574 0.66,-0.66 2.48296,-1.2 4.05103,-1.2 2.3131,0 3.12695,0.66038 4.31342,3.5 1.11541,2.66955 2.05238,3.5 3.94897,3.5 3.94183,0 3.4429,-5.24368 -0.91342,-9.6 -4.43619,-4.43619 -8.24759,-4.52633 -13.05126,-0.30865 -4.89151,4.2948 -5.79196,8.58644 -5.38846,25.682 l 0.33972,14.39326 3.26578,2.91669 c 4.78274,4.27151 10.25778,4.09314 14.83422,-0.4833 z m 23.26193,3.88667 c -1.45094,-0.78829 -4.03844,-3.54742 -5.75,-6.13141 l -3.11193,-4.69815 0.004,-15.57855 c 0.003,-13.8612 0.22622,-15.94347 2.02189,-18.88874 5.1142,-8.38828 18.86319,-7.48684 22.6108,1.48246 0.93313,2.2333 1.36357,7.72421 1.36357,17.39447 0,16.08218 -0.75362,18.67106 -7.10567,24.40975 -4.24856,3.83832 -6.01574,4.19241 -10.0324,2.01017 z m 7.23519,-1.53865 c 1.0811,-0.57859 3.30152,-2.8961 4.93426,-5.15004 l 2.96862,-4.09806 0,-15.83418 0,-15.83419 -2.75,-3.07752 c -5.06728,-5.67078 -15.2071,-4.73312 -18.12743,1.67631 -1.55598,3.41501 -1.65567,31.48337 -0.1224,34.46152 1.9906,3.86641 7.23245,8.90814 9.26174,8.90814 1.02826,0 2.75411,-0.47339 3.83521,-1.05198 z m -8.06194,-6.88228 c -0.56935,-1.06384 -1.03518,-8.06119 -1.03518,-15.54966 0,-16.00989 1.09172,-19.51608 6.07671,-19.51608 4.91991,0 6.18537,4.50718 5.76678,20.53951 -0.24162,9.25446 -0.75052,13.64619 -1.71593,14.80835 -1.9536,2.35173 -7.77953,2.17096 -9.09238,-0.28212 z m 7.76482,-0.26574 c 0.82057,-0.82057 1.2,-5.68649 1.2,-15.38922 0,-12.46237 -0.23179,-14.47546 -1.90461,-16.54131 -1.87701,-2.31801 -1.93498,-2.32461 -4,-0.45579 -1.94548,1.76063 -2.09539,2.94406 -2.09539,16.54131 0,14.94629 0.49251,17.04501 4,17.04501 0.88,0 2.14,-0.54 2.8,-1.2 z m -324.32668,7.99107 c -0.28083,-0.73184 -0.38971,-12.12172 -0.24196,-25.31084 l 0.26864,-23.98023 3.7163,-0.30836 c 3.17692,-0.2636 3.79843,0.0267 4.28214,2 0.31121,1.2696 0.43887,12.65836 0.2837,25.30836 l -0.28214,23 -3.75804,0.31084 c -2.44262,0.20204 -3.93676,-0.1549 -4.26864,-1.01977 z m 6.02668,-24.29107 0,-24 -2.5,0 -2.5,0 -0.28254,22 c -0.32126,25.01502 -0.11692,26.76779 3.06789,26.31492 l 2.21465,-0.31492 0,-24 z m 12.5,0 0,-25.5 4.02475,0 c 4.5799,0 3.79873,-1.28184 10.05539,16.5 l 3.87043,11 0.0247,-13.75 0.0247,-13.75 4,0 4,0 0,25.5 0,25.5 -3.89301,0 c -2.78023,0 -4.08865,-0.50022 -4.57745,-1.75 -2.31841,-5.92778 -8.4353,-23.07689 -8.82805,-24.75 -0.25822,-1.1 -0.52169,4.4125 -0.58549,12.25 l -0.116,14.25 -4,0 -4,0 0,-25.5 z m 7,10.58096 c 0.28386,-7.6183 0.93228,-13.55403 1.5,-13.73132 0.55,-0.17175 3.25122,5.86681 6.00271,13.41904 4.60533,12.64059 5.20108,13.73132 7.5,13.73132 l 2.49729,0 0,-24 0,-24 -2.5,0 -2.5,0 -0.5,13.5 c -0.29246,7.89648 -0.91052,13.5 -1.48903,13.5 -0.54397,0 -3.06841,-5.83214 -5.60987,-12.96031 -4.62621,-12.97541 -6.20723,-15.40367 -9.26518,-14.23022 -1.44997,0.55641 -1.63592,3.28354 -1.63592,23.99248 0,12.85059 0.31898,23.6837 0.70885,24.07357 0.38987,0.38986 1.62737,0.57736 2.75,0.41666 1.90978,-0.27337 2.07333,-1.15587 2.54115,-13.71122 z m 36.47521,13.66904 c -0.25412,-0.6875 -0.57749,-10.25 -0.71862,-21.25 l -0.25659,-20 -3.75,-0.31037 c -3.65156,-0.30221 -3.75,-0.41458 -3.75,-4.28077 l 0,-3.97042 12.25,0.28078 12.25,0.28078 0,3.5 c 0,3.3226 -0.19007,3.51573 -3.75,3.81037 l -3.75,0.31036 0,19.85785 c 0,10.92181 -0.27314,20.56965 -0.60699,21.43963 -0.73617,1.91844 -7.23076,2.19059 -7.9178,0.33179 z m 6.52479,-21.21016 0.5,-20.96015 3.37926,-0.68998 c 3.87845,-0.79191 5.50565,-2.721 3.91343,-4.6395 -0.80255,-0.96701 -3.77301,-1.24159 -11.18107,-1.03354 -8.95485,0.2515 -10.12862,0.49455 -10.44829,2.1635 -0.43704,2.28179 1.40063,3.58399 5.08667,3.60452 l 2.75,0.0153 0,20.83333 c 0,11.45834 0.31898,21.15232 0.70885,21.54219 0.38987,0.38986 1.62737,0.57736 2.75,0.41666 1.96216,-0.28087 2.0605,-1.10336 2.54115,-21.25234 z m 18.44997,21.19039 c -0.26799,-0.69838 -0.36637,-12.06088 -0.21861,-25.25 l 0.26864,-23.98023 11,0 11,0 0,3.5 0,3.5 -6.75,0.29569 -6.75,0.29569 0,6.40441 0,6.4044 5.75,0.29991 5.75,0.2999 0.31037,3.75 0.31036,3.75 -4.81036,0.0153 c -6.8681,0.0219 -7.47142,0.6644 -7.11497,7.57745 l 0.3046,5.90725 6.75,0.29569 6.75,0.29569 0,3.95431 0,3.95431 -11.03138,0 c -7.99424,0 -11.16554,-0.34959 -11.51865,-1.26977 z m 21.05003,-2.73023 c 0,-2.37797 -0.316,-2.51482 -6.47407,-2.80353 -3.61564,-0.16952 -6.8099,-0.8318 -7.23469,-1.5 -0.98529,-1.54988 -0.98844,-11.83815 -0.004,-13.3863 0.41608,-0.6544 3.22169,-1.3294 6.23469,-1.5 4.70811,-0.26657 5.47817,-0.59131 5.47817,-2.31017 0,-1.70341 -0.76648,-2.04441 -5.16858,-2.29944 -2.84272,-0.16469 -5.67772,-0.9129 -6.29999,-1.66269 -0.65942,-0.79455 -1.00626,-4.00693 -0.83141,-7.70056 l 0.29988,-6.33731 6.16533,-0.29552 c 6.42456,-0.30794 9.05962,-1.87291 7.96344,-4.72949 -0.48981,-1.27643 -2.23297,-1.49963 -9.86187,-1.26274 l -9.2669,0.28775 -0.26786,24.28643 -0.26786,24.28642 9.76786,-0.28642 c 9.676,-0.28374 9.76786,-0.30994 9.76786,-2.78643 z m 10.96061,2.75796 c -0.28782,-0.75005 -0.3967,-7.18993 -0.24196,-14.31085 l 0.28135,-12.94711 5.9965,-0.30726 c 6.8973,-0.35341 10.5035,-2.82955 10.5035,-7.21207 0,-4.16807 -3.32336,-6.40878 -10.35352,-6.98067 l -6.14648,-0.5 0,-3.5 0,-3.5 6.87738,-0.29859 c 6.00886,-0.26089 7.37136,0.0283 10.78903,2.29002 8.1273,5.37839 9.8191,12.52667 4.96355,20.97221 l -2.85373,4.96365 3.36189,9.98284 c 1.84903,5.49056 3.36188,10.59529 3.36188,11.34385 0,0.98276 -1.18116,1.27556 -4.25,1.05352 l -4.25,-0.3075 -3.03356,-9 c -5.09132,-15.105 -6.29001,-15.32926 -6.68146,-1.25 l -0.28498,10.25 -3.75804,0.31084 c -2.48327,0.20541 -3.93555,-0.15174 -4.28135,-1.05288 z m 6.32448,-9.91463 c 0.30254,-10.24802 1.16821,-12.20022 4.79876,-10.82185 1.57529,0.59807 2.79003,3.14176 4.97746,10.42287 2.41723,8.04605 3.2754,9.72755 5.21272,10.21378 1.27551,0.32014 2.56973,0.33144 2.87605,0.0251 0.30631,-0.30632 -0.83965,-4.74897 -2.54657,-9.87257 -3.67656,-11.03574 -3.7436,-12.10302 -1.00207,-15.95315 7.1451,-10.03437 0.008,-22.29727 -13.0017,-22.3394 -5.31123,-0.0172 -5.59974,0.1107 -5.59974,2.48189 0,2.35048 0.3788,2.53014 6.33343,3.00386 4.79441,0.38142 6.68822,0.98892 7.79343,2.5 2.27593,3.1117 2.67235,6.09966 1.21304,9.14315 -1.74882,3.64729 -5.22386,5.32004 -11.0899,5.33825 l -4.75,0.0147 0,13.06955 c 0,12.98162 0.0151,13.0674 2.25,12.75 2.13262,-0.30288 2.26487,-0.82332 2.53509,-9.97622 z m 28.21491,9.8321 c 0,-1.35974 9.47359,-44.12509 10.62892,-47.98073 0.41776,-1.39417 1.37498,-1.73578 4.20318,-1.5 l 3.66222,0.3053 5.22413,23 c 2.87326,12.65 5.23704,24.0125 5.25283,25.25 0.025,1.95678 -0.48379,2.25 -3.90389,2.25 -4.14923,0 -4.23442,-0.1032 -5.57219,-6.75 -0.6165,-3.06311 -0.90209,-3.25 -4.96648,-3.25 l -4.31236,0 -0.86276,4.75 c -0.85654,4.71572 -0.89341,4.75222 -5.10818,5.0575 -3.17023,0.22962 -4.24542,-0.0571 -4.24542,-1.13207 z m 7.92317,-5.17543 c 1.54462,-4.89787 1.66515,-5.00635 5.90073,-5.31111 5.31834,-0.38266 6.8262,0.78058 7.69759,5.93831 0.67941,4.02139 2.2928,5.54178 4.8425,4.56337 1.08946,-0.41807 0.31486,-5.21036 -3.84856,-23.81018 -5.13727,-22.95042 -6.73222,-27.06781 -9.43553,-24.35791 -0.9315,0.93377 -11.0799,44.12751 -11.0799,47.15841 0,0.92831 0.78972,1.34209 2.17317,1.13866 1.62947,-0.2396 2.56766,-1.57046 3.75,-5.31955 z m 3.39376,-12.11647 c -0.34116,-0.88907 0.10604,-5.05157 0.99379,-9.25 l 1.61409,-7.63353 -0.40258,6.51232 c -0.22143,3.58178 -0.70265,7.29428 -1.0694,8.25 -0.53298,1.38892 -0.11849,1.73768 2.06518,1.73768 2.55428,0 2.68801,-0.2114 2.0558,-3.25 -0.8955,-4.30409 -1.72448,-13.52182 -1.10168,-12.25 1.09204,2.23007 3.3122,14.89845 2.83082,16.1529 -0.73856,1.92466 -6.22527,1.7131 -6.98602,-0.26937 z m 66.45296,-2.63353 -0.26989,-21.25 -4,-0.5 c -3.80952,-0.47619 -4,-0.66667 -4,-4 l 0,-3.5 12.5,0 12.5,0 0,3.5 c 0,3.33333 -0.19048,3.52381 -4,4 l -4,0.5 -0.26989,21.25 -0.26989,21.25 -3.96022,0 -3.96022,0 -0.26989,-21.25 z m 6.99983,-1.44081 0.26971,-21.19081 3.73029,-0.30919 c 3.22985,-0.26771 3.73028,-0.64457 3.73028,-2.80919 l 0,-2.5 -10.5,0 -10.5,0 0,2.5 c 0,2.16705 0.49943,2.54133 3.75,2.81037 l 3.75,0.31036 0,20.77297 c 0,11.42513 0.31898,21.09195 0.70885,21.48182 0.38987,0.38986 1.62737,0.57736 2.75,0.41666 1.97161,-0.28223 2.05034,-1.01415 2.31087,-21.48299 z m 18.67311,6.40242 c -0.27192,-0.70861 -0.3703,-8.69611 -0.21862,-17.75 l 0.27579,-16.46161 4,0 4,0 0.28625,15.5 c 0.35791,19.38068 0.22362,20 -4.33669,20 -1.94319,0 -3.7332,-0.57559 -4.00673,-1.28839 z m 6.33138,-17.06517 c -0.25284,-14.86494 -0.4207,-16.14914 -2.15438,-16.48212 -1.0341,-0.19861 -2.26471,0.24567 -2.73469,0.98729 -0.46998,0.74161 -0.86141,7.96353 -0.86983,16.0487 -0.0133,12.77038 0.20651,14.82445 1.67429,15.64586 3.9878,2.23168 4.3722,0.70716 4.08461,-16.19973 z m -157.003,-36.36065 c -3.01674,-0.45828 -2.91575,-0.19644 -6.77709,-17.57192 -3.67656,-16.54403 -4.69054,-16.55978 -45.99412,-0.71444 -29.43358,11.29163 -29.52026,11.31732 -38.5,11.40884 -11.13257,0.11347 -15.5,-1.40211 -15.5,-5.37879 0,-2.49078 2.23817,-4.10136 25.75,-18.52966 14.1625,-8.69098 25.945,-15.96634 26.18333,-16.16747 1.57334,-1.32772 -4.03421,-2.68741 -22.31107,-5.40989 -21.70348,-3.23289 -26.18215,-4.46031 -29.57895,-8.10634 -3.02651,-3.24858 -2.5661,-5.59917 1.47406,-7.52579 3.22496,-1.53788 5.98962,-1.57922 33.25694,-0.49732 30.95525,1.22824 36.30685,0.86468 38.07748,-2.58677 0.50522,-0.98481 0.44152,-9.27905 -0.15066,-19.61652 l -1.02598,-17.91028 3.10912,-2.778 c 4.60098,-4.11097 13.4254,-6.02556 19.83886,-4.30433 1.96943,0.52855 2.28717,1.99347 4.38915,20.23634 1.46281,12.6956 2.76104,20.19824 3.66258,21.16655 0.97362,1.04573 3.42996,1.5 8.11085,1.5 6.41129,0 8.66344,-0.80101 49.90661,-17.75 23.75578,-9.7625 44.45578,-17.74012 46,-17.72804 6.54626,0.0512 15.01709,6.3119 14.14047,10.45106 -0.18303,0.86424 -16.05094,10.67387 -35.26202,21.79917 -19.21108,11.12529 -35.09054,20.72869 -35.28769,21.34088 -0.52979,1.64506 2.94709,2.76473 27.71692,8.92576 12.375,3.07805 24.37455,6.42393 26.66566,7.43528 10.14847,4.47976 9.01643,14.02589 -1.66328,14.02589 -1.59693,0 -16.29749,-2.025 -32.66791,-4.5 -16.37042,-2.475 -32.08756,-4.5 -34.92699,-4.5 -7.44987,0 -7.8336,0.78189 -7.02461,14.31342 l 0.67311,11.25877 -2.89221,2.77091 c -2.941,2.81766 -10.7773,5.77902 -14.5727,5.50707 -1.15009,-0.0824 -3.31903,-0.33638 -4.81986,-0.56438 z m 14.72879,-4.58126 4,-2.26257 0.5,-13.47098 0.5,-13.47098 4,-1.36595 c 3.66818,-1.25264 6.86886,-0.93837 38.58369,3.78848 34.88231,5.19893 38.37852,5.37468 40.44379,2.033 0.41622,-0.67344 -0.58336,-2.47295 -2.36121,-4.25079 -2.78408,-2.78408 -5.67581,-3.74143 -29.82784,-9.87485 -27.96384,-7.10144 -31.61801,-8.64467 -29.49914,-12.45806 0.57203,-1.0295 16.59221,-10.83815 35.60038,-21.79698 19.00818,-10.95883 34.56033,-20.44289 34.56033,-21.07569 0,-1.97735 -4.32666,-5.25966 -8.5,-6.4483 -3.9188,-1.11614 -4.87291,-0.77961 -47,16.57756 -40.34977,16.62489 -43.46719,17.74306 -50.58011,18.14238 -6.86377,0.38532 -7.82972,0.20363 -10.22151,-1.92263 -2.49995,-2.22241 -2.75992,-3.37504 -4.85409,-21.52143 l -2.21268,-19.17327 -3.30099,-0.61927 c -5.64882,-1.05972 -15.35107,2.47076 -16.74052,6.09159 -0.31781,0.8282 -0.0917,9.3853 0.50245,19.01578 1.56068,25.29654 3.54913,24.17771 -39.80793,22.39839 -27.99039,-1.14869 -30.52093,-1.11514 -32.88831,0.43602 -2.43776,1.59728 -2.48023,1.77381 -0.85804,3.5663 2.80926,3.1042 8.99866,4.74585 28.46173,7.54904 19.41205,2.79585 25,4.31822 25,6.81097 0,1.99148 -0.66574,2.44682 -28.43173,19.44599 -13.16246,8.05845 -24.11153,15.21145 -24.33129,15.89557 -0.65025,2.02433 4.73992,3.51719 12.76302,3.53483 7.16572,0.0157 8.88169,-0.50708 38.5,-11.7303 29.43938,-11.15542 31.30937,-11.72715 37.14538,-11.35685 3.37997,0.21446 6.83739,0.96425 7.68317,1.66618 0.84579,0.70194 2.50586,5.63361 3.68906,10.95927 1.1832,5.32566 2.58062,11.37052 3.10538,13.43302 l 0.9541,3.75 5.71145,-0.0164 c 4.0642,-0.0117 6.86511,-0.66901 9.71146,-2.27902 z"
       id="path2996"
       inkscape:connector-curvature="0" />
    <path
       style="color:#000000;fill:#88d400;fill-opacity:1;fill-rule:nonzero;stroke:none;stroke-width:3;marker:none;visibility:visible;display:inline;overflow:visible;enable-background:accumulate"
       d="m -803.10531,456.82104 c -0.19721,-0.54793 -1.46778,-5.67353 -2.82348,-11.39025 -1.3557,-5.71671 -2.99807,-11.72655 -3.64973,-13.35518 -1.11477,-2.7861 -1.42277,-3.01056 -5.20949,-3.79668 -7.73418,-1.60561 -8.77765,-1.33132 -42.27893,11.11363 -29.91997,11.11458 -30.58654,11.29928 -39.49787,10.94456 -4.07692,-0.16229 -8.02971,-0.69864 -8.97167,-1.21737 -1.67423,-0.92199 -1.66203,-0.94284 2.14286,-3.66298 2.10467,-1.50464 12.98739,-8.45641 24.18382,-15.44836 23.73076,-14.81939 25,-15.70614 25,-17.46619 0,-2.95436 -4.42321,-4.23501 -26.78571,-7.75527 -18.56562,-2.92256 -24.29227,-4.52913 -26.76516,-7.50879 -0.80144,-0.96567 -0.73861,-1.2934 0.40917,-2.13432 2.27541,-1.6671 6.32813,-1.8441 25.6417,-1.11988 29.65593,1.11205 40.14356,0.95722 43.67148,-0.64475 4.40723,-2.00124 4.83746,-3.97388 4.2025,-19.26879 -0.68002,-16.38008 -0.57612,-21.46709 0.46407,-22.72044 0.46865,-0.56469 2.15931,-1.69933 3.75702,-2.52141 3.66869,-1.88769 13.75177,-2.71286 14.3029,-1.17051 0.19337,0.54115 1.18224,8.05533 2.19749,16.69819 2.21089,18.82135 2.72146,21.06931 5.35945,23.59666 1.91273,1.83251 2.40332,1.94403 8.2045,1.86497 8.18367,-0.11153 13.09481,-1.79092 53.64955,-18.34572 17.74361,-7.2431 34.88121,-14.01439 38.08355,-15.0473 5.61125,-1.80991 5.93122,-1.83644 8.8221,-0.73154 2.85047,1.08946 6.92825,4.20949 6.92825,5.30101 0,0.70742 -5.09932,3.84489 -35.1232,21.61036 -32.94342,19.493 -34.45685,20.49321 -34.74174,22.96072 -0.17638,1.52777 0.22084,2.15248 1.93102,3.03685 3.2751,1.69362 11.49567,4.13666 31.50535,9.36296 19.1803,5.00968 25.11166,7.30542 26.98318,10.44389 0.98818,1.65713 1.00465,2.07185 0.12445,3.13243 -1.46251,1.76222 -8.49248,1.15757 -42.58008,-3.66234 -28.23296,-3.99208 -32.94748,-4.30961 -37.56327,-2.52994 -1.87866,0.72433 -1.96428,0.97118 -1.96428,5.66288 0,2.69805 -0.20857,8.78442 -0.46348,13.52527 l -0.46348,8.61974 -3.79038,1.85597 c -4.61767,2.26105 -14.30121,3.4106 -14.89246,1.76792 z"
       id="path2999"
       inkscape:connector-curvature="0" />
    <path
       style="color:#000000;fill:#88d400;fill-opacity:1;fill-rule:nonzero;stroke:none;stroke-width:3;marker:none;visibility:visible;display:inline;overflow:visible;enable-background:accumulate"
       d="m -651.02962,526.4348 c -2.17414,-2.34593 -2.22656,-4.12488 -0.1641,-5.56948 4.87754,-3.41636 9.76482,2.31122 5.10188,5.97909 -2.417,1.90121 -2.82777,1.86714 -4.93778,-0.40961 z"
       id="path3001"
       inkscape:connector-curvature="0" />
  </g>
</svg>
