<?xml version="1.0" encoding="UTF-8" standalone="no"?>
<!-- Created with Inkscape (http://www.inkscape.org/) -->

<svg
   xmlns:dc="http://purl.org/dc/elements/1.1/"
   xmlns:cc="http://creativecommons.org/ns#"
   xmlns:rdf="http://www.w3.org/1999/02/22-rdf-syntax-ns#"
   xmlns:svg="http://www.w3.org/2000/svg"
   xmlns="http://www.w3.org/2000/svg"
   xmlns:sodipodi="http://sodipodi.sourceforge.net/DTD/sodipodi-0.dtd"
   xmlns:inkscape="http://www.inkscape.org/namespaces/inkscape"
   width="49.677841"
   height="50.289459"
   viewbox='0 0 50 50'
   id="svg2"
   version="1.1"
   inkscape:version="0.48.4 r9939"
   sodipodi:docname="interevent.svg">
  <defs
     id="defs4" />
  <sodipodi:namedview
     id="base"
     pagecolor="#ffffff"
     bordercolor="#666666"
     borderopacity="1.0"
     inkscape:pageopacity="0.0"
     inkscape:pageshadow="2"
     inkscape:zoom="15.839192"
     inkscape:cx="16.378139"
     inkscape:cy="33.399915"
     inkscape:document-units="px"
     inkscape:current-layer="layer1"
     showgrid="false"
     inkscape:window-width="1920"
     inkscape:window-height="1028"
     inkscape:window-x="1358"
     inkscape:window-y="-8"
     inkscape:window-maximized="1"
     fit-margin-top="0"
     fit-margin-left="0"
     fit-margin-right="0"
     fit-margin-bottom="0" />
  <metadata
     id="metadata7">
    <rdf:RDF>
      <cc:Work
         rdf:about="">
        <dc:format>image/svg+xml</dc:format>
        <dc:type
           rdf:resource="http://purl.org/dc/dcmitype/StillImage" />
        <dc:title></dc:title>
      </cc:Work>
    </rdf:RDF>
  </metadata>
  <g
     inkscape:label="Livello 1"
     inkscape:groupmode="layer"
     id="layer1"
     transform="translate(-568.52651,-729.64172)">
    <path
       style="fill:#819eb0;fill-opacity:1"
       d="m 570.22236,778.98755 c -1.79756,-1.42287 -1.54583,-5.70052 -1.54583,-24.14692 -0.20189,-18.59204 -0.007,-23.31716 1.06612,-24.4553 1.07266,-1.13815 24.40583,-0.67097 24.40583,-0.67097 3.41459,0.0185 21.30536,-0.64842 22.82609,1.00293 1.52074,1.65135 1.20196,9.86969 1.20196,17.7831 l 0,14.84024 -23.52402,0.0783 c -14.92464,-0.0703 -15.02817,1.85723 -0.0893,1.80357 l 23.61331,0.11815 -0.0496,5.37853 c -0.0411,4.45171 0.56519,6.79522 -1.39269,8.21519 -1.95787,1.41998 -11.53062,0.90628 -23.59589,0.90628 -17.80434,-0.17344 -21.11842,0.56976 -22.91598,-0.8531 z"
       id="path2996"
       inkscape:connector-curvature="0"
       sodipodi:nodetypes="zczszsccccszcz" />
  </g>
</svg>
