<?xml version="1.0" encoding="UTF-8" standalone="no"?>
<!-- Created with Inkscape (http://www.inkscape.org/) -->

<svg
   xmlns:dc="http://purl.org/dc/elements/1.1/"
   xmlns:cc="http://creativecommons.org/ns#"
   xmlns:rdf="http://www.w3.org/1999/02/22-rdf-syntax-ns#"
   xmlns:svg="http://www.w3.org/2000/svg"
   xmlns="http://www.w3.org/2000/svg"
   xmlns:sodipodi="http://sodipodi.sourceforge.net/DTD/sodipodi-0.dtd"
   xmlns:inkscape="http://www.inkscape.org/namespaces/inkscape"
   width="188"
   height="70"
   viewbox="0 0 188 70"
   id="svg3026"
   version="1.1"
   inkscape:version="0.48.4 r9939"
   sodipodi:docname="logo mion labels.svg"
   inkscape:export-filename="C:\Stuff\work\varie\logo e firme\mion labels transp.png"
   inkscape:export-xdpi="249.42857"
   inkscape:export-ydpi="249.42857">
  <defs
     id="defs3028" />
  <sodipodi:namedview
     id="base"
     pagecolor="#ffffff"
     bordercolor="#666666"
     borderopacity="1.0"
     inkscape:pageopacity="0.0"
     inkscape:pageshadow="2"
     inkscape:zoom="1.979899"
     inkscape:cx="97.235994"
     inkscape:cy="108.26477"
     inkscape:document-units="px"
     inkscape:current-layer="layer1"
     showgrid="false"
     inkscape:window-width="1920"
     inkscape:window-height="1028"
     inkscape:window-x="1358"
     inkscape:window-y="-8"
     inkscape:window-maximized="1" />
  <metadata
     id="metadata3031">
    <rdf:RDF>
      <cc:Work
         rdf:about="">
        <dc:format>image/svg+xml</dc:format>
        <dc:type
           rdf:resource="http://purl.org/dc/dcmitype/StillImage" />
        <dc:title></dc:title>
      </cc:Work>
    </rdf:RDF>
  </metadata>
  <g
     inkscape:label="Livello 1"
     inkscape:groupmode="layer"
     id="layer1"
     transform="translate(0,-982.36218)">
    <g
       style="font-size:63.63552475px;font-style:normal;font-variant:normal;font-weight:normal;font-stretch:normal;text-align:start;line-height:100%;letter-spacing:9.88518429px;word-spacing:0px;writing-mode:lr-tb;text-anchor:start;fill:#135333;fill-opacity:1;stroke:none;font-family:Garamond;-inkscape-font-specification:Garamond"
       id="text2985">
      <path
         d="m 62.19283,1031.6473 -19.482165,0 0,-2.2061 c 0.704262,-0.021 1.610528,-0.093 2.718802,-0.2175 1.108196,-0.1243 1.86946,-0.3003 2.283795,-0.5282 0.642113,-0.3936 1.113372,-0.8441 1.413777,-1.3516 0.30032,-0.5075 0.450501,-1.1445 0.450545,-1.911 l 0,-32.06631 -0.466081,0 -15.038864,37.56611 -1.553602,0 -14.324207,-38.34291 -0.403936,0 0,26.31801 c -1.2e-5,2.5479 0.160527,4.4847 0.481616,5.8105 0.321065,1.3257 0.813039,2.2786 1.475922,2.8586 0.455709,0.435 1.398226,0.8493 2.827555,1.2429 1.429295,0.3936 2.361455,0.6007 2.796483,0.6214 l 0,2.2061 -17.8042755,0 0,-2.2061 c 0.9321586,-0.083 1.9109267,-0.2382 2.9363075,-0.4661 1.025371,-0.2278 1.817707,-0.5696 2.37701,-1.0253 0.725007,-0.58 1.222159,-1.4708 1.491458,-2.6722 0.269282,-1.2015 0.403928,-3.2108 0.403936,-6.028 l 0,-22.5583 c -8e-6,-1.30499 -0.155368,-2.37179 -0.46608,-3.20042 -0.310728,-0.82855 -0.756094,-1.50177 -1.336098,-2.01968 -0.642161,-0.55926 -1.429319,-0.97355 -2.361474,-1.24288 -0.9321648,-0.26925 -1.8539675,-0.42461 -2.7654112,-0.46608 l 0,-2.20612 15.0388642,0 12.615246,33.06068 10.781995,-27.65414 c 0.393539,-1.01498 0.730152,-2.07661 1.009841,-3.18489 0.279607,-1.10819 0.429789,-1.84874 0.450545,-2.22165 l 14.386351,0 0,2.20612 c -0.580066,0.0208 -1.320616,0.11397 -2.22165,0.27965 -0.901142,0.16575 -1.558833,0.32111 -1.973074,0.46608 -0.704351,0.24861 -1.180788,0.66291 -1.429314,1.24288 -0.248626,0.58005 -0.372914,1.21185 -0.372864,1.89539 l 0,31.78666 c -5e-5,0.7251 0.124238,1.3361 0.372864,1.8333 0.248526,0.4971 0.724963,0.9321 1.429314,1.305 0.372812,0.2072 1.035682,0.3988 1.98861,0.5748 0.952821,0.1761 1.708906,0.2745 2.268259,0.2952 z"
         style="fill:#135333;font-family:Georgia;-inkscape-font-specification:Georgia"
         id="path3000" />
      <path
         d="m 92.119478,1031.6473 -14.82136,0 0,-2.0507 c 0.476435,-0.041 0.968408,-0.083 1.475921,-0.1243 0.507506,-0.041 0.947693,-0.1243 1.320562,-0.2486 0.580006,-0.1864 1.009835,-0.5127 1.289489,-0.9787 0.279642,-0.4661 0.419466,-1.072 0.419473,-1.8178 l 0,-18.9228 c -7e-6,-0.6629 -0.150188,-1.2688 -0.450545,-1.8177 -0.300369,-0.549 -0.719841,-1.0099 -1.258417,-1.3828 -0.393584,-0.2485 -0.963237,-0.4608 -1.708962,-0.6369 -0.745731,-0.1761 -1.429315,-0.2848 -2.050754,-0.3263 l 0,-2.0197 10.813068,-0.6836 0.435008,0.4351 0,24.9819 c -1.3e-5,0.725 0.139811,1.3257 0.419472,1.8022 0.279635,0.4764 0.719822,0.8285 1.320562,1.0564 0.455708,0.1864 0.901074,0.3366 1.336097,0.4505 0.434993,0.114 0.921787,0.1917 1.460386,0.2331 z m -3.915076,-43.09687 c -1.4e-5,1.18078 -0.388414,2.21133 -1.165202,3.09167 -0.776812,0.88041 -1.734865,1.3206 -2.874163,1.32056 -1.056457,4e-5 -1.973081,-0.41944 -2.749875,-1.25842 -0.776806,-0.8389 -1.165206,-1.79696 -1.165201,-2.87416 -5e-6,-1.13927 0.388395,-2.13357 1.165201,-2.98292 0.776794,-0.84925 1.693418,-1.2739 2.749875,-1.27395 1.180727,5e-5 2.149138,0.3988 2.905235,1.19627 0.756074,0.79756 1.134116,1.72454 1.13413,2.78095 z"
         style="fill:#135333;font-family:Georgia;-inkscape-font-specification:Georgia"
         id="path3002" />
      <path
         d="m 135.6246,1016.0181 c -3e-5,2.1543 -0.34182,4.2724 -1.02537,6.3542 -0.68362,2.0819 -1.65721,3.8478 -2.92078,5.2978 -1.42934,1.6572 -3.08651,2.8897 -4.97152,3.6976 -1.88506,0.8079 -3.99796,1.2118 -6.3387,1.2118 -1.94719,0 -3.80115,-0.3677 -5.56189,-1.1031 -1.76076,-0.7353 -3.32472,-1.8073 -4.69188,-3.2159 -1.34646,-1.3879 -2.41844,-3.0813 -3.21595,-5.0803 -0.79752,-1.9989 -1.19628,-4.2413 -1.19628,-6.7271 0,-4.7851 1.39306,-8.7001 4.17919,-11.7452 2.78612,-3.045 6.43708,-4.5676 10.95289,-4.5676 4.28792,0 7.82495,1.4449 10.6111,4.3345 2.7861,2.8898 4.17916,6.7375 4.17919,11.5433 z m -6.43191,0.062 c -2e-5,-1.5536 -0.15538,-3.1953 -0.46608,-4.925 -0.31074,-1.7296 -0.77682,-3.1952 -1.39824,-4.3967 -0.66289,-1.2842 -1.53291,-2.3148 -2.61005,-3.0916 -1.07719,-0.7768 -2.39257,-1.1652 -3.94615,-1.1652 -1.59505,0 -2.95704,0.3936 -4.08597,1.1807 -1.12896,0.7872 -2.04559,1.8644 -2.74988,3.2315 -0.66288,1.2636 -1.12896,2.7033 -1.39824,4.319 -0.2693,1.6158 -0.40394,3.1797 -0.40394,4.6919 0,1.9886 0.16054,3.827 0.48162,5.5153 0.32107,1.6882 0.83376,3.1952 1.53807,4.521 0.70429,1.3257 1.58984,2.3666 2.65666,3.1227 1.06679,0.7561 2.38735,1.1341 3.96168,1.1341 2.58932,0 4.64007,-1.2532 6.15226,-3.7597 1.51215,-2.5065 2.26824,-5.9658 2.26826,-10.378 z"
         style="fill:#135333;font-family:Georgia;-inkscape-font-specification:Georgia"
         id="path3004" />
      <path
         d="m 183.79053,1031.6473 -15.00779,0 0,-2.0507 c 0.47641,-0.041 0.99946,-0.083 1.56913,-0.1243 0.56963,-0.041 1.04089,-0.1243 1.41378,-0.2486 0.57999,-0.1864 1.00982,-0.5127 1.28949,-0.9787 0.27962,-0.4661 0.41945,-1.072 0.41947,-1.8178 l 0,-15.7535 c -2e-5,-2.175 -0.51271,-3.8529 -1.53806,-5.0337 -1.0254,-1.1807 -2.27346,-1.771 -3.74418,-1.7711 -1.0979,10e-5 -2.10256,0.171 -3.01399,0.5127 -0.91146,0.3418 -1.71933,0.7613 -2.42362,1.2584 -0.6836,0.4765 -1.22736,0.9892 -1.63128,1.5381 -0.40395,0.549 -0.69913,0.9892 -0.88555,1.3206 l 0,17.6178 c -2e-5,0.7043 0.14499,1.2843 0.43501,1.7401 0.28999,0.4557 0.725,0.8078 1.30502,1.0564 0.43499,0.2071 0.90625,0.3625 1.41378,0.4661 0.50749,0.1036 1.03054,0.1761 1.56914,0.2175 l 0,2.0507 -15.0078,0 0,-2.0507 c 0.47644,-0.041 0.96841,-0.083 1.47593,-0.1243 0.5075,-0.041 0.94769,-0.1243 1.32056,-0.2486 0.58,-0.1864 1.00983,-0.5127 1.28949,-0.9787 0.27964,-0.4661 0.41946,-1.072 0.41947,-1.8178 l 0,-18.9228 c -1e-5,-0.7043 -0.15019,-1.3516 -0.45055,-1.942 -0.30037,-0.5904 -0.71984,-1.072 -1.25841,-1.4449 -0.39359,-0.2485 -0.85967,-0.4298 -1.39824,-0.5437 -0.53859,-0.1139 -1.1186,-0.1916 -1.74004,-0.2331 l 0,-2.0197 10.19163,-0.6836 0.43501,0.4351 0,4.319 0.15536,0 c 0.49714,-0.4972 1.11858,-1.0927 1.86432,-1.7867 0.74571,-0.6939 1.45001,-1.2584 2.1129,-1.6934 0.76642,-0.4971 1.67787,-0.9114 2.73434,-1.2429 1.05642,-0.3314 2.24752,-0.4971 3.57328,-0.4971 2.94146,0 5.12168,0.9166 6.54066,2.7498 1.41893,1.8333 2.12841,4.2725 2.12844,7.3175 l 0,15.94 c -3e-5,0.725 0.12425,1.3102 0.37286,1.7555 0.24855,0.4454 0.6732,0.7924 1.27396,1.0409 0.49711,0.2072 0.92694,0.3522 1.28948,0.4351 0.36248,0.083 0.86481,0.145 1.507,0.1864 z"
         style="fill:#135333;font-family:Georgia;-inkscape-font-specification:Georgia"
         id="path3006" />
    </g>
    <g
       style="font-size:15.08483887px;font-style:normal;font-variant:normal;font-weight:normal;font-stretch:normal;text-indent:0;text-align:start;text-decoration:none;line-height:100%;letter-spacing:3.50141978px;word-spacing:0px;text-transform:none;direction:ltr;block-progression:tb;writing-mode:lr-tb;text-anchor:start;baseline-shift:baseline;color:#000000;fill:#135333;fill-opacity:1;fill-rule:nonzero;stroke:none;marker:none;visibility:visible;display:inline;overflow:visible;enable-background:accumulate;font-family:Georgia;-inkscape-font-specification:Georgia"
       id="text3772">
      <path
         d="m 69.165701,1050.058 0,-9.9572 0.964258,0 0,9.9572 z"
         style="font-size:14.00567913px;line-height:100%;color:#000000;fill:#135333;marker:none;visibility:visible;display:inline;overflow:visible;enable-background:accumulate;font-family:AvantGarde Bk BT;-inkscape-font-specification:AvantGarde Bk BT"
         id="path2987" />
      <path
         d="m 81.550606,1046.2488 c -7e-6,-0.7978 -0.284953,-1.4942 -0.854839,-2.0892 -0.569898,-0.595 -1.226414,-0.8924 -1.969548,-0.8925 -0.806972,10e-5 -1.494261,0.2975 -2.061872,0.8925 -0.567614,0.595 -0.85142,1.3324 -0.851419,2.2123 -10e-7,0.8389 0.282665,1.5467 0.848,2.1234 0.565331,0.5768 1.244642,0.8651 2.037936,0.8651 0.76593,0 1.432704,-0.3043 2.000323,-0.9129 0.567606,-0.6087 0.851412,-1.3416 0.851419,-2.1987 z m 0,2.6192 c -0.30091,0.4332 -0.707813,0.7728 -1.22071,1.019 -0.512908,0.2462 -1.065704,0.3693 -1.658387,0.3693 -1.103315,0 -2.021981,-0.3773 -2.756,-1.1318 -0.734023,-0.7545 -1.101033,-1.6857 -1.101033,-2.7936 0,-1.1261 0.374989,-2.0676 1.124968,-2.8244 0.749976,-0.7568 1.688019,-1.1352 2.814129,-1.1352 0.579006,0 1.110146,0.1174 1.59342,0.3522 0.483263,0.2348 0.884466,0.5733 1.203613,1.0155 l 0,-1.2036 0.943742,0 0,7.5226 -0.943742,0 z"
         style="font-size:14.00567913px;line-height:100%;color:#000000;fill:#135333;marker:none;visibility:visible;display:inline;overflow:visible;enable-background:accumulate;font-family:AvantGarde Bk BT;-inkscape-font-specification:AvantGarde Bk BT"
         id="path2989" />
      <path
         d="m 88.457704,1040.1008 0,3.139 0,0.5608 c 0.405761,-0.4879 0.850277,-0.848 1.333548,-1.0806 0.483266,-0.2325 1.023523,-0.3487 1.620775,-0.3487 1.057714,0 1.952445,0.3807 2.684194,1.142 0.731733,0.7614 1.097604,1.6869 1.097613,2.7766 -9e-6,1.1261 -0.373858,2.0687 -1.121549,2.8278 -0.747706,0.7591 -1.686888,1.1386 -2.817549,1.1386 -0.556219,0 -1.065702,-0.1106 -1.528452,-0.3317 -0.462755,-0.2211 -0.885615,-0.555 -1.26858,-1.0018 l 0,1.1352 -0.950581,0 0,-9.9572 z m 0,6.2711 c -2e-6,0.8024 0.283804,1.5011 0.851419,2.0961 0.56761,0.595 1.220706,0.8924 1.959291,0.8924 0.806962,0 1.494252,-0.2986 2.061871,-0.8958 0.567606,-0.5973 0.851412,-1.3359 0.851419,-2.2158 -7e-6,-0.8343 -0.282673,-1.5398 -0.848,-2.1166 -0.565339,-0.5767 -1.242371,-0.865 -2.031097,-0.8651 -0.788735,10e-5 -1.460068,0.301 -2.014,0.9028 -0.553937,0.6018 -0.830905,1.3358 -0.830903,2.202 z"
         style="font-size:14.00567913px;line-height:100%;color:#000000;fill:#135333;marker:none;visibility:visible;display:inline;overflow:visible;enable-background:accumulate;font-family:AvantGarde Bk BT;-inkscape-font-specification:AvantGarde Bk BT"
         id="path2991" />
      <path
         d="m 107.25048,1046.5976 -6.79084,0 c 0.0593,0.8206 0.35561,1.484 0.88903,1.9901 0.53342,0.506 1.19905,0.7591 1.99691,0.7591 0.56533,0 1.07367,-0.1471 1.52503,-0.4411 0.45135,-0.2941 0.80012,-0.7033 1.04632,-1.2276 l 1.0942,0 c -0.34651,0.8343 -0.83319,1.4749 -1.46007,1.9217 -0.62689,0.4468 -1.35293,0.6702 -2.17813,0.6702 -1.0942,0 -2.0197,-0.3898 -2.77651,-1.1694 -0.756823,-0.7796 -1.135231,-1.7165 -1.135231,-2.8107 0,-1.1444 0.37043,-2.0904 1.111291,-2.8381 0.74086,-0.7477 1.68802,-1.1216 2.84148,-1.1216 1.13067,0 2.05275,0.3887 2.76626,1.166 0.7135,0.7774 1.07025,1.7884 1.07026,3.033 z m -1.06684,-0.8138 c -0.18237,-0.8434 -0.51747,-1.4783 -1.00529,-1.9046 -0.48783,-0.4263 -1.12383,-0.6394 -1.908,-0.6394 -0.72946,0 -1.34723,0.2291 -1.85329,0.6873 -0.50607,0.4582 -0.81609,1.0771 -0.93006,1.8567 z"
         style="font-size:14.00567913px;line-height:100%;color:#000000;fill:#135333;marker:none;visibility:visible;display:inline;overflow:visible;enable-background:accumulate;font-family:AvantGarde Bk BT;-inkscape-font-specification:AvantGarde Bk BT"
         id="path2993" />
      <path
         d="m 111.86661,1050.058 0,-9.9572 0.96426,0 0,9.9572 z"
         style="font-size:14.00567913px;line-height:100%;color:#000000;fill:#135333;marker:none;visibility:visible;display:inline;overflow:visible;enable-background:accumulate;font-family:AvantGarde Bk BT;-inkscape-font-specification:AvantGarde Bk BT"
         id="path2995" />
      <path
         d="m 117.41964,1047.6918 0.99162,0 0,0.027 c 0,0.4696 0.13449,0.8583 0.40348,1.166 0.26899,0.3078 0.60181,0.4617 0.99845,0.4617 0.37841,0 0.69299,-0.1186 0.94375,-0.3557 0.25074,-0.237 0.37612,-0.5357 0.37612,-0.8958 0,-0.3602 -0.0992,-0.6497 -0.29748,-0.8685 -0.19833,-0.2189 -0.55736,-0.424 -1.0771,-0.6155 -0.83432,-0.2964 -1.37914,-0.5995 -1.63445,-0.9096 -0.25531,-0.31 -0.38297,-0.7249 -0.38297,-1.2446 0,-0.5881 0.21314,-1.0874 0.63942,-1.4977 0.42628,-0.4103 0.9426,-0.6155 1.54897,-0.6155 0.64284,0 1.15346,0.1824 1.53187,0.5471 0.37841,0.3648 0.58129,0.8731 0.60865,1.525 l -1.03265,0 c -0.0228,-0.3556 -0.13564,-0.6314 -0.33851,-0.8274 -0.20289,-0.1961 -0.47986,-0.2941 -0.83091,-0.2941 -0.31458,0 -0.57673,0.106 -0.78645,0.318 -0.20972,0.212 -0.31458,0.4753 -0.31458,0.7899 0,0.2234 0.0433,0.4114 0.12994,0.5642 0.0866,0.1527 0.23023,0.2906 0.43083,0.4137 0.18237,0.114 0.44794,0.2234 0.79671,0.3283 0.34878,0.1048 0.58243,0.1823 0.70097,0.2325 0.46959,0.2006 0.81494,0.4673 1.03607,0.8001 0.22111,0.3328 0.33167,0.7568 0.33167,1.272 0,0.6474 -0.22568,1.1831 -0.67703,1.6071 -0.45136,0.424 -1.02353,0.636 -1.71651,0.636 -0.70667,0 -1.27429,-0.2314 -1.70284,-0.6941 -0.42856,-0.4628 -0.65424,-1.0862 -0.67704,-1.8704 z"
         style="font-size:14.00567913px;line-height:100%;color:#000000;fill:#135333;marker:none;visibility:visible;display:inline;overflow:visible;enable-background:accumulate;font-family:AvantGarde Bk BT;-inkscape-font-specification:AvantGarde Bk BT"
         id="path2997" />
    </g>
  </g>
</svg>
