<?xml version="1.0" encoding="UTF-8" standalone="no"?>
<!-- Created with Inkscape (http://www.inkscape.org/) -->
<svg id="svg2" xmlns:rdf="http://www.w3.org/1999/02/22-rdf-syntax-ns#" xmlns="http://www.w3.org/2000/svg" height="41.533mm" width="280.41mm" version="1.1" xmlns:cc="http://creativecommons.org/ns#" xmlns:dc="http://purl.org/dc/elements/1.1/" viewBox="0 0 993.56696 147.16409">
<metadata id="metadata7">
<rdf:RDF>
<cc:Work rdf:about="">
<dc:format>image/svg+xml</dc:format>
<dc:type rdf:resource="http://purl.org/dc/dcmitype/StillImage"/>
<dc:title/>
</cc:Work>
</rdf:RDF>
</metadata>
<g id="layer1" transform="translate(-32.592579,-597.8654)">
<path id="path3406" d="m64.549,744.47c-0.07688-0.0768-0.13979-1.0721-0.13979-2.2116v-2.0719l1.0515-1.0516c1.2725-1.2725,2.0185-2.68,2.2698-4.2822,0.31033-1.979-0.07751-3.0039-1.917-5.0654-1.7423-1.9526-2.1162-3.7176-1.1921-5.6266,0.84669-1.749,2.9722-2.798,4.8257-2.3816,1.1997,0.26958,1.5214,0.46284,2.936,1.7633,1.6965,1.5597,2.3384,1.8553,4.0076,1.8456,3.8053-0.0217,7.6135-3.8374,7.6005-7.615-0.007-1.6652-0.24938-2.1616-2.0422-4.161-1.1303-1.2605-1.4081-1.7179-1.5887-2.616-0.55202-2.7454,1.2212-5.1475,3.9452-5.3446,1.7004-0.12302,2.5148,0.2029,4.103,1.6422,1.8562,1.6822,2.4525,1.9697,4.0979,1.9758,2.6937,0.01,5.551-1.9639,6.8932-4.7622,1.3044-2.7192,1.046-4.4141-1.0208-6.6964-1.4333-1.5828-1.8885-2.4879-1.8885-3.7555,0-1.3529,0.41999-2.4449,1.2817-3.3329,0.8483-0.87409,1.8453-1.2557,3.2856-1.2576,1.3121,0,2.2107,0.4576,3.8319,1.9586,1.661,1.5379,2.6922,1.9403,4.495,1.7542,3.1797-0.32815,6.5662-3.7385,6.9512-7.0003,0.18969-1.6068-0.20646-2.622-1.6851-4.3184-1.8384-2.109-2.0761-2.632-1.979-4.3522,0.0629-1.1163,0.20017-1.583,0.65965-2.246,0.78924-1.1389,2.3075-1.9426,3.67-1.9426,1.4423,0,2.0366,0.26594,3.3318,1.4909,1.6824,1.5911,3.1134,2.1785,5.3072,2.1785,1.5961,0,1.936-0.0734,3.1866-0.68915,1.5548-0.76547,2.7781-1.9964,3.5415-3.5639,0.67867-1.3935,0.70977-4.529,0.0587-5.9165-0.66049-1.4075-1.9853-2.7728-3.4738-3.5798-1.2448-0.67489-1.4465-0.71864-3.3174-0.71864-1.8708,0-2.0726,0.0433-3.3174,0.71864-0.72892,0.39525-1.6912,1.1341-2.1382,1.642-0.44704,0.50785-1.1679,1.1045-1.602,1.3258-2.2448,1.1445-5.3813-0.25232-6.1227-2.7265-0.57187-1.9089-0.15482-3.1948,1.6767-5.1702,1.8092-1.9512,2.1404-2.5972,2.1411-4.177,0.0007-1.6134-0.49904-3.0845-1.4944-4.3983-1.5982-2.1095-3.8483-3.3286-6.1274-3.32-1.6064,0.007-2.4854,0.44564-4.2706,2.1353-1.7176,1.6257-2.712,2.0481-4.3072,1.8294-2.301-0.31536-3.9033-2.1382-3.8887-4.4241,0.01048-1.5882,0.38008-2.3012,2.1824-4.2063,1.0334-1.0923,1.473-1.739,1.6768-2.4667,1.0804-3.8588-3.1273-8.9627-7.4092-8.9874-1.6376-0.01-2.3407,0.33074-4.0496,1.9596-1.6558,1.5781-2.8816,2.1424-4.3832,2.018-2.3826-0.19759-4.13-2.0672-4.1249-4.4134,0-1.5409,0.41132-2.3485,2.1132-4.184,1.0571-1.1401,1.5551-1.862,1.7294-2.5074,1.0367-3.8359-2.7779-8.6701-7.0565-8.9425-1.8114-0.1154-2.6344,0.22513-4.2671,1.7653-0.77924,0.735-1.8316,1.5247-2.3385,1.7547-3.3592,1.5241-7.0469-1.4426-6.2461-5.0251,0.26119-1.1686,0.50568-1.5461,2.189-3.3804,1.5201-1.6565,1.8868-2.5908,1.6767-4.2723-0.19437-1.5556-0.9906-3.101-2.3108-4.4852-0.67196-0.70445-1.158-1.404-1.158-1.6668v-0.45284h36.103,36.103l35.499,35.477c19.524,19.512,35.642,35.779,35.818,36.149,0.40245,0.84802,0.41161,2.4481,0.0182,3.1883-0.16544,0.31138-16.23,16.489-35.7,35.95l-35.399,35.384h-36.081c-19.845,0-36.144-0.0629-36.221-0.13979zm31.869-20.831c2.0677-0.89128,3.5632-3.4235,3.3641-5.696-0.49359-5.6312-7.8839-7.3518-10.775-2.5086-1.6666,2.7925-0.74849,6.2152,2.1473,8.0049,1.3997,0.86507,3.5319,0.94601,5.2632,0.19975zm20.971-2.2242c1.4068-1.1386,1.6419-1.6147,1.6419-3.3255,0-1.4021-0.0566-1.6076-0.64022-2.3288-1.7543-2.1675-4.7174-2.175-6.4646-0.0161-1.2317,1.5218-0.87087,4.4996,0.66742,5.5082,1.2706,0.83307,1.6252,0.9421,2.8172,0.86654,0.95538-0.0608,1.3618-0.2052,1.9783-0.70424zm-5.2415-13.603c0.63044-0.18717,1.4606-0.66979,2.0603-1.1976,4.0679-3.5807,1.5399-10.159-3.8787-10.093-1.609,0.0196-2.6161,0.4137-3.8119,1.4916-1.836,1.6552-2.4,4.4658-1.3348,6.6526,0.61157,1.2556,0.8216,1.5164,1.8382,2.283,1.478,1.1145,3.2666,1.4156,5.1268,0.86319zm21.433-2.6866c2.261-1.4962,2.3398-4.7536,0.15782-6.5197-1.063-0.86039-2.9882-1.0188-4.2929-0.35318-1.546,0.78875-2.3909,2.6618-2.0413,4.5254,0.16488,0.87891,1.3922,2.3396,2.3205,2.7617,0.99906,0.45438,2.8427,0.2563,3.856-0.41426zm-4.025-14.37c1.068-0.54538,2.203-1.6806,2.7208-2.7214,0.28139-0.56558,0.38386-1.2473,0.38386-2.5538,0-1.5636-0.0703-1.9017-0.57257-2.7561-2.429-4.1319-8.3016-3.9256-10.33,0.36296-1.4794,3.1272,0.0559,6.7285,3.4,7.9757,1.1059,0.41244,3.2872,0.26008,4.3983-0.30732zm19.04-1.313c3.4788-0.95028,4.1415-5.4646,1.0765-7.3343-2.6187-1.5975-6.0639,0.36764-6.0639,3.4589,0,1.7271,1.0582,3.211,2.7097,3.7997,0.99878,0.35611,1.2239,0.36352,2.2777,0.0757zm-2.5516-14.521c1.7326-1.0192,2.6996-2.6237,2.8317-4.6985,0.10638-1.6712-0.34891-2.9371-1.5091-4.1957-1.2923-1.402-2.229-1.8054-4.2228-1.8184-1.4767-0.01-1.8111,0.0629-2.7937,0.60737-1.9983,1.107-2.9754,2.7823-2.9679,5.0888,0.007,1.565,0.39267,2.6534,1.348,3.7851,1.7167,2.0336,5.008,2.5878,7.3138,1.2315zm20.95-1.8052c2.4356-1.6689,2.4489-5.1759,0.0259-6.7128-0.78959-0.50072-1.2323-0.63303-2.1187-0.63303-2.4176,0-4.0394,1.621-4.0394,4.0373,0,1.4783,0.82034,2.8264,2.1222,3.4876,1.2113,0.61521,2.9653,0.53686,4.0102-0.17913zm-37.88-13.74c1.139-0.47591,2.3315-1.5127,2.946-2.5611,0.83313-1.4216,0.93238-3.6047,0.23296-5.1242-0.58851-1.2785-1.5623-2.3184-2.7848-2.9738-1.1938-0.64001-3.8369-0.63918-5.0434,0-4.4185,2.3466-4.2975,8.5267,0.20709,10.573,1.0582,0.48066,3.3884,0.52518,4.4422,0.0848zm20.104-1.7634c0.9762-0.452,1.8712-1.3455,2.1883-2.1847,0.52385-1.3866,0.0671-3.4625-0.96034-4.3644-1.6699-1.4657-4.2385-1.4323-5.6642,0.0738-0.93281,0.98536-1.1802,1.5716-1.1802,2.7968,0,2.9501,2.9775,4.9002,5.6164,3.6785zm-36.2-15.21c1.9266-0.97627,2.987-2.6178,3.1317-4.8477,0.12476-1.9231-0.43104-3.2972-1.8495-4.5724-2.3058-2.0731-5.3606-2.1037-7.6634-0.0768-2.6756,2.3551-2.6657,6.3399,0.0217,8.7054,0.55391,0.48765,1.4403,1.0256,1.9697,1.1956,1.2906,0.4144,3.1038,0.24749,4.3896-0.40406zm20.712-1.5017c1.9031-1.5404,2.1348-4.1998,0.52546-6.0333-0.93972-1.0706-3.0652-1.4971-4.4896-0.90086-0.95076,0.39804-2.1955,1.8493-2.3661,2.7587-0.33982,1.8114,0.37421,3.4732,1.9011,4.4241,0.71851,0.44753,1.0399,0.5126,2.2423,0.45389,1.1934-0.058,1.5208-0.16341,2.1869-0.70257zm-37.537-14.37c4.0824-1.5275,5.0294-6.7529,1.7592-9.7073-1.1977-1.082-2.1406-1.4372-3.8244-1.4406-3.9972-0.008-6.78,3.8591-5.4937,7.6342,1.0548,3.0956,4.4536,4.6755,7.5589,3.5137zm20.423-1.4961c1.4167-0.72382,2.1612-1.7972,2.2677-3.2697,0.11022-1.5238-0.43167-2.7019-1.648-3.583-1.9911-1.4424-4.4956-0.85494-5.8758,1.3783-0.55593,0.89947-0.62121,2.6086-0.13524,3.5398,0.70949,1.3592,2.2992,2.3824,3.7261,2.3982,0.40804,0.007,1.1574-0.20409,1.6653-0.4636zm-62.909,106.26c-1.8495-0.59312-3.1827-2.4762-3.1814-4.4931,0.000699-1.557,0.53168-2.804,1.5723-3.6947,2.362-2.0218,6.0044-1.3137,7.3733,1.4334,1.9187,3.8504-1.6779,8.065-5.7642,6.7544zm-18.664-1.8394c-2.1866-1.1036-2.5234-4.0816-0.64092-5.6656,1.358-1.1427,3.0762-1.1486,4.4233-0.0154,0.89114,0.74989,1.2571,1.5521,1.2571,2.7558,0,1.3276-0.8353,2.553-2.0797,3.0509-1.1618,0.46487-1.8471,0.43565-2.9598-0.12594zm34.814-14.739c-3.1867-1.4278-3.8175-5.6965-1.1836-8.0091,0.97942-0.85997,2.0112-1.1661,3.5912-1.0655,1.5816,0.10072,2.7426,0.7738,3.6189,2.098,0.5126,0.77456,0.57844,1.0685,0.57844,2.5821,0,1.5137-0.0657,1.8076-0.57844,2.5822-0.93063,1.4063-2.0433,2.0154-3.806,2.0836-1.0071,0.0391-1.7234-0.0482-2.2205-0.27126zm-18.817-1.7579c-2.1267-1.5406-1.8639-4.7438,0.48324-5.8897,0.95796-0.46773,1.5248-0.51071,2.6424-0.20031,1.5879,0.44103,2.7579,2.5945,2.254,4.1486-0.56572,1.7446-1.6742,2.5549-3.4951,2.5549-0.81433,0-1.2199-0.13196-1.8845-0.61346zm35.067-14.98c-1.2329-0.57907-1.6101-0.96453-2.1855-2.2331-0.95125-2.097-0.26196-4.6412,1.6131-5.9546,0.71061-0.49778,1.1717-0.64484,2.2334-0.71243,1.5994-0.10183,2.6287,0.20144,3.6113,1.0642,2.5555,2.2438,1.974,6.5216-1.0787,7.935-1.1934,0.55251-2.8919,0.51239-4.1936-0.099zm-18.092-0.80433c-0.87968-0.29572-1.856-1.4063-2.1257-2.4182-0.23743-0.89059-0.03425-2.0886,0.48912-2.8877,0.98914-1.5097,3.4051-1.895,4.9294-0.78617,0.68097,0.49534,1.484,2.0446,1.484,2.863,0,0.93874-0.78141,2.3634-1.5603,2.8448-0.84536,0.52246-2.2913,0.69516-3.2165,0.38414zm36.021-15.05c-1.1038-0.20591-1.9722-0.73347-2.8007-1.7015-1.5344-1.7926-1.494-4.3317,0.0977-6.1399,1.0791-1.2259,2.2437-1.6745,4.0492-1.5595,1.7347,0.11043,2.8979,0.88199,3.7385,2.4797,1.8584,3.5321-1.1683,7.652-5.0848,6.9213zm-18.795-1.8794c-2.121-0.50596-3.2186-2.9259-2.2516-4.9639,0.63778-1.3439,2.252-2.1246,3.8032-1.8393,1.0586,0.19473,2.4779,1.6051,2.6756,2.6588,0.34758,1.853-0.76275,3.6697-2.5119,4.1102-0.51099,0.12867-0.9581,0.22429-0.99354,0.21247-0.03565-0.0119-0.36023-0.092-0.72179-0.17823zm17.745-16.07c-3.0723-1.3307-3.8271-5.4336-1.4355-7.8016,1.1007-1.0898,1.9235-1.3668,3.752-1.2635,1.8705,0.10568,2.9794,0.82342,3.8334,2.4813,0.51693,1.0034,0.58075,1.3223,0.49506,2.4737-0.13595,1.8256-0.91925,3.0714-2.4262,3.8586-1.2972,0.67762-3.0008,0.77917-4.2188,0.25154zm-18.346-1.23c-1.7083-0.61793-2.7084-2.4867-2.2139-4.1372,0.81146-2.7083,4.368-3.4663,6.076-1.2949,2.1411,2.7219-0.61961,6.605-3.8621,5.4321zm2.7259-14.988c-2.4514-0.41321-4.0018-2.4164-3.8397-4.961,0.1154-1.8125,0.9328-3.1043,2.48-3.9198,1.0138-0.53434,1.3123-0.59501,2.52-0.51232,1.3942,0.0955,2.5727,0.6347,3.3922,1.5521,1.0937,1.2243,1.3876,3.74,0.61416,5.2561-0.5718,1.1209-2.0008,2.3256-2.9467,2.4844-0.4137,0.0692-0.89373,0.15223-1.0667,0.1841-0.17299,0.0314-0.69195-0.007-1.1532-0.0836zm-19.71-1.5993c-0.96258-0.5019-1.3171-0.89736-1.6976-1.8938-1.1822-3.0956,2.136-5.8794,5.0302-4.22,1.1836,0.67853,1.6372,1.6306,1.5449,3.243-0.0629,1.1033-0.17117,1.4093-0.69404,1.9653-1.1316,1.2032-2.8849,1.5827-4.1835,0.90554zm3.1448-14.963c-3.7722-0.91834-5.0587-5.4718-2.296-8.1263,2.2195-2.1327,5.7957-1.6562,7.3808,0.9834,1.6407,2.7323,0.33605,6.1113-2.7085,7.0155-1.1748,0.34884-1.4141,0.3617-2.3762,0.12742zm-19.602-1.4502c-2.082-1.1166-2.3892-3.8334-0.62359-5.5147,1.8476-1.7594,4.7859-0.97117,5.658,1.5178,0.47954,1.3684-0.21122,3.1665-1.5239,3.9669-0.8859,0.54014-2.5331,0.55425-3.5105,0.0301zm1.8701-15.495c-1.9374-0.98243-2.891-2.9998-2.4737-5.2334,0.65763-3.5204,4.9752-4.9906,7.7304-2.6323,1.1321,0.96894,1.6671,2.1307,1.6671,3.6197,0,3.6382-3.6764,5.8928-6.9238,4.246zm-18.231-0.73389c-1.2092-0.82293-1.5704-1.5018-1.5704-2.9508,0-1.5413,0.51798-2.4325,1.7916-3.0822,1.7699-0.90303,3.8518-0.20025,4.7872,1.6159,0.41139,0.79889,0.2888,2.4418-0.24092,3.2278-1.1196,1.6615-3.2812,2.2007-4.7674,1.1892z" stroke="#000" stroke-dasharray="none" stroke-miterlimit="4" stroke-width="0.3" fill="#efbb33"/>
<g id="text3425" style="writing-mode:lr-tb;letter-spacing:0px;text-anchor:start;word-spacing:0px;text-align:start;" line-height="125%" font-weight="normal" font-size="170.36746216px" transform="matrix(0.69559158,0,0,0.70229787,112.49767,206.44275)" font-stretch="normal" font-variant="normal" font-style="normal" font-family="Eurostile Extended" fill="#000">
<path id="path2991" d="m327.3,645.48c-0.00014,10.109-1.4767,17.094-4.4296,20.955-2.9532,3.8617-9.5407,6.5308-19.763,8.0073,7.3825,1.0222,12.891,2.8963,16.526,5.6221,3.7479,2.6124,5.622,7.4394,5.6221,14.481v30.837h-13.629v-25.214c-0.00013-8.2912-1.7606-13.8-5.2814-16.526-3.521-2.8394-9.7679-4.2591-18.74-4.2592h-77.517v45.999h-13.8v-113.64h92.51c13.629,0.00011,23.454,2.2717,29.474,6.8147,6.0195,4.5432,9.0293,13.516,9.0295,26.918m-14.311-0.85184c-0.00014-8.7454-2.1013-14.481-6.3036-17.207-4.0889-2.7258-11.017-4.0887-20.785-4.0888h-75.814v44.636h76.154c9.7676,0.00006,16.639-1.5332,20.614-4.5999,4.0887-3.0666,6.1331-9.3134,6.1332-18.74"/>
<path id="path2993" d="m434.75,716.01c-2.0445,3.2938-4.5432,5.7925-7.4962,7.4962-1.363,0.68147-3.0099,1.3062-4.9407,1.874-1.9309,0.45431-3.9185,0.68147-5.9629,0.68147l-21.977,0.5111h-10.392c-14.084,0-23.454-2.0444-28.111-6.1332-4.5431-4.0888-6.8147-9.9949-6.8147-17.718-0.00001-8.5184,1.5333-14.538,4.5999-18.059,3.1802-3.5209,7.6665-5.6221,13.459-6.3036l15.333-1.0222,12.437-0.17036,22.489,0.68147c4.2023,0.00004,7.4961,0.62472,9.8813,1.874,2.385,1.1358,4.8838,3.4642,7.4962,6.9851v-8.5184c-0.0001-4.8838-0.39762-8.9158-1.1926-12.096-0.68156-3.2937-2.442-5.8492-5.2814-7.6665-1.4766-0.90856-3.4074-1.6468-5.7925-2.2148-2.3852-0.6814-5.1111-1.0221-8.1776-1.0222l-14.481-0.5111-11.244,0.17037c-1.8173,0.00007-3.7481,0.0569-5.7925,0.17037-1.9309,0.11364-4.4864,0.39759-7.6665,0.85183-3.0666,0.34081-5.4518,1.647-7.1554,3.9185-1.5901,2.158-2.3852,5.3382-2.3851,9.5406h-12.948c-0.00001-8.6319,1.8172-14.595,5.4518-17.889,3.7481-3.4073,8.4048-5.3381,13.97-5.7925,5.6789-0.56782,10.165-0.96534,13.459-1.1926,3.4073-0.22707,6.7011-0.34065,9.8813-0.34073l19.252,0.5111c4.6566,0.00008,10.165,0.90871,16.526,2.7259,5.6788,1.4766,9.654,4.6568,11.926,9.5406,2.385,4.7704,3.5776,10.96,3.5777,18.57v49.918h-11.926v-9.3702m-40.207,0,3.4073,0c2.0444,0.00001,4.7702-0.0568,8.1776-0.17037,3.4073-0.11357,5.7924-0.17036,7.1554-0.17037,1.9308,0.00001,3.6344-0.11357,5.111-0.34073,1.4764-0.22715,4.543-0.96541,9.1998-2.2148,4.7702-1.3629,7.1553-5.2246,7.1554-11.585-0.0001-5.3382-1.5902-8.7455-4.7703-10.222-3.1803-1.4765-6.9284-2.4987-11.244-3.0666l-13.118-0.68147-10.563,0.17037c-8.1777,0.00004-13.913,0.1704-17.207,0.5111-3.1802,0.34077-6.19,1.0222-9.0295,2.0444-2.7259,1.0222-4.6,2.6123-5.6221,4.7703-0.90865,2.158-1.363,4.7135-1.3629,7.6665-0.00002,3.9752,1.1926,7.1554,3.5777,9.5406,2.4987,2.2716,7.5529,3.4074,15.163,3.4074l13.97,0.34074"/>
<path id="path2995" d="m564.72,645.31-46.51,80.073-15.674,0-45.658-80.073,13.459,0,40.036,70.532,40.888-70.532,13.459,0"/>
<path id="path2997" d="m601.48,714.47,8.6887,1.0222,14.14,0.5111,6.474,0,2.0444,0c4.8838,0.00001,8.9726-0.17036,12.266-0.5111,3.2937-0.34073,6.2467-1.079,8.8591-2.2148,2.6122-1.1358,4.543-2.6691,5.7925-4.5999,1.2493-1.9308,2.0443-4.3728,2.3851-7.3258h12.607c-0.00011,10.449-4.2593,17.264-12.778,20.444-8.4049,3.1802-19.308,4.7703-32.711,4.7703-15.106,0-26.066-0.62468-32.881-1.874-6.8147-1.3629-12.494-4.8839-17.037-10.563-4.4296-5.7925-6.6443-15.333-6.6443-28.622-0.00001-16.242,3.1234-27.202,9.3702-32.881,6.3604-5.7924,17.832-8.6887,34.414-8.6887l8.1776,0.17037c6.2467,0.00008,11.755,0.17045,16.526,0.5111,4.7702,0.34082,8.9158,0.90871,12.437,1.7037,6.4739,1.363,11.642,4.8272,15.503,10.392,3.8616,5.5654,5.7924,14.424,5.7925,26.577l-0.17037,4.0888h-90.124c-0.00002,7.9505,1.0222,14.084,3.0666,18.4,2.158,4.316,6.7579,7.2122,13.8,8.6887m28.111-59.799-9.3702,0c-6.8148,0.00007-12.721,0.3976-17.718,1.1926-4.9975,0.68154-8.7456,2.0445-11.244,4.0888-2.3852,2.0445-4.0888,4.6-5.111,7.6665-0.34076,1.4766-0.6247,2.9531-0.85184,4.4296-0.22718,1.4766-0.34075,3.1802-0.34073,5.111h77.517c-0.0001-3.2937-0.34083-6.3036-1.0222-9.0295-0.68157-2.8394-2.0445-5.2245-4.0888-7.1554-2.0445-1.9308-5.2815-3.4641-9.7109-4.5999-1.9309-0.45425-4.5432-0.85177-7.8369-1.1926-3.1803-0.34066-6.5876-0.51103-10.222-0.5111"/>
<path id="path2999" d="m711.78,661.83c2.4987-7.6097,6.8147-12.437,12.948-14.481,6.2468-2.1579,14.481-3.2369,24.703-3.237h1.5333c8.9726,0.00008,15.958,0.45439,20.955,1.3629,5.5652,0.79513,10.392,2.8395,14.481,6.1332,4.0887,3.0667,6.6442,6.7012,7.6665,10.904,1.1357,4.2025,1.7036,9.0863,1.7037,14.652v48.214h-11.926v-47.021c-0.0001-9.8813-2.6692-16.298-8.0073-19.252-5.3383-2.953-13.629-4.4295-24.874-4.4296-12.948,0.00007-22.716,1.4198-29.303,4.2592-6.5876,2.8395-9.8813,9.9382-9.8813,21.296v45.147h-11.926v-80.073h11.926v16.526"/>
<path id="path3001" d="m953.13,644.11c-0.00015,6.9284-0.45446,12.664-1.3629,17.207-0.79519,4.8839-2.5556,8.7456-5.2814,11.585-2.726,2.7259-6.1334,4.7703-10.222,6.1332-3.9754,1.2494-9.8814,1.8741-17.718,1.874h-79.562v44.466h-13.8v-113.64h94.213c12.38,0.00011,21.069,2.2717,26.066,6.8147,5.1109,4.5432,7.6664,13.062,7.6665,25.555m-14.32,0.69c-0.00013-7.8368-1.4766-13.345-4.4296-16.526-2.9532-3.2937-8.4049-4.9406-16.355-4.9406h-79.05v46.17h71.214c11.244,0.00006,18.797-1.4197,22.659-4.2592,3.9751-2.8394,5.9627-9.6541,5.9629-20.444"/>
<path id="path3003" d="m1057,716.01c-2.0445,3.2938-4.5432,5.7925-7.4961,7.4962-1.3631,0.68147-3.0099,1.3062-4.9407,1.874-1.9309,0.45431-3.9185,0.68147-5.9629,0.68147l-21.977,0.5111h-10.392c-14.084,0-23.454-2.0444-28.111-6.1332-4.5432-4.0888-6.8147-9.9949-6.8147-17.718-0.00001-8.5184,1.5333-14.538,4.5999-18.059,3.1802-3.5209,7.6665-5.6221,13.459-6.3036l15.333-1.0222,12.437-0.17036,22.488,0.68147c4.2024,0.00004,7.4961,0.62472,9.8814,1.874,2.385,1.1358,4.8837,3.4642,7.4961,6.9851v-8.5184c-0.0001-4.8838-0.3976-8.9158-1.1925-12.096-0.6816-3.2937-2.4421-5.8492-5.2814-7.6665-1.4766-0.90856-3.4075-1.6468-5.7925-2.2148-2.3853-0.6814-5.1111-1.0221-8.1777-1.0222l-14.481-0.5111-11.244,0.17037c-1.8173,0.00007-3.7481,0.0569-5.7924,0.17037-1.9309,0.11364-4.4864,0.39759-7.6666,0.85183-3.0666,0.34081-5.4518,1.647-7.1554,3.9185-1.5901,2.158-2.3852,5.3382-2.3852,9.5406h-12.948c-0.00001-8.6319,1.8172-14.595,5.4518-17.889,3.7481-3.4073,8.4048-5.3381,13.97-5.7925,5.6789-0.56782,10.165-0.96534,13.459-1.1926,3.4073-0.22707,6.7011-0.34065,9.8813-0.34073l19.252,0.5111c4.6566,0.00008,10.165,0.90871,16.526,2.7259,5.6788,1.4766,9.6541,4.6568,11.926,9.5406,2.3851,4.7704,3.5776,10.96,3.5778,18.57v49.918h-11.926v-9.3702m-40.207,0,3.4074,0c2.0443,0.00001,4.7702-0.0568,8.1776-0.17037,3.4073-0.11357,5.7924-0.17036,7.1554-0.17037,1.9308,0.00001,3.6345-0.11357,5.1111-0.34073,1.4764-0.22715,4.543-0.96541,9.1998-2.2148,4.7702-1.3629,7.1553-5.2246,7.1554-11.585-0.0001-5.3382-1.5902-8.7455-4.7703-10.222-3.1802-1.4765-6.9283-2.4987-11.244-3.0666l-13.118-0.68147-10.563,0.17037c-8.1777,0.00004-13.913,0.1704-17.207,0.5111-3.1802,0.34077-6.19,1.0222-9.0295,2.0444-2.7259,1.0222-4.5999,2.6123-5.6221,4.7703-0.90865,2.158-1.363,4.7135-1.3629,7.6665-0.00003,3.9752,1.1925,7.1554,3.5777,9.5406,2.4987,2.2716,7.5529,3.4074,15.163,3.4074l13.97,0.34074"/>
<path id="path3005" d="m1157.3,726.23-13.289,0.17036c-17.491,0-30.212-2.5555-38.162-7.6665-7.9505-5.111-11.926-16.015-11.926-32.711,0-6.9282,0.2272-12.323,0.6815-16.185,0.4543-3.8616,2.1012-8.064,4.9407-12.607,2.953-4.5431,7.7233-7.8936,14.311-10.052,6.5875-2.1579,14.311-3.2369,23.17-3.237l7.1554,0.17037c11.926,0.00008,20.785,0.3976,26.577,1.1926,5.9059,0.68155,11.187,3.1235,15.844,7.3258,4.6566,4.0889,6.985,10.96,6.9851,20.614h-12.437c-0.0001-3.6344-0.568-6.6443-1.7037-9.0295-1.0223-2.3851-2.726-4.2023-5.111-5.4518-2.2717-1.3629-5.7358-2.3851-10.392-3.0666-4.5432-0.6814-10.449-1.0221-17.718-1.0222h-2.0444c-8.5184,0.00007-14.368,0.22723-17.548,0.68147-3.1802,0.34081-6.6444,1.3062-10.392,2.8962-3.7481,1.4766-6.1901,3.9753-7.3258,7.4962-0.5679,1.8173-1.0223,3.6346-1.363,5.4518-0.2271,1.8173-0.3975,3.1234-0.5111,3.9184l-0.3407,8.6887v2.3851c0,10.222,1.3629,17.321,4.0888,21.296,2.7259,3.6345,6.5307,5.8493,11.415,6.6443l13.118,1.3629,12.778,0.34073h8.8591c3.4073,0.00001,8.4615-0.79504,15.163-2.3851,6.8146-1.7037,10.222-7.269,10.222-16.696h12.437c-0.0001,11.131-3.2371,18.854-9.711,23.17-6.3605,4.2024-15.617,6.3036-27.77,6.3036"/>
<path id="path3007" d="m1308.1,645.31-58.947,37.651,64.399,42.422-19.763,0-56.051-37.822-7.1554,0,0,37.822-11.926,0,0-114.66,11.926,0,0,66.614,7.1554,0,50.258-32.029,20.103,0"/>
</g>
</g>
</svg>
