<?xml version="1.0" encoding="UTF-8" standalone="no"?>
<!-- Created with Inkscape (http://www.inkscape.org/) -->

<svg
   xmlns:dc="http://purl.org/dc/elements/1.1/"
   xmlns:cc="http://creativecommons.org/ns#"
   xmlns:rdf="http://www.w3.org/1999/02/22-rdf-syntax-ns#"
   xmlns:svg="http://www.w3.org/2000/svg"
   xmlns="http://www.w3.org/2000/svg"
   xmlns:sodipodi="http://sodipodi.sourceforge.net/DTD/sodipodi-0.dtd"
   xmlns:inkscape="http://www.inkscape.org/namespaces/inkscape"
   width="143.78181"
   height="138.53584"
   viewbox="0 0 144 139"
   id="svg3060"
   version="1.1"
   inkscape:version="0.48.4 r9939"
   sodipodi:docname="Nuovo documento 2">
  <defs
     id="defs3062">
    <filter
       color-interpolation-filters="sRGB"
       inkscape:collect="always"
       x="-0.11571057"
       width="1.2314211"
       y="-0.23725408"
       height="1.4745082"
       id="filter3323">
      <feGaussianBlur
         inkscape:collect="always"
         stdDeviation="2.0461169"
         id="feGaussianBlur3325" />
    </filter>
  </defs>
  <sodipodi:namedview
     id="base"
     pagecolor="#ffffff"
     bordercolor="#666666"
     borderopacity="1.0"
     inkscape:pageopacity="0.0"
     inkscape:pageshadow="2"
     inkscape:zoom="0.35"
     inkscape:cx="71.890908"
     inkscape:cy="69.267918"
     inkscape:document-units="px"
     inkscape:current-layer="layer1"
     showgrid="false"
     fit-margin-top="0"
     fit-margin-left="0"
     fit-margin-right="0"
     fit-margin-bottom="0"
     inkscape:window-width="518"
     inkscape:window-height="423"
     inkscape:window-x="1416"
     inkscape:window-y="50"
     inkscape:window-maximized="0" />
  <metadata
     id="metadata3065">
    <rdf:RDF>
      <cc:Work
         rdf:about="">
        <dc:format>image/svg+xml</dc:format>
        <dc:type
           rdf:resource="http://purl.org/dc/dcmitype/StillImage" />
        <dc:title></dc:title>
      </cc:Work>
    </rdf:RDF>
  </metadata>
  <g
     inkscape:label="Livello 1"
     inkscape:groupmode="layer"
     id="layer1"
     transform="translate(-303.10909,-463.09426)">
    <g
       transform="translate(-109.03042,157.72607)"
       id="g3013">
      <path
         inkscape:connector-curvature="0"
         id="path3327"
         d="m 453.55849,332.12342 c -15.40483,8.33376 -20.70813,12.62691 -22.47589,18.18275 -1.76777,5.55584 -8.08122,23.48604 -8.08122,28.28427 0,4.79822 20.96066,-0.50508 20.96066,-0.50508 l 69.95306,-8.83883 -2.0203,-12.37437 c 0,0 -10.6066,-24.74874 -15.40483,-27.02158 -4.79822,-2.27284 -16.41498,-3.53553 -16.41498,-3.53553 l -26.5165,5.80837 z"
         style="fill:#c6e6ff;fill-opacity:1;fill-rule:evenodd;stroke:none" />
      <path
         inkscape:connector-curvature="0"
         id="path2166"
         d="m 459.74567,311.28903 c -7.82868,2.77792 -15.65736,7.44987 -16.03617,8.58629 -0.3788,1.13642 -2.27284,2.27285 -2.0203,4.67196 0.25254,2.39911 2.52538,5.42957 2.52538,5.42957 l 38.89087,-6.43972 c 0,0 -2.14657,-8.5863 -3.40926,-9.72272 -1.26269,-1.13642 -7.44988,-3.53554 -10.73287,-3.53554 -3.283,0 -9.24921,0.97859 -9.21765,1.01016 z"
         style="fill:#ffffac;fill-opacity:1;fill-rule:evenodd;stroke:none;filter:url(#filter3323)" />
      <text
         xml:space="preserve"
         style="font-size:11.75293922px;font-style:normal;font-variant:normal;font-weight:normal;font-stretch:normal;text-align:start;line-height:100%;writing-mode:lr-tb;text-anchor:start;opacity:0.422423;fill:#000000;fill-opacity:1;stroke:none;font-family:Impact"
         x="385.49243"
         y="403.57736"
         id="text2401"
         sodipodi:linespacing="100%"
         transform="matrix(0.9823623,-0.1869875,0.1869875,0.9823623,0,0)"><tspan
           sodipodi:role="line"
           id="tspan2403"
           x="385.49243"
           y="403.57736">tam</tspan></text>
      <path
         inkscape:connector-curvature="0"
         sodipodi:nodetypes="cccccc"
         id="path4300"
         d="m 418.45569,389.95466 -3.03046,9.09137 9.84899,23.73859 7.82868,-29.04189 -7.07107,-6.06092 -7.57614,2.27285 z"
         style="fill:#ffffff;fill-opacity:1;fill-rule:evenodd;stroke:none" />
      <path
         inkscape:connector-curvature="0"
         id="path4448"
         d="m 456.84149,402.07649 5.05076,17.67767 15.9099,-1.01016 c 0,0 51.51778,-5.80837 62.37692,-14.64721 10.85914,-8.83883 -1.51523,-16.66752 -1.51523,-16.66752 l -22.72843,9.34392 c 0,0 -39.14341,10.10152 -52.27539,6.56599 -13.13199,-3.53554 -6.566,-2.02031 -6.81853,-1.26269 z"
         style="fill:#ffffff;fill-opacity:1;fill-rule:evenodd;stroke:none" />
      <path
         inkscape:connector-curvature="0"
         id="path4302"
         d="m 473.00393,380.61074 -1.01016,20.70813 9.34391,0.50508 39.14342,-7.57615 8.58629,-6.06091 -5.80837,-7.32361 -50.25509,-0.25254 z"
         style="fill:#ffffbe;fill-opacity:1;fill-rule:evenodd;stroke:none" />
      <path
         inkscape:connector-curvature="0"
         sodipodi:nodetypes="csccsssssssccssssssccccccsscccccscccsssssccssccsssccssccssssccscccsccssccscccccccssssssccsccssc"
         style="fill:#fdcb32"
         d="m 444.51578,433.52043 c -0.82022,-5.82963 -3.38887,-14.22898 -4.57578,-14.96253 -0.45563,-0.2816 -0.58562,1.29821 -0.28886,3.51067 -7.42209,7.07862 -12.65784,8.42811 -21.26995,0.0928 -1.449,-5.58672 -2.24133,-7.08383 -3.87357,-7.31916 -1.58122,-0.22798 -2.11601,-1.1409 -2.33114,-3.97941 -0.15355,-2.02595 0.18545,-3.97071 0.75334,-4.32169 0.64599,-0.39924 0.79334,-2.97261 0.39362,-6.8742 -0.53361,-5.20828 -0.28886,-6.92221 1.48499,-10.39925 1.16815,-2.28976 3.30824,-4.78373 4.75577,-5.54216 2.50751,-1.31382 2.64505,-1.80303 2.91083,-10.3535 0.47093,-15.15036 6.95028,-30.88555 16.2649,-39.49954 21.88038,-14.38615 20.60242,-9.74126 50.90252,-10.22887 9.46822,2.56292 14.56409,8.02685 22.29266,23.90277 3.21295,6.6 5.42424,12.15 4.91398,12.33333 -2.59958,0.934 -0.38765,1.86012 3.41815,1.43115 2.83357,-0.31938 6.57447,0.22345 10.75,1.55991 3.52225,1.12737 7.60691,2.30295 9.07702,2.61239 3.85461,0.81137 8.36281,4.96209 10.68372,9.83656 1.69836,3.56694 4.07192,23.50078 5.14335,28.96125 -8.75,5.67129 -15.25531,2.59501 -14.38857,2.96951 l -65.11143,13.04242 0,10.62674 c -6.6109,7.77125 -20.87881,11.07557 -31.90555,2.60081 z m 9.50958,-10.15401 c -2.48204,-4.70399 -2.71988,-2.88662 -0.3808,2.9097 1.06454,2.63797 1.8519,3.62809 2.05984,2.5903 0.18512,-0.92397 -0.57044,-3.39897 -1.67904,-5.5 z m -28.18011,-5.57006 c -0.0418,-0.6875 -0.68261,-2.825 -1.42392,-4.75 l -1.34784,-3.5 -0.0761,3.16821 c -0.0418,1.74252 0.19707,3.88002 0.53091,4.75 0.7203,1.87709 2.42585,2.12132 2.31693,0.33179 z m 73.07608,-2.38 c 6.53453,-0.66059 33.47982,-7.5391 39.71429,-10.2614 0,-5.01588 -1.9044,-13.1086 -3.33792,-13.1086 -0.7555,0 -5.31175,1.76896 -10.125,3.93101 -13.36988,6.0056 -49.33682,12.21942 -58.56745,10.1184 -4.09609,-0.93233 -4.10478,-0.92456 -5.03181,4.49769 -1.07951,6.31419 2.22577,7.62009 17.34789,6.85409 6.325,-0.32039 15.325,-1.23442 20,-2.03119 z m -21.20367,-17.32452 c -0.67134,-1.07499 -1.41428,-1.76086 -1.65098,-1.52417 -0.42859,0.4286 1.75074,3.47869 2.48557,3.47869 0.21231,0 -0.16325,-0.87953 -0.83459,-1.95452 z m -53.28402,-4.04954 c 3.80826,-1.25684 3.80638,-2.99594 -0.003,-2.99594 -2.4018,0 -6.50908,4.49711 -6.50908,7.12688 0,0.72497 0.6764,0.35244 1.5031,-0.82784 0.82671,-1.18029 3.08085,-2.66669 5.00921,-3.3031 z m 62.75707,3.08195 c 0.52256,-1.99826 -3.81143,-7.07789 -6.03892,-7.07789 -1.97751,0 -3.4271,3.76407 -2.2771,5.91285 1.85889,3.47338 7.50551,4.26444 8.31602,1.16504 z m 31.90188,-6.73288 c 2.43229,-2.20119 2.30785,-4.01823 -0.37346,-5.45322 -1.64065,-0.87805 -2.29939,-0.88703 -2.58333,-0.0352 -0.20963,0.62887 -1.46864,1.1434 -2.7978,1.1434 -1.6605,0 -2.41667,0.56322 -2.41667,1.8 0,4.05439 4.83828,5.56132 8.17126,2.54501 z m -88.60812,-14.80103 c 0.88509,-1.35082 1.30492,-2.94844 0.93297,-3.55028 -0.37196,-0.60184 -1.00544,-3.20913 -1.40774,-5.79398 l -0.73146,-4.69972 -1.17288,4 c -1.42531,4.86089 -1.55186,12.5 -0.20708,12.5 0.53732,0 1.70111,-1.10521 2.58619,-2.45602 z m 116.43686,-2.92153 c 0,-0.20766 -0.7875,-0.99516 -1.75,-1.75 -1.58606,-1.24388 -1.62143,-1.20851 -0.37756,0.37755 1.30637,1.66575 2.12756,2.19548 2.12756,1.37245 z m -107.40924,-4.12063 c 1.18632,-1.81055 1.46625,-3.66851 1.017,-6.75 -0.55996,-3.84088 0.0635,-9.93327 1.86784,-18.25182 l 0.65071,-3 -3.56315,3.91661 -3.56316,3.91661 0,11.33339 c 0,11.71667 0.65185,13.32057 3.59076,8.83521 z m 13.19973,0.53977 c 1.49023,-1.07713 5.97532,-3.40952 10.20951,-4.01181 8.88847,-1.26433 32.05352,-3.63729 40.41065,-3.41133 3.05206,0.0825 5.57446,0.21467 5.91077,-0.32951 0.32457,-0.52516 -0.54472,-2.62492 -1.93176,-4.66613 -1.38704,-2.04121 -4.17964,-7.84075 -6.20577,-12.88785 -5.6108,-13.97651 -8.85123,-15.4377 -27.18389,-12.2579 -12.62661,2.19008 -21.92746,4.59654 -22.71969,5.8784 -1.81259,6.26675 -2.50423,12.86428 -3.65047,19.29428 -1.18173,6.52701 -1.37319,9.89509 -0.66796,11.75 1.1839,3.11389 2.24658,3.23092 5.82861,0.64185 z m 45.94048,-5.73458 c -0.97297,-0.25354 -2.32297,-0.23687 -3,0.0371 -0.67703,0.27393 0.11903,0.48137 1.76903,0.46099 1.65,-0.0204 2.20394,-0.2445 1.23097,-0.49804 z"
         id="path2224" />
      <path
         inkscape:connector-curvature="0"
         sodipodi:nodetypes="csssssssssssssssssssssssssccssssccsssssssssssscccssscccsssssssssssssscccssssssssssssscccsscccssccssccsscccccsscccsccsssssccsssccssccssccsssccsssccsssccssssssccsscccccccsssssssccssssssssccssssssssccsssc"
         style="fill:#847e36"
         d="m 449.80938,442.54672 c -3.00934,-1.63555 -4.25256,-4.46375 -5.87364,-13.36193 -1.41158,-7.74823 -2.86705,-11.13843 -4.78191,-11.13843 -0.99804,0 -1.21283,-0.54254 -0.69283,-1.75 0.41451,-0.9625 0.9631,-4.53145 1.21909,-7.931 0.34879,-4.63191 1.00125,-6.67782 2.60334,-8.16335 3.79977,-3.52331 7.10196,-3.21112 12.90737,1.22025 2.83672,2.16531 4.92611,3.10113 5.8266,2.60967 0.77216,-0.42142 3.99122,-0.29037 7.15347,0.29123 3.16225,0.5816 5.97692,0.83008 6.25481,0.55218 0.8063,-0.8063 -1.32404,-10.64675 -3.12779,-14.44787 -0.90597,-1.90919 -3.72382,-4.90618 -6.26189,-6.66 -3.90583,-2.69894 -5.70178,-3.24508 -11.69198,-3.55551 -6.30932,-0.32696 -7.35894,-0.11169 -9.67275,1.98382 -1.42749,1.29282 -4.03914,5.18869 -5.80365,8.65748 -3.12255,6.13853 -3.19526,6.57579 -2.72322,16.37856 0.3783,7.85612 0.83822,10.26933 2.09074,10.97028 0.88317,0.49425 1.90626,2.50042 2.27354,4.45817 0.88263,4.70482 -0.9711,6.48922 -8.34559,8.03352 -7.82463,1.63856 -10.03675,0.062 -12.62824,-8.99992 -1.41005,-4.9307 -2.35167,-6.64751 -3.64597,-6.64751 -2.42259,0 -3.70011,-6.69601 -1.66566,-8.73046 1.1034,-1.1034 1.2377,-2.37251 0.56696,-5.35772 -0.51771,-2.30415 -0.49939,-5.601 0.0446,-8.02199 0.94411,-4.20195 5.41494,-9.88983 7.77367,-9.88983 0.9826,0 1.31291,-2.17425 1.31291,-8.64219 0,-14.92071 5.9311,-30.19367 15.40417,-39.66675 26.30567,-16.83476 21.50943,-11.88373 51.6101,-10.62603 5.69639,1.54717 7.13529,2.47192 11.82288,7.59827 4.91178,5.37152 12.66817,19.37654 14.58603,26.3367 0.37888,1.375 -1.76626,-2.45 -4.76697,-8.5 -3.63658,-7.33201 -7.23988,-12.91373 -10.80603,-16.73913 -5.02969,-5.39535 -5.84646,-5.86414 -13.63502,-7.82586 -19.68634,-5.03334 -40.03878,1.81296 -52.7792,17.4158 -3.74961,5.5459 -9.52217,21.93983 -9.29978,26.41115 0.13266,2.66715 0.14658,2.67332 0.53752,0.23804 0.54837,-3.41594 3.45246,-10 4.41079,-10 1.07563,0 1.64722,2.3968 2.39048,10.02368 0.59099,6.06447 0.46108,6.68777 -1.84558,8.85477 -2.8376,2.66578 -4.62939,2.10942 -4.62939,-1.43747 0,-1.34254 -0.4655,-2.44098 -1.03444,-2.44098 -0.66247,0 -0.79704,1.78968 -0.37423,4.97693 0.61101,4.606 0.48314,5.04463 -1.71556,5.88524 -3.46325,1.32407 -5.93526,4.46775 -6.90933,8.78664 -1.00303,4.4473 -0.44067,5.72871 0.9309,2.1212 1.12545,-2.96016 5.66305,-6.77001 8.06321,-6.77001 3.40315,0 6.30077,4.61156 7.05239,11.22387 l 0.71341,6.27613 0.13683,-5.27496 c 0.0989,-3.81394 1.07567,-7.13763 3.5265,-12 4.15316,-8.23976 5.83076,-9.81776 11.87826,-11.17303 5.78417,-1.29626 10.96775,-0.27601 17.22325,3.38996 5.85312,3.43016 9.28196,8.68551 10.72319,16.43537 l 1.14945,6.18081 6.06808,-0.66749 c 13.55425,-1.49097 33.60101,-6.21216 41.29485,-9.72528 11.91579,-5.44094 12.04702,-5.45104 13.8784,-1.06794 0.92942,2.22442 1.42876,5.72358 1.22981,8.61794 -0.30805,4.48128 -0.13405,4.92585 2.16503,5.53166 3.04313,0.80187 5.48337,0.47818 9.74538,-1.29268 2.85991,-1.18828 3.13783,-1.63134 2.33986,-3.73016 -0.49804,-1.30995 -1.62991,-7.25764 -2.51527,-13.21711 -1.0415,-7.01044 -2.36,-12.04932 -3.73509,-14.27425 -2.2281,-3.60515 -7.28036,-7.27824 -9.83488,-7.15015 -1.02468,0.0514 -1.1039,0.23503 -0.25,0.57959 2.6855,1.08363 1.10697,2.40151 -2.14561,1.79133 -2.94941,-0.55332 -3.92934,-0.15483 -7.4573,3.03247 -2.23393,2.01822 -4.33623,4.53449 -4.67178,5.59171 -0.69089,2.1768 -2.47531,2.61093 -2.47531,0.60221 0,-2.03877 6.98148,-9.71616 9.89692,-10.88344 l 2.60308,-1.04221 -4,-1.91261 c -2.97161,-1.42088 -5.38638,-1.78975 -9.39245,-1.43473 -6.30862,0.55908 -5.77344,-1.23975 0.62414,-2.09785 2.79701,-0.37516 5.38775,0.0924 8.7482,1.57892 2.62589,1.16156 5.89337,2.11192 7.26107,2.11192 4.06633,0 10.26559,4.15503 12.89601,8.64351 2.39606,4.08857 5.46757,19.51791 5.74444,28.85649 0.10316,3.4795 -0.18735,4.04331 -2.23254,4.3328 -2.21254,0.31319 -2.30704,0.60791 -1.60323,5 1.48225,9.25 0.36169,10.84659 -9.89452,14.09786 -3.38312,1.07246 -7.5682,2.50832 -9.30019,3.19078 -4.7155,1.85807 -7.84958,-0.55649 -9.26027,-7.13431 -1.57843,-7.35995 -1.45915,-7.80632 2.53146,-9.47371 1.99217,-0.83238 3.81062,-1.51342 4.04101,-1.51342 0.23038,0 1.26864,1.9125 2.30724,4.25 l 1.88836,4.25 0.0706,-5.05 c 0.0389,-2.7775 0.56454,-5.5439 1.16819,-6.14755 0.60364,-0.60364 -2.88386,0.3909 -7.75,2.2101 -8.88636,3.32215 -30.78947,7.82013 -43.8534,9.00564 l -7.00585,0.63575 0.21691,9.6175 c 0.26747,11.85961 -0.22203,12.64432 -7.33325,11.75583 -3.62698,-0.45316 -6.64591,-0.17406 -9.83736,0.90946 -5.54134,1.88134 -6.29291,1.88629 -9.64655,0.0636 z m 4.22883,-19.67428 c -2.07899,-4.20057 -2.94429,-5.3181 -2.57535,-3.32608 1.04535,5.64418 3.71853,11.63994 4.73598,10.62249 0.62711,-0.62711 -0.13713,-3.20795 -2.16063,-7.29641 z m -28.11688,-5.00508 c 0,-2.83427 -2.17241,-8.821 -3.20089,-8.821 -1.0906,0 -0.9942,2.75736 0.25347,7.25 1.13571,4.0895 2.94742,5.05516 2.94742,1.571 z m 67.36015,-1.31898 c 15.83936,-2.38742 31.47979,-6.2386 38.30246,-9.43132 l 6.33739,-2.96562 0,-4.86141 c 0,-2.67378 -0.5625,-5.60868 -1.25,-6.522 -1.1404,-1.51499 -2.01704,-1.31231 -9.99835,2.31165 -12.75036,5.78939 -35.0277,10.23798 -51.92343,10.36867 l -12.67177,0.098 -0.63906,4.24706 c -0.72074,4.78993 -0.24094,6.01859 2.83494,7.25963 3.40629,1.37436 18.25533,1.11602 29.00782,-0.50467 z M 423.19661,394.598 c 1.2236,-0.26057 3.09259,-0.60379 4.15331,-0.7627 1.83677,-0.27518 1.84527,-0.37227 0.17857,-2.03894 -0.96251,-0.9625 -2.20249,-1.75 -2.75551,-1.75 -1.95301,0 -6.85112,5.87711 -6.81161,8.17308 0.0389,2.26043 0.0825,2.2487 1.52528,-0.41037 0.81688,-1.50551 2.48636,-2.95049 3.70996,-3.21107 z m 7.13045,-18.44747 c 1.54234,-1.70427 1.58566,-2.52549 0.42869,-8.12697 -1.27262,-6.16139 -1.30077,-6.19893 -2.51562,-3.35416 -1.39723,3.27186 -1.75514,13.37696 -0.47379,13.37696 0.46476,0 1.61708,-0.85313 2.56072,-1.89583 z m 50.82152,24.20903 c -6.24441,-3.02426 -5.97874,-12.3132 0.35217,-12.3132 3.06207,0 8.42058,5.47296 8.42058,8.60042 0,4.01333 -4.35049,5.85454 -8.77275,3.71278 z m 6.77275,-3.89613 c 0,-2.02696 -4.84271,-6.41707 -7.07864,-6.41707 -4.13506,0 -2.99998,7.27804 1.39401,8.93824 2.59572,0.98075 5.68463,-0.3892 5.68463,-2.52117 z m 4,1.68827 c 0,-0.52995 2.5875,-1.48308 5.75,-2.11806 3.1625,-0.63499 6.82117,-1.4054 8.13038,-1.71203 3.26045,-0.76363 2.35347,1.88617 -0.94554,2.76245 -5.16312,1.37142 -12.93484,2.0129 -12.93484,1.06764 z m 18.58003,-6.01691 c -1.02246,-1.1298 -1.59705,-3.07059 -1.40499,-4.74564 0.29668,-2.5874 0.78599,-2.90703 5.62164,-3.67214 5.93997,-0.93984 8.20332,0.10239 8.20332,3.77748 0,5.38351 -8.77903,8.6635 -12.41997,4.6403 z m 9.21997,-1.28843 c 2.7779,-2.7779 -0.0459,-7.77415 -3.53727,-6.25853 -0.9695,0.42087 -2.43037,0.80872 -3.24637,0.86188 -1.62577,0.10591 -2.5047,2.88168 -1.63232,5.15506 0.67725,1.76488 6.71924,1.93832 8.41596,0.24159 z m -85.37246,-20.33453 c -0.36469,-1.94399 -0.47522,-7.68149 -0.24562,-12.75 0.36462,-8.04893 0.77343,-9.74942 3.22954,-13.43356 2.5526,-3.82887 5.9959,-6.20788 7.21729,-4.98649 0.26292,0.26291 -0.27517,4.19522 -1.19575,8.73846 -1.04572,5.16087 -1.44658,10.19348 -1.0683,13.41206 0.61952,5.27113 -0.53833,8.29315 -4.31881,11.27226 -2.38614,1.88033 -2.90339,1.55829 -3.61835,-2.25273 z m 6.75473,-11.67556 c -0.15317,-4.12651 0.3639,-9.67601 1.19158,-12.78856 0.8042,-3.02426 1.24711,-5.71372 0.98426,-5.97658 -0.26286,-0.26285 -2.00907,1.31154 -3.88047,3.49866 l -3.40255,3.97657 0.016,12.5 0.016,12.5 2.67286,-3.21009 c 2.43424,-2.92352 2.6487,-3.86089 2.40227,-10.5 z m 4.79294,11.46009 c -2.39371,-3.03356 -2.37019,-3.82876 0.61373,-20.75 2.59646,-14.724 2.76726,-14.95033 13.0981,-17.35609 20.67092,-4.81367 30.28993,-5.32983 35.29425,-1.89391 4.04819,2.77945 6.4471,7.31974 15.34626,29.04499 1.57126,3.83588 -0.3154,4.91195 -7.32755,4.17931 -8.1581,-0.85238 -31.42007,1.21862 -40,3.56117 -4.125,1.12624 -8.71928,2.92899 -10.20951,4.00612 -3.54436,2.56183 -4.23223,2.48194 -6.81528,-0.79159 z m 7.29452,-1.24664 c 7.1225,-4.20238 18.08413,-6.14513 37.98027,-6.73132 10.3125,-0.30383 18.75,-0.9237 18.75,-1.3775 0,-0.4538 -1.28376,-2.84937 -2.8528,-5.32349 -1.56905,-2.47412 -4.06702,-7.82757 -5.55106,-11.89655 -5.05345,-13.85567 -9.47877,-15.75097 -28.53303,-12.22026 -15.61828,2.89403 -20.57018,4.21433 -21.76444,5.80294 -0.93795,1.24767 -3.64749,14.80629 -4.86659,24.3526 -0.63935,5.00652 0.54919,9.39022 2.54594,9.39022 0.49921,0 2.43048,-0.89849 4.29171,-1.99664 z m 27.73027,-9.95755 c 0,-0.52481 2.08971,-2.54981 4.6438,-4.5 6.7287,-5.13774 14.51109,-4.44586 18.7955,1.67099 2.52628,3.60677 1.79072,4.37776 -1.32695,1.39084 -2.8816,-2.76075 -2.89068,-2.7622 -4.33969,-0.69345 -0.79863,1.1402 -1.75017,1.77497 -2.11454,1.4106 -0.36436,-0.36437 0.0729,-1.47506 0.97168,-2.46821 1.53059,-1.6913 1.46433,-1.87029 -1.04565,-2.82459 -3.30517,-1.25662 -7.97015,0.50226 -11.50846,4.33913 -2.49297,2.70333 -4.07569,3.35366 -4.07569,1.67469 z m 10.42857,-0.47438 c -1.05898,-0.77435 -1.66828,-1.66505 -1.354,-1.97934 0.31429,-0.31428 1.43787,0.0621 2.49686,0.83648 1.05898,0.77435 1.66828,1.66505 1.354,1.97934 -0.31429,0.31428 -1.43787,-0.0621 -2.49686,-0.83648 z"
         id="path2214" />
      <path
         inkscape:connector-curvature="0"
         sodipodi:nodetypes="cssssscccssssssssssssssssssssssssssssscccscccsscccsssssssssssssssssssssssssssscccsscccssccssccsscccccsscccsccsssssccsssccsssscccccsssccssccsssssccsssccsssccsssssccsssccssssssccsscccccccssssssssccssssssssccssssssssccsssc"
         style="fill:#4e4c4c"
         d="m 449.80938,442.54672 c -3.00934,-1.63555 -4.25256,-4.46375 -5.87364,-13.36193 -1.41158,-7.74823 -2.86705,-11.13843 -4.78191,-11.13843 -1.0144,0 -1.20852,-0.52274 -0.64986,-1.75 0.43814,-0.9625 0.97553,-4.45 1.19421,-7.75 0.76689,-11.57305 7.69499,-13.84119 17.42212,-5.70371 1.06396,0.89009 4.74778,1.55731 9.85616,1.78516 l 8.15719,0.36385 -0.66721,-3.72265 c -2.02748,-11.31204 -4.01816,-14.65745 -11.2405,-18.89002 -3.54054,-2.0749 -5.86075,-2.66596 -10.46515,-2.66596 -7.4149,0 -10.17083,1.86761 -14.61858,9.90657 -3.21469,5.81031 -3.27327,6.13957 -2.98136,16.75754 0.2455,8.92948 0.59464,10.99691 1.98891,11.77718 0.93013,0.52053 1.99164,2.5482 2.35892,4.50595 0.88263,4.70482 -0.9711,6.48922 -8.34559,8.03352 -7.82463,1.63856 -10.03675,0.062 -12.62824,-8.99992 -1.41005,-4.9307 -2.35167,-6.64751 -3.64597,-6.64751 -2.42259,0 -3.70011,-6.69601 -1.66566,-8.73046 1.1034,-1.1034 1.2377,-2.37251 0.56696,-5.35772 -0.51771,-2.30415 -0.49939,-5.601 0.0446,-8.02199 0.94411,-4.20195 5.41494,-9.88983 7.77367,-9.88983 0.9826,0 1.31291,-2.17425 1.31291,-8.64219 0,-14.92071 5.9311,-30.19367 15.40417,-39.66675 4.70717,-4.70716 4.86802,-5.04959 3.78301,-8.05362 -1.48163,-4.10214 -0.69923,-6.76295 2.6175,-8.90169 1.48243,-0.95591 4.15566,-2.67767 5.94051,-3.82613 5.19351,-3.34174 11.90561,-4.66934 19.55886,-3.86859 7.8554,0.8219 11.05057,3.07012 12.38551,8.71482 0.7866,3.3261 1.23252,3.65534 7.14158,5.27285 9.63016,2.63612 16.37245,10.17897 23.22867,25.98677 5.52391,12.736 4.8682,12.47109 -1.51301,-0.61126 -3.48418,-7.14302 -7.2175,-13.07105 -10.47981,-16.64053 -4.6826,-5.12351 -5.69019,-5.71274 -13.26323,-7.75616 -6.8963,-1.86082 -9.55183,-2.09884 -16.74971,-1.5013 -9.77183,0.81122 -18.04489,3.12629 -24.32577,6.80713 -12.84946,7.53029 -21.95318,26.2041 -22.07611,45.28316 -0.0498,7.73326 -0.17394,8.1664 -2.76638,9.65425 -3.61008,2.07191 -5.86642,5.69023 -6.48123,10.39347 l -0.50403,3.85577 2.06791,-3.73885 c 2.32979,-4.21236 6.09609,-7.09127 8.62641,-6.59394 2.92789,0.57547 5.61961,5.40877 6.39577,11.48433 l 0.74715,5.84846 0.13111,-5.35377 c 0.15259,-6.23026 5.83919,-18.25362 9.88801,-20.90651 6.04804,-3.96282 16.74759,-2.93412 24.36135,2.34222 4.6665,3.23388 8.40104,10.02958 9.48537,17.26038 l 0.65322,4.35604 5.62159,-0.66034 c 16.07262,-1.88795 32.89525,-5.8048 41.15599,-9.58243 11.80663,-5.39915 13.06584,-5.43804 14.75089,-0.45559 0.74403,2.2 1.20643,5.90673 1.02756,8.23717 -0.29497,3.8429 -0.0714,4.32566 2.40296,5.18822 2.7544,0.96019 6.65024,0.28703 10.61311,-1.83384 1.659,-0.88787 1.9292,-1.60312 1.26922,-3.35978 -0.46116,-1.22747 -1.3805,-6.28177 -2.04297,-11.23177 -1.56176,-11.66951 -2.63237,-14.94885 -6.21102,-19.02471 -2.86125,-3.25878 -9.32744,-6.32534 -10.61749,-5.03529 -0.35163,0.35163 0.35352,0.89896 1.567,1.2163 3.29507,0.86168 2.66535,2.3855 -0.70709,1.71102 -3.84506,-0.76902 -8.21291,1.85963 -11.23321,6.76033 -3.30256,5.35869 -5.23422,5.41618 -2.44265,0.0727 1.84625,-3.534 6.47822,-7.79057 9.46066,-8.69391 2.21376,-0.67051 2.08082,-0.84979 -2,-2.69717 -3.17013,-1.4351 -5.82375,-1.86349 -9.65657,-1.55889 -6.0895,0.48393 -5.66453,-1.11211 0.51688,-1.94121 2.79701,-0.37516 5.38775,0.0924 8.7482,1.57892 2.62589,1.16156 5.89337,2.11192 7.26107,2.11192 4.06633,0 10.26559,4.15503 12.89601,8.64351 2.39606,4.08857 5.46757,19.51791 5.74444,28.85649 0.10316,3.4795 -0.18735,4.04331 -2.23254,4.3328 -2.21254,0.31319 -2.30704,0.60791 -1.60323,5 1.48225,9.25 0.36169,10.84659 -9.89452,14.09786 -3.38312,1.07246 -7.5682,2.50832 -9.30019,3.19078 -4.7155,1.85807 -7.84958,-0.55649 -9.26027,-7.13431 -1.57843,-7.35995 -1.45915,-7.80632 2.53146,-9.47371 1.99217,-0.83238 3.81062,-1.51342 4.04101,-1.51342 0.23038,0 1.26864,1.9125 2.30724,4.25 l 1.88836,4.25 0.0706,-5.05 c 0.0389,-2.7775 0.56454,-5.5439 1.16819,-6.14755 0.60364,-0.60364 -2.88386,0.3909 -7.75,2.2101 -8.88636,3.32215 -30.78947,7.82013 -43.8534,9.00564 l -7.00585,0.63575 0.21691,9.6175 c 0.26747,11.85961 -0.22203,12.64432 -7.33325,11.75583 -3.62698,-0.45316 -6.64591,-0.17406 -9.83736,0.90946 -5.54134,1.88134 -6.29291,1.88629 -9.64655,0.0636 z m 4.22883,-19.67428 c -2.07899,-4.20057 -2.94429,-5.3181 -2.57535,-3.32608 1.04535,5.64418 3.71853,11.63994 4.73598,10.62249 0.62711,-0.62711 -0.13713,-3.20795 -2.16063,-7.29641 z m -28.11688,-5.00508 c 0,-2.83427 -2.17241,-8.821 -3.20089,-8.821 -1.0906,0 -0.9942,2.75736 0.25347,7.25 1.13571,4.0895 2.94742,5.05516 2.94742,1.571 z m 67.36015,-1.31898 c 15.83936,-2.38742 31.47979,-6.2386 38.30246,-9.43132 l 6.33739,-2.96562 0,-4.86141 c 0,-2.67378 -0.5625,-5.60868 -1.25,-6.522 -1.1404,-1.51499 -2.01704,-1.31231 -9.99835,2.31165 -12.75036,5.78939 -35.0277,10.23798 -51.92343,10.36867 l -12.67177,0.098 -0.63906,4.24706 c -0.72074,4.78993 -0.24094,6.01859 2.83494,7.25963 3.40629,1.37436 18.25533,1.11602 29.00782,-0.50467 z M 423.19661,394.598 c 1.2236,-0.26057 3.09259,-0.60379 4.15331,-0.7627 1.83677,-0.27518 1.84527,-0.37227 0.17857,-2.03894 -0.96251,-0.9625 -2.20249,-1.75 -2.75551,-1.75 -1.95301,0 -6.85112,5.87711 -6.81161,8.17308 0.0389,2.26043 0.0825,2.2487 1.52528,-0.41037 0.81688,-1.50551 2.48636,-2.95049 3.70996,-3.21107 z m 21.22472,-69.55164 c -0.37968,-1.72866 -0.91532,-2.91801 -1.19032,-2.64301 -0.275,0.275 -0.18936,1.91435 0.19032,3.64301 0.37968,1.72866 0.91532,2.91801 1.19032,2.64301 0.275,-0.275 0.18936,-1.91435 -0.19032,-3.64301 z m 28.46934,-3.14138 c 4.48214,-0.13291 8.28158,-0.49297 8.4432,-0.80013 0.16162,-0.30717 -0.11119,-2.05277 -0.60624,-3.87911 -1.27024,-4.68622 -6.07037,-6.55508 -15.30129,-5.95736 -7.10707,0.46021 -13.79348,2.85466 -18.44416,6.60499 -2.27458,1.83424 -2.35965,2.2323 -1.26086,5.89976 l 1.1783,3.93281 6.76086,-2.30397 c 14.72823,-5.47013 9.62347,-2.70819 19.23019,-3.49699 z m 6.39844,76.9387 c -3.08611,-3.42542 -3.60768,-5.78224 -1.86741,-8.43823 2.13747,-3.26219 4.88158,-2.9524 9.24168,1.04332 3.3603,3.0795 3.61818,3.67268 2.7171,6.25 -1.3659,3.90679 -7.02465,4.5488 -10.09137,1.14491 z m 8.63222,-2.38025 c 0,-2.02696 -4.84271,-6.41707 -7.07864,-6.41707 -4.13506,0 -2.99998,7.27804 1.39401,8.93824 2.59572,0.98075 5.68463,-0.3892 5.68463,-2.52117 z m 4,1.66239 c 0,-0.5937 0.3375,-1.08727 0.75,-1.09682 0.4125,-0.01 3.86896,-0.67809 7.68102,-1.48565 3.81206,-0.80755 7.11962,-1.27968 7.35014,-1.04917 1.12153,1.12154 -1.22336,2.38544 -5.51886,2.97467 -2.61927,0.35929 -5.9998,0.89697 -7.5123,1.19484 -1.63609,0.32221 -2.75,0.10434 -2.75,-0.53787 z m 18.58003,-5.99103 c -1.01981,-1.12688 -1.59655,-3.06934 -1.40499,-4.73201 0.29025,-2.51919 0.83414,-2.90526 5.09205,-3.61447 5.66481,-0.94355 8.73291,0.32787 8.73291,3.61892 0,5.45972 -8.74495,8.78842 -12.41997,4.72756 z m 9.21997,-1.28843 c 2.7779,-2.7779 -0.0459,-7.77415 -3.53727,-6.25853 -0.9695,0.42087 -2.43037,0.80872 -3.24637,0.86188 -1.62577,0.10591 -2.5047,2.88168 -1.63232,5.15506 0.67725,1.76488 6.71924,1.93832 8.41596,0.24159 z M 426.588,379.37969 c -0.36667,-0.36666 -0.66499,-3.62916 -0.66293,-7.25 0.003,-4.87198 0.53668,-7.45749 2.05389,-9.94611 1.12758,-1.84953 2.29004,-3.12288 2.58325,-2.82967 0.29322,0.29321 0.96426,4.00586 1.49121,8.25033 0.9039,7.28066 0.83255,7.85086 -1.26131,10.07967 -2.3301,2.48027 -3.10647,2.79343 -4.20411,1.69578 z m 3.73906,-3.22916 c 1.54234,-1.70427 1.58566,-2.52549 0.42869,-8.12697 -1.27262,-6.16139 -1.30077,-6.19893 -2.51562,-3.35416 -1.39723,3.27186 -1.75514,13.37696 -0.47379,13.37696 0.46476,0 1.61708,-0.85313 2.56072,-1.89583 z m 4.02297,-6.73105 c -0.38198,-2.54722 -0.46146,-8.36682 -0.17662,-12.93244 0.43989,-7.0509 0.94938,-8.91192 3.38291,-12.35668 2.65673,-3.76073 5.84683,-5.93551 7.00609,-4.77625 0.26971,0.2697 -0.0598,2.44829 -0.73213,4.84131 -0.67238,2.39302 -1.29313,8.46448 -1.37943,13.49214 -0.16459,9.58792 -1.44328,13.17191 -5.46792,15.32583 -1.75478,0.93913 -2.00418,0.5987 -2.6329,-3.59391 z m 6.74178,-10.10114 c -0.1363,-4.41228 0.38794,-10.14896 1.21273,-13.27063 0.79905,-3.02426 1.23775,-5.71372 0.9749,-5.97658 -0.26286,-0.26285 -2.00907,1.31154 -3.88047,3.49866 l -3.40255,3.97657 -0.0375,12.47727 -0.0376,12.47728 2.70529,-2.70529 c 2.53014,-2.53014 2.68974,-3.20848 2.46519,-10.47728 z m 5.25723,11.64815 c -2.7204,-3.00602 -2.43795,-7.21264 2.10971,-31.42013 0.79033,-4.20699 2.90923,-5.34242 14.96258,-8.01783 16.65483,-3.69677 25.09165,-4.24431 29.94098,-1.94315 4.38438,2.08052 6.52036,5.2116 10.20617,14.96098 1.45552,3.85 3.70535,8.83954 4.99962,11.08786 4.24026,7.36588 2.92915,8.82771 -7.0186,7.82545 -8.44344,-0.8507 -30.79619,1.20431 -39.19148,3.60309 -3.81518,1.09011 -8.15597,2.88237 -9.6462,3.98281 -3.39141,2.50433 -4.03202,2.49637 -6.36278,-0.0791 z m 6.84202,-1.91677 c 7.1225,-4.20238 18.08413,-6.14513 37.98027,-6.73132 10.3125,-0.30383 18.75,-0.9237 18.75,-1.3775 0,-0.4538 -1.28376,-2.84937 -2.8528,-5.32349 -1.56905,-2.47412 -4.06702,-7.82757 -5.55106,-11.89655 -5.05345,-13.85567 -9.47877,-15.75097 -28.53303,-12.22026 -15.61828,2.89403 -20.57018,4.21433 -21.76444,5.80294 -0.93795,1.24767 -3.64749,14.80629 -4.86659,24.3526 -0.63935,5.00652 0.54919,9.39022 2.54594,9.39022 0.49921,0 2.43048,-0.89849 4.29171,-1.99664 z m 27.73027,-9.95755 c 0,-0.52481 2.08971,-2.54981 4.6438,-4.5 6.7287,-5.13774 14.51109,-4.44586 18.7955,1.67099 2.52628,3.60677 1.79072,4.37776 -1.32695,1.39084 -2.8816,-2.76075 -2.89068,-2.7622 -4.33969,-0.69345 -0.79863,1.1402 -1.75017,1.77497 -2.11454,1.4106 -0.36436,-0.36437 0.0729,-1.47506 0.97168,-2.46821 1.53059,-1.6913 1.46433,-1.87029 -1.04565,-2.82459 -3.30517,-1.25662 -7.97015,0.50226 -11.50846,4.33913 -2.49297,2.70333 -4.07569,3.35366 -4.07569,1.67469 z m 10.42857,-0.47438 c -1.05898,-0.77435 -1.66828,-1.66505 -1.354,-1.97934 0.31429,-0.31428 1.43787,0.0621 2.49686,0.83648 1.05898,0.77435 1.66828,1.66505 1.354,1.97934 -0.31429,0.31428 -1.43787,-0.0621 -2.49686,-0.83648 z"
         id="path2212" />
      <path
         inkscape:connector-curvature="0"
         sodipodi:nodetypes="csssssssssssssssssssssssssssssssssssssscccscccsscccssssssssssssssssssssscccccssssssccssccsscccccsscccsccssccsscccccssccssssssccsssccsssccsssssccssssccsssccsssssccsssccssssccssssssccsssssccsssssssccsssssssssccssscccssssccssccssc"
         style="fill:#605a1e"
         d="m 449.7899,442.53486 c -3.10233,-1.68369 -3.41941,-2.3983 -5.47075,-12.32945 -1.8017,-8.72261 -3.96199,-13.54644 -5.61035,-12.5277 -0.78715,0.48649 -0.86796,0.11915 -0.26778,-1.21731 0.47276,-1.05272 1.03848,-4.61404 1.25716,-7.91404 0.76686,-11.57259 7.69477,-13.8411 17.42125,-5.7045 1.0808,0.90414 4.84531,1.56188 10.35577,1.80936 7.92729,0.35603 8.59745,0.24146 7.9437,-1.35801 -0.39269,-0.96077 -1.29423,-4.16534 -2.00342,-7.12127 -1.60494,-6.6895 -3.88577,-9.81665 -9.8772,-13.54225 -3.82295,-2.37718 -5.80059,-2.91666 -10.69203,-2.91666 -7.50917,0 -10.24148,1.84084 -14.70404,9.90657 -3.20881,5.79968 -3.27282,6.15657 -2.98522,16.64452 0.23591,8.60315 0.62384,10.97074 1.96621,12 0.91977,0.70523 1.96843,2.93099 2.33036,4.94614 0.77016,4.28813 -0.71747,5.52216 -9.01681,7.47969 -7.54257,1.77903 -9.76181,-0.22699 -12.56235,-11.35539 -1.19332,-4.74183 -3.80904,-7.97271 -4.05352,-5.00682 -0.0553,0.67024 -0.51066,-0.52876 -1.01202,-2.66444 -0.63674,-2.71236 -0.55866,-4.30828 0.25898,-5.29347 0.68596,-0.82653 1.09236,-4.18683 0.98168,-8.11695 -0.21249,-7.54513 1.91896,-12.35962 6.36951,-14.38743 2.37814,-1.08355 2.5023,-1.55333 2.5023,-9.46765 0,-6.48508 0.65669,-10.37759 2.96815,-17.59348 3.37159,-10.52541 6.79275,-16.33978 13.30964,-22.6201 4.40072,-4.24099 4.49065,-4.4493 3.23793,-7.5 -1.79517,-4.3717 -0.62194,-6.63242 5.70243,-10.98818 7.15541,-4.92813 13.40984,-6.51642 22.0859,-5.60865 7.8554,0.8219 11.05057,3.07012 12.38551,8.71482 0.7866,3.3261 1.23252,3.65534 7.14158,5.27285 6.77842,1.8555 10.39293,4.6232 15.32707,11.73629 3.24093,4.67215 9.19428,16.21586 8.64576,16.76438 -0.18908,0.18907 -2.08065,-3.03024 -4.2035,-7.15404 -2.12284,-4.1238 -6.05152,-9.89599 -8.73039,-12.8271 -4.46074,-4.88077 -5.56042,-5.5154 -13.06632,-7.54071 -6.8963,-1.86082 -9.55183,-2.09884 -16.74971,-1.5013 -26.29259,2.18272 -39.89646,14.72662 -45.54226,41.99378 -1.0208,4.93011 -1.42679,9.91868 -1.05798,13 0.56921,4.75565 0.45476,5.08084 -2.34189,6.65425 -3.81564,2.1467 -6.07956,5.68736 -6.70736,10.48998 l -0.50403,3.85577 2.06791,-3.73885 c 2.32979,-4.21236 6.09609,-7.09127 8.62641,-6.59394 2.92789,0.57547 5.61961,5.40877 6.39577,11.48433 l 0.74715,5.84846 0.13111,-5.35377 c 0.15259,-6.23026 5.83919,-18.25362 9.88801,-20.90651 6.01969,-3.94425 16.74586,-2.93532 24.27667,2.28353 4.73168,3.27906 7.1822,7.53446 9.10501,15.81111 l 1.35543,5.83437 5.503,-0.64552 c 15.67564,-1.8388 32.82902,-5.81182 41.003,-9.49701 12.05356,-5.43427 12.64415,-5.55232 14.12897,-2.82426 0.68792,1.26393 1.3634,5.21357 1.50107,8.77697 0.23313,6.03453 0.42793,6.52642 2.84022,7.17157 2.66713,0.7133 6.66262,-0.0809 10.35867,-2.05893 1.659,-0.88787 1.9292,-1.60312 1.26922,-3.35978 -0.46116,-1.22747 -1.37139,-6.28177 -2.02271,-11.23177 -0.65133,-4.95 -1.86396,-10.89153 -2.69475,-13.2034 -1.91226,-5.32138 -7.20054,-10.02516 -12.10931,-10.77091 -2.07426,-0.31512 -5.12138,-1.10885 -6.77138,-1.76384 -1.65,-0.65499 -5.79058,-1.20686 -9.2013,-1.22637 -6.68998,-0.0383 -7.02659,-1.35991 -0.56701,-2.22632 2.79701,-0.37516 5.38775,0.0924 8.7482,1.57892 2.62589,1.16156 5.86449,2.11192 7.19689,2.11192 5.92801,0 13.26213,6.84964 15.07993,14.08377 0.61034,2.42893 1.85888,9.31241 2.77452,15.29663 1.72896,11.29966 1.49291,12.5599 -2.36082,12.60429 -1.03298,0.0119 -1.18441,1.40964 -0.67882,6.26531 0.47899,4.60017 0.28502,6.74004 -0.73478,8.10638 -1.84325,2.46961 -20.55008,8.65067 -23.23545,7.6774 -2.7073,-0.98121 -4.3107,-4.51407 -4.70001,-10.35577 -0.31794,-4.77075 -0.28138,-4.83595 3.44043,-6.13621 l 3.76178,-1.31422 1.90396,4.13621 1.90396,4.13621 0.0843,-5.05 c 0.0463,-2.7775 0.64676,-5.65623 1.33426,-6.39718 1.02841,-1.10836 0.89546,-1.2076 -0.75,-0.55978 -15.64389,6.15895 -32.18111,10.14536 -46,11.08861 -13.2885,0.90704 -12.21948,-0.0634 -11.93415,10.83388 0.31549,12.0491 -0.46304,13.40261 -6.86627,11.93735 -3.32224,-0.76024 -5.29992,-0.7205 -7.37013,0.14809 -5.08836,2.1349 -9.67673,2.49853 -12.46088,0.98753 z m 6.77029,-13.79125 c -0.31787,-1.26651 -1.69073,-4.75401 -3.0508,-7.75 -3.10434,-6.83831 -3.49281,-3.44043 -0.51621,4.51524 2.0202,5.39946 4.72623,7.85343 3.56701,3.23476 z m -30.63886,-10.87625 c 0,-2.83427 -2.17241,-8.821 -3.20089,-8.821 -1.14414,0 -0.98561,4.16657 0.29872,7.85078 1.26316,3.62351 2.90217,4.17145 2.90217,0.97022 z m 81.5,-3.62352 c 7.7,-1.61328 17.7125,-4.3754 22.25,-6.13805 l 8.25,-3.2048 -0.0153,-5.67732 c -0.021,-7.7963 -0.6518,-8.56763 -5.55539,-6.7934 -2.16111,0.78195 -6.47646,2.60497 -9.58965,4.05117 -10.17372,4.72608 -42.55907,10.24423 -54.54617,9.29414 l -6.20652,-0.49193 -0.64638,4.31035 c -1.16176,7.74723 0.81803,8.60316 18.55942,8.02388 9.68751,-0.31632 17.45369,-1.26917 27.5,-3.37404 z m -90.5,-3.2565 c 0,-1.13246 -0.43035,-1.79305 -0.95633,-1.46797 -0.52598,0.32507 -0.70283,1.25163 -0.39301,2.05902 0.79323,2.06711 1.34934,1.82352 1.34934,-0.59105 z m 4.42976,-14.63422 c 1.47497,-1.26872 3.78167,-2.30676 5.126,-2.30676 2.78931,0 3.14435,-1.17407 0.91463,-3.02458 -3.80494,-3.15782 -10.55114,4.35278 -10.35165,11.52458 l 0.11126,4 0.75899,-3.94324 c 0.4563,-2.37061 1.82852,-4.8632 3.44077,-6.25 z m 23.26945,-70.93518 c -0.61248,-1.99563 -1.2893,-3.10132 -1.50404,-2.45709 -0.56387,1.69161 0.68544,6.08551 1.73028,6.08551 0.48804,0 0.38623,-1.63279 -0.22624,-3.62842 z m 11.30079,-0.62044 c 3.45805,-1.23541 9.30545,-2.15952 15.75,-2.4891 5.6375,-0.28831 10.25,-0.84806 10.25,-1.2439 0,-2.79768 -2.67314,-7.31487 -5.05876,-8.54852 -6.26334,-3.23891 -20.44179,-1.16674 -28.03851,4.09779 -4.05916,2.813 -4.59586,4.47932 -2.88883,8.96915 0.76515,2.01249 1.43983,2.48431 2.75,1.92312 0.95485,-0.40899 4.2111,-1.62784 7.2361,-2.70854 z m 23.36778,74.04618 c -3.08611,-3.42542 -3.60768,-5.78224 -1.86741,-8.43823 2.13747,-3.26219 4.88158,-2.9524 9.24168,1.04332 3.3603,3.0795 3.61818,3.67268 2.7171,6.25 -1.3659,3.90679 -7.02465,4.5488 -10.09137,1.14491 z m 7.43222,0.003 c 1.93754,-1.93754 1.38982,-4.50552 -1.43486,-6.72742 -3.65958,-2.87862 -6.17884,-2.66304 -6.99751,0.5988 -0.53627,2.13666 -0.12859,3.13748 2.03671,5 3.03335,2.60918 4.63285,2.89143 6.39566,1.12862 z m 5.2,-0.72054 c 0,-0.5937 0.3375,-1.08727 0.75,-1.09682 0.4125,-0.01 3.86896,-0.67809 7.68102,-1.48565 3.81206,-0.80755 7.11962,-1.27968 7.35014,-1.04917 1.12153,1.12154 -1.22336,2.38544 -5.51886,2.97467 -2.61927,0.35929 -5.9998,0.89697 -7.5123,1.19484 -1.63609,0.32221 -2.75,0.10434 -2.75,-0.53787 z m 18.58003,-5.99103 c -1.0233,-1.13073 -1.5972,-3.071 -1.40499,-4.75 0.25595,-2.23564 0.85588,-2.86277 2.82496,-2.95305 1.375,-0.063 3.3162,-0.4597 4.31377,-0.88146 2.77588,-1.17361 6.68623,1.04896 6.68623,3.80033 0,5.50921 -8.72298,8.86931 -12.41997,4.78418 z m 9.16997,-1.33326 c 2.98544,-2.38849 -0.009,-7.72394 -3.48727,-6.21336 -0.9695,0.42106 -2.55023,0.66812 -3.51273,0.54902 -0.9625,-0.1191 -1.80332,0.37424 -1.86848,1.09631 -0.5326,5.90155 4.17245,8.32506 8.86848,4.56803 z M 426.588,379.37969 c -0.36667,-0.36666 -0.66499,-3.62916 -0.66293,-7.25 0.003,-4.87198 0.53668,-7.45749 2.05389,-9.94611 1.12758,-1.84953 2.29004,-3.12288 2.58325,-2.82967 0.29322,0.29321 0.96426,4.00586 1.49121,8.25033 0.9039,7.28066 0.83255,7.85086 -1.26131,10.07967 -2.3301,2.48027 -3.10647,2.79343 -4.20411,1.69578 z m 3.77817,-3.27238 c 1.61743,-1.78723 1.64198,-2.4332 0.31356,-8.25 -1.4065,-6.15878 -1.46919,-6.24307 -2.59983,-3.49585 -1.33434,3.24218 -1.57361,13.6849 -0.31356,13.6849 0.46476,0 1.63468,-0.87257 2.59983,-1.93905 z m 90.55516,3.38939 c 0,-3.48253 7.61041,-11.46071 11.08575,-11.62147 4.58318,-0.21201 6.91425,0.1744 6.91425,1.14613 0,0.54356 -1.28919,0.71716 -2.91342,0.39232 -3.84506,-0.76902 -8.21291,1.85963 -11.23321,6.76033 -2.0837,3.38099 -3.85337,4.90695 -3.85337,3.32269 z m -86.5713,-10.07722 c -0.38198,-2.54722 -0.46146,-8.36682 -0.17662,-12.93244 0.43989,-7.0509 0.94938,-8.91192 3.38291,-12.35668 2.65673,-3.76073 5.84683,-5.93551 7.00609,-4.77625 0.26971,0.2697 -0.0598,2.44829 -0.73213,4.84131 -0.67238,2.39302 -1.29313,8.46448 -1.37943,13.49214 -0.16459,9.58792 -1.44328,13.17191 -5.46792,15.32583 -1.75478,0.93913 -2.00418,0.5987 -2.6329,-3.59391 z m 5.21683,-0.62995 c 1.75195,-2.64823 2.05463,-4.25211 1.64996,-8.74317 -0.46004,-5.10572 0.65092,-14.16222 2.23874,-18.25 1.19542,-3.07759 -1.26228,-1.88118 -4.47915,2.18045 -2.85105,3.59975 -3.15563,4.71022 -3.62,13.19799 -0.49554,9.05777 0.0505,14.87842 1.39438,14.86473 0.3688,-0.004 1.63603,-1.46626 2.81607,-3.25 z m 6.78218,2.17696 c -2.7204,-3.00602 -2.43795,-7.21264 2.10971,-31.42013 0.79033,-4.20699 2.90923,-5.34242 14.96258,-8.01783 16.65483,-3.69677 25.09165,-4.24431 29.94098,-1.94315 4.38438,2.08052 6.52036,5.2116 10.20617,14.96098 1.45552,3.85 3.70535,8.83954 4.99962,11.08786 4.33056,7.52272 3.12353,8.70467 -7.93656,7.77167 -15.1894,-1.28134 -41.5244,2.91716 -47.91972,7.63968 -3.39141,2.50433 -4.03202,2.49637 -6.36278,-0.0791 z m 7.02907,-1.89342 c 6.36137,-3.93154 18.83487,-6.16222 37.04322,-6.62454 9.35,-0.23741 17.5625,-0.42502 18.25,-0.41691 1.86642,0.022 1.52664,-1.60724 -1.20059,-5.7567 -1.34782,-2.05071 -3.84864,-7.40551 -5.55737,-11.89957 -5.55057,-14.5983 -9.49746,-16.49522 -27.6864,-13.30638 -15.32384,2.68654 -22.42648,4.55771 -23.43424,6.17366 -0.44717,0.71705 -1.09228,3.32873 -1.43358,5.80373 -0.3413,2.475 -0.99371,6.075 -1.4498,8 -1.67152,7.05489 -2.17805,15.77641 -1.0398,17.90326 1.39232,2.60157 2.46594,2.62193 6.50856,0.12345 z m 27.54322,-9.90802 c 0,-1.08775 5.91386,-5.66669 9.32757,-7.22208 1.44275,-0.65736 4.03114,-0.8643 6.05699,-0.48424 3.53946,0.664 9.64337,5.70475 9.58384,7.91455 -0.0174,0.64519 -1.19932,-0.15571 -2.62653,-1.77978 l -2.59492,-2.95286 -1.87348,2.31365 c -1.186,1.46465 -1.87347,1.79596 -1.87347,0.90285 0,-0.77593 0.49831,-1.90909 1.10736,-2.51814 0.80981,-0.80981 0.51609,-1.4238 -1.09314,-2.28503 -3.01517,-1.61367 -6.05495,-0.65097 -11.00619,3.48568 -4.46552,3.73084 -5.00803,4.01524 -5.00803,2.6254 z m 10,-1.11869 c -1.29269,-0.8354 -1.26629,-0.97149 0.19098,-0.98469 0.93004,-0.008 1.9691,0.43469 2.30902,0.98469 0.78218,1.2656 -0.54163,1.2656 -2.5,0 z m 24.16244,-0.54283 c -1.67549,-3.67729 -1.35583,-4.46179 0.45586,-1.11876 0.84602,1.56112 1.3511,3.02552 1.1224,3.25422 -0.2287,0.2287 -0.93892,-0.73225 -1.57826,-2.13546 z"
         id="path2210" />
      <path
         inkscape:connector-curvature="0"
         sodipodi:nodetypes="cssssssssssssssssssssssssscccsscccsssssssssssssssssssscccscccsssssssscccssssssssscccccssssssccssccsscccccsscccsccssccssccssssssccsssccsssccsssssccssssssssccssscccsssccssssccssssccsssssssssssssssscccsccssccssccccssscccssssccssccssccsssccc"
         style="fill:#2d2c2c"
         d="m 449.7899,442.53486 c -3.10233,-1.68369 -3.41941,-2.3983 -5.47075,-12.32945 -1.68105,-8.13852 -3.95524,-13.55062 -5.33555,-12.69754 -0.4689,0.2898 -0.37415,2.41164 0.21055,4.7152 0.9834,3.87429 0.88721,4.3058 -1.28308,5.75579 -3.42639,2.2892 -12.08794,4.08531 -14.21397,2.94749 -2.24955,-1.20392 -4.17132,-5.02976 -5.8227,-11.59179 -1.19332,-4.74183 -3.80904,-7.97271 -4.05352,-5.00682 -0.0553,0.67024 -0.51066,-0.52876 -1.01202,-2.66444 -0.63674,-2.71236 -0.55866,-4.30828 0.25898,-5.29347 0.68596,-0.82653 1.09236,-4.18683 0.98168,-8.11695 -0.21249,-7.54513 1.91896,-12.35962 6.36951,-14.38743 2.37814,-1.08355 2.5023,-1.55333 2.5023,-9.46765 0,-6.48508 0.65669,-10.37759 2.96815,-17.59348 3.37159,-10.52541 6.79275,-16.33978 13.30964,-22.6201 4.40072,-4.24099 4.49065,-4.4493 3.23793,-7.5 -1.79517,-4.3717 -0.62194,-6.63242 5.70243,-10.98818 7.15541,-4.92813 13.40984,-6.51642 22.0859,-5.60865 7.8554,0.8219 11.05057,3.07012 12.38551,8.71482 0.79021,3.34136 1.21606,3.65038 7.32471,5.31533 5.44915,1.4852 7.20495,2.55209 10.98573,6.67535 4.06182,4.42975 9.8267,13.25347 8.65901,13.25347 -0.25793,0 -1.60081,-1.9125 -2.98417,-4.25 -7.3372,-12.39782 -18.25063,-17.45422 -35.36523,-16.38537 -14.54296,0.90824 -24.78651,5.10631 -32.40275,13.27948 -5.77545,6.19778 -7.66592,9.53107 -11.0457,19.47584 -2.61977,7.70848 -3.20331,11.01637 -3.27451,18.56233 l -0.0866,9.18229 -3.09281,1.47658 c -1.725,0.82355 -3.82571,3.02105 -4.75,4.96884 -1.82029,3.83598 -2.27465,10.18966 -0.65719,9.19001 0.59349,-0.3668 1.04675,0.93037 1.115,3.19098 l 0.115,3.80902 0.75899,-3.94324 c 0.87451,-4.54341 4.89256,-8.55676 8.56677,-8.55676 2.78931,0 3.14435,-1.17407 0.91463,-3.02458 -2.15733,-1.79041 -5.94297,0.11122 -8.46895,4.25419 -1.09668,1.79871 -1.99565,2.58302 -1.9977,1.7429 -0.006,-2.49646 2.69874,-5.60663 6.10188,-7.01626 2.98827,-1.23778 3.32694,-1.15469 5.47575,1.34345 1.34569,1.56447 2.54935,4.62983 2.9181,7.43156 0.99702,7.57528 1.26068,8.10569 1.38453,2.7852 0.13691,-5.88198 4.63664,-15.72496 9.17747,-20.07535 4.1618,-3.98725 13.72488,-4.69113 20.32514,-1.496 5.71448,2.76633 11.23411,8.85696 12.4593,13.74822 1.98813,7.93704 2.16819,9.30667 1.22346,9.30667 -0.5328,0 -1.51589,-2.78119 -2.18465,-6.18042 -1.49813,-7.61485 -5.62375,-12.60065 -13.08142,-15.80885 -6.07274,-2.61242 -12.51826,-2.34074 -16.66754,0.70255 -1.44967,1.06326 -4.10627,4.60025 -5.90355,7.85996 -3.18592,5.77826 -3.26108,6.19408 -3,16.59601 0.14728,5.86808 0.61279,11.01308 1.03446,11.43333 1.61416,1.60874 3.04197,-1.76055 3.67563,-8.67361 0.53478,-5.8344 1.09374,-7.53973 2.96904,-9.05826 3.31785,-2.68663 6.21055,-2.32639 11.8629,1.47737 l 4.97522,3.34807 12.37527,-0.25465 c 16.66684,-0.34295 47.6631,-6.53075 52.39778,-10.46018 0.65735,-0.54555 3.68044,-1.84697 6.71798,-2.89203 l 5.52279,-1.90012 1.14632,2.15541 c 0.63048,1.18548 1.32519,5.08042 1.54379,8.65542 0.39219,6.41351 0.44191,6.51156 3.73644,7.36881 2.56786,0.66817 4.25938,0.42304 7.32456,-1.06145 2.19209,-1.06164 3.85059,-2.53267 3.68556,-3.26894 -0.16502,-0.73628 -0.99274,-6.32125 -1.83937,-12.41105 -0.84663,-6.0898 -2.22675,-12.43474 -3.06693,-14.09987 -3.23193,-6.40527 -8.74925,-10.5275 -14.09035,-10.5275 -1.59281,0 -4.3129,-0.70683 -6.04464,-1.57074 -3.58458,-1.78822 -8.49449,-2.23772 -12.15866,-1.11312 l -2.5,0.76729 2.5,-1.50628 c 3.4146,-2.05734 7.66931,-1.91016 12.8592,0.44481 2.39757,1.08792 5.45741,1.97804 6.79966,1.97804 5.94562,0 13.27748,6.83939 15.09785,14.08377 0.61034,2.42893 1.85888,9.31241 2.77452,15.29663 1.72896,11.29966 1.49291,12.5599 -2.36082,12.60429 -1.03298,0.0119 -1.18441,1.40964 -0.67882,6.26531 0.47899,4.60017 0.28502,6.74004 -0.73478,8.10638 -1.84325,2.46961 -20.55008,8.65067 -23.23545,7.6774 -2.7073,-0.98121 -4.3107,-4.51407 -4.70001,-10.35577 -0.31794,-4.77075 -0.28138,-4.83595 3.44043,-6.13621 l 3.76178,-1.31422 1.90396,4.13621 1.90396,4.13621 0.0843,-5.05 c 0.0463,-2.7775 0.64676,-5.65623 1.33426,-6.39718 1.02841,-1.10836 0.89546,-1.2076 -0.75,-0.55978 -15.64389,6.15895 -32.18111,10.14536 -46,11.08861 -13.2885,0.90704 -12.21948,-0.0634 -11.93415,10.83388 0.31549,12.0491 -0.46304,13.40261 -6.86627,11.93735 -3.32224,-0.76024 -5.29992,-0.7205 -7.37013,0.14809 -5.08836,2.1349 -9.67673,2.49853 -12.46088,0.98753 z m 6.77029,-13.79125 c -0.31787,-1.26651 -1.69073,-4.75401 -3.0508,-7.75 -3.10434,-6.83831 -3.49281,-3.44043 -0.51621,4.51524 2.0202,5.39946 4.72623,7.85343 3.56701,3.23476 z m -30.63886,-10.87625 c 0,-2.83427 -2.17241,-8.821 -3.20089,-8.821 -1.14414,0 -0.98561,4.16657 0.29872,7.85078 1.26316,3.62351 2.90217,4.17145 2.90217,0.97022 z m 81.5,-3.62352 c 7.7,-1.61328 17.7125,-4.3754 22.25,-6.13805 l 8.25,-3.2048 -0.0153,-5.67732 c -0.021,-7.7963 -0.6518,-8.56763 -5.55539,-6.7934 -2.16111,0.78195 -6.47646,2.60497 -9.58965,4.05117 -10.17372,4.72608 -42.55907,10.24423 -54.54617,9.29414 l -6.20652,-0.49193 -0.64638,4.31035 c -1.16176,7.74723 0.81803,8.60316 18.55942,8.02388 9.68751,-0.31632 17.45369,-1.26917 27.5,-3.37404 z m -90.5,-3.2565 c 0,-1.13246 -0.43035,-1.79305 -0.95633,-1.46797 -0.52598,0.32507 -0.70283,1.25163 -0.39301,2.05902 0.79323,2.06711 1.34934,1.82352 1.34934,-0.59105 z m 27.69921,-85.5694 c -0.61248,-1.99563 -1.2893,-3.10132 -1.50404,-2.45709 -0.56387,1.69161 0.68544,6.08551 1.73028,6.08551 0.48804,0 0.38623,-1.63279 -0.22624,-3.62842 z m 11.30079,-0.62044 c 3.45805,-1.23541 9.30545,-2.15952 15.75,-2.4891 5.6375,-0.28831 10.25,-0.84806 10.25,-1.2439 0,-2.79768 -2.67314,-7.31487 -5.05876,-8.54852 -6.26334,-3.23891 -20.44179,-1.16674 -28.03851,4.09779 -4.05916,2.813 -4.59586,4.47932 -2.88883,8.96915 0.76515,2.01249 1.43983,2.48431 2.75,1.92312 0.95485,-0.40899 4.2111,-1.62784 7.2361,-2.70854 z m 23.63486,74.17628 c -5.09013,-4.0039 -2.42902,-12.26641 3.35899,-10.42937 2.30133,0.73041 7.00615,6.1075 7.00615,8.00725 0,2.09813 -2.89878,4.4947 -5.43657,4.4947 -1.26154,0 -3.4794,-0.93266 -4.92857,-2.07258 z m 7.16514,-0.12742 c 1.93754,-1.93754 1.38982,-4.50552 -1.43486,-6.72742 -3.65958,-2.87862 -6.17884,-2.66304 -6.99751,0.5988 -0.53627,2.13666 -0.12859,3.13748 2.03671,5 3.03335,2.60918 4.63285,2.89143 6.39566,1.12862 z m 5.2,-0.63877 c 0,-0.53546 2.3625,-1.2967 5.25,-1.69165 2.8875,-0.39495 6.32491,-1.12477 7.63869,-1.62181 1.31378,-0.49705 2.65074,-0.64167 2.97104,-0.32137 1.03364,1.03364 -2.13578,2.32531 -7.31191,2.9799 -2.7763,0.3511 -5.83532,0.86114 -6.79782,1.13342 -0.9625,0.27228 -1.75,0.057 -1.75,-0.47849 z m 18.93942,-6.22181 c -2.54784,-2.54784 -2.29523,-7.25988 0.4168,-7.77465 1.02092,-0.19378 2.37092,0.16653 3,0.8007 0.86166,0.86862 0.68723,0.97914 -0.70714,0.44806 -3.77265,-1.43689 -4.23531,4.66718 -0.50506,6.66355 1.3416,0.718 2.69088,0.6319 4.62509,-0.29515 3.60946,-1.72997 3.73238,-5.71619 0.23089,-7.48765 -1.93066,-0.97676 -2.08649,-1.26815 -0.68426,-1.27954 5.6257,-0.0457 7.32299,4.43744 3.22971,8.53072 -2.9951,2.9951 -6.84692,3.15307 -9.60603,0.39396 z m -84.29994,-12.63327 c -1.2088,-1.2088 -0.63817,-12.37352 0.80949,-15.83827 1.53624,-3.67674 3.54363,-4.64485 3.56204,-1.71788 0.006,0.9625 0.22619,3.55 0.4892,5.75 0.43583,3.64553 0.36046,3.55691 -0.85046,-1 l -1.32867,-5 -1.16054,2.8151 c -1.3358,3.24022 -1.57662,13.6849 -0.31553,13.6849 1.04922,0 3.70567,-2.98775 4.44556,-5 0.38166,-1.038 0.57585,-0.85473 0.63048,0.59501 0.10189,2.70382 -4.81684,7.17587 -6.28157,5.71114 z m 94.36052,-0.22841 c 0,-0.50724 1.48223,-2.86974 3.29384,-5.25 3.35012,-4.40168 8.40224,-6.98148 11.88733,-6.07011 2.69566,0.70493 2.20765,2.03935 -0.55284,1.51165 -3.46247,-0.66189 -8.25925,2.21588 -11.26548,6.75861 -2.68792,4.06172 -3.36285,4.67383 -3.36285,3.04985 z m -85.884,-8.32774 c 0.0873,-1.69317 0.22918,-1.81691 0.57333,-0.5 0.69049,2.64227 1.60035,2.15629 4.58723,-2.45017 1.49789,-2.31009 2.72344,-3.76455 2.72344,-3.23213 0,0.53242 -1.14122,2.64749 -2.53605,4.70016 -2.85914,4.20761 -5.52658,4.94686 -5.34795,1.48214 z m 11.95258,0.58548 c -2.59318,-1.81633 -2.72863,-7.14606 -0.50411,-19.83548 2.67335,-15.2497 3.05164,-16.2182 6.82064,-17.46208 4.9809,-1.64385 28.52689,-6.03792 32.35467,-6.03792 4.31087,0 9.17533,2.10724 12.03739,5.2145 1.25245,1.35974 3.64303,6.03023 5.31241,10.37887 1.66938,4.34865 4.16875,9.84922 5.55416,12.22349 2.51142,4.30398 2.56857,7.25397 0.13764,7.10419 -1.00364,-0.0618 -1.01044,-0.18827 -0.0314,-0.58333 1.79643,-0.72488 1.56533,-1.90083 -1.20059,-6.10916 -1.34782,-2.05071 -3.84864,-7.40551 -5.55737,-11.89957 -5.55057,-14.5983 -9.49746,-16.49522 -27.6864,-13.30638 -15.32384,2.68654 -22.42648,4.55771 -23.43424,6.17366 -0.44717,0.71705 -1.09228,3.32873 -1.43358,5.80373 -0.3413,2.475 -0.99852,6.075 -1.46048,8 -1.90264,7.92836 -2.17647,16.42548 -0.59617,18.5 1.51814,1.99293 1.53768,1.99203 5.52743,-0.25468 7.56034,-4.25738 19.09451,-6.32105 37.5914,-6.72577 l 17,-0.37197 -15.78472,0.86024 c -18.80324,1.02474 -29.20075,2.9645 -36.8967,6.88345 -5.12565,2.61009 -5.88377,2.75137 -7.75,1.44421 z m -12.8164,-7.83548 c -0.0111,-2.2 0.18461,-3.21775 0.4349,-2.26166 0.25029,0.95609 0.25937,2.75609 0.0202,4 -0.23919,1.24391 -0.44398,0.46166 -0.45508,-1.73834 z m 7.24143,-8.5 c 0.20869,-4.675 0.86022,-9.625 1.44784,-11 0.94854,-2.21952 0.99638,-2.10732 0.4264,1 -0.3531,1.925 -1.00463,6.875 -1.44784,11 l -0.80583,7.5 0.37943,-8.5 z m 39.50639,4.11869 c 0,-1.08775 5.91386,-5.66669 9.32757,-7.22208 1.44275,-0.65736 4.03114,-0.8643 6.05699,-0.48424 3.53946,0.664 9.64337,5.70475 9.58384,7.91455 -0.0174,0.64519 -1.19932,-0.15571 -2.62653,-1.77978 l -2.59492,-2.95286 -1.87348,2.31365 c -1.186,1.46465 -1.87347,1.79596 -1.87347,0.90285 0,-0.77593 0.49831,-1.90909 1.10736,-2.51814 0.80981,-0.80981 0.51609,-1.4238 -1.09314,-2.28503 -3.01517,-1.61367 -6.05495,-0.65097 -11.00619,3.48568 -4.46552,3.73084 -5.00803,4.01524 -5.00803,2.6254 z m -45.8421,-2.11869 c 0,-1.375 0.22697,-1.9375 0.50438,-1.25 0.27741,0.6875 0.27741,1.8125 0,2.5 -0.27741,0.6875 -0.50438,0.125 -0.50438,-1.25 z m 55.8421,1 c -1.29269,-0.8354 -1.26629,-0.97149 0.19098,-0.98469 0.93004,-0.008 1.9691,0.43469 2.30902,0.98469 0.78218,1.2656 -0.54163,1.2656 -2.5,0 z m -55.86382,-7.89701 c -0.15529,-2.73334 6.19998,-11.10299 8.43077,-11.10299 0.78818,0 1.43305,0.43588 1.43305,0.96862 0,0.53273 -0.61676,0.73194 -1.37057,0.44267 -1.6791,-0.64433 -7.24322,6.1274 -7.89325,9.60635 l -0.46382,2.48236 -0.13618,-2.39701 z"
         id="path2208" />
      <path
         inkscape:connector-curvature="0"
         sodipodi:nodetypes="csssssscccsssscccsssssssssssssssssssscccsscccssscccsssssssssssscccsscccsssssssccssssccsssccsssscccsccssssssssssssssssssssccsssccssccsssssccsssccsssssssscccccsssccssssccssssccssssssssssssssscccsccssccssccssccssccsscccccsccccssccssssccssccccssccssc"
         style="fill:#302a08"
         d="m 449.68359,441.97312 c -2.54393,-1.48211 -3.50549,-3.75787 -5.2998,-12.5432 -1.69931,-8.32022 -4.02317,-13.22285 -5.54589,-11.70013 -0.52964,0.52964 -0.49343,2.30519 0.0884,4.33384 0.81248,2.83296 0.67279,3.74943 -0.79527,5.2175 -2.36371,2.36371 -12.72479,4.56086 -14.93454,3.16699 -2.19093,-1.38201 -6.39087,-12.97265 -6.39621,-17.65176 -0.005,-4.38883 -1.34122,-4.94552 -2.40026,-1 l -0.73814,2.75 -0.84724,-2.9873 c -0.59948,-2.11369 -0.45594,-3.37862 0.49082,-4.32538 0.95942,-0.95942 1.2016,-3.24532 0.85582,-8.07806 -0.56297,-7.86822 1.16156,-12.29358 5.82447,-14.94636 2.79825,-1.59196 2.92322,-1.96538 2.92928,-8.75294 0.0131,-14.70496 5.9166,-30.19078 15.16024,-39.76779 l 5.65392,-5.85782 -1.41734,-3.39218 c -0.77954,-1.86569 -1.16289,-3.39217 -0.8519,-3.39217 0.31099,0 1.03605,1.35 1.61125,3 0.57519,1.65 1.49992,3 2.05496,3 0.55504,0 0.73602,-0.7118 0.40218,-1.58179 -0.33384,-0.86998 -0.60699,-1.96284 -0.60699,-2.42857 0,-0.46573 -0.63416,-1.48094 -1.40925,-2.25603 -0.81566,-0.81566 -1.07556,-1.94917 -0.61704,-2.69108 0.53205,-0.86086 1.19873,-0.011 2.03005,2.58783 0.68082,2.1283 1.52098,4.17237 1.86704,4.54237 0.34606,0.36999 4.0042,-0.47938 8.1292,-1.8875 5.21992,-1.78189 10.4641,-2.71108 17.25,-3.05643 8.07117,-0.41075 9.76091,-0.7745 9.81339,-2.1125 0.0463,-1.1793 0.28863,-1.06008 0.89648,0.44097 0.58383,1.44174 2.73405,2.58495 7.18661,3.82094 5.27157,1.46333 7.13249,2.60561 10.92784,6.70778 4.13549,4.46981 9.74884,12.91401 8.58469,12.91401 -0.25793,0 -1.60081,-1.9125 -2.98417,-4.25 -7.3372,-12.39782 -18.25063,-17.45422 -35.36523,-16.38537 -14.54296,0.90824 -24.78651,5.10631 -32.40275,13.27948 -5.77545,6.19778 -7.66592,9.53107 -11.0457,19.47584 -2.61977,7.70848 -3.20331,11.01637 -3.27451,18.56233 l -0.0866,9.18229 -3.09281,1.47658 c -1.725,0.82355 -3.82571,3.02105 -4.75,4.96884 -1.82029,3.83598 -2.27465,10.18966 -0.65719,9.19001 0.59392,-0.36706 1.04349,0.92874 1.10709,3.19098 l 0.10709,3.80902 0.94561,-4.21887 c 1.06174,-4.73704 4.72449,-8.28113 8.5584,-8.28113 3.00653,0 2.59131,-1.98 -0.79716,-3.80131 -1.80769,-0.97165 -1.9412,-1.22498 -0.52701,-1 3.15844,0.50246 5.63135,4.99545 6.51664,11.83998 l 0.83573,6.46133 0.12681,-5.48354 c 0.148,-6.40031 4.45156,-16.0373 9.18827,-20.57535 4.1618,-3.98725 13.72488,-4.69113 20.32514,-1.496 5.71448,2.76633 11.23411,8.85696 12.4593,13.74822 1.98813,7.93704 2.16819,9.30667 1.22346,9.30667 -0.5328,0 -1.51589,-2.78119 -2.18465,-6.18042 -1.49813,-7.61485 -5.62375,-12.60065 -13.08142,-15.80885 -6.07274,-2.61242 -12.51826,-2.34074 -16.66754,0.70255 -1.44967,1.06326 -4.08561,4.60025 -5.85764,7.85996 -3.01001,5.53701 -3.21718,6.55149 -3.15032,15.42676 0.0394,5.225 0.37203,10.57223 0.73928,11.88273 1.17249,4.18396 3.35719,-0.12027 4.08361,-8.04539 0.52645,-5.74341 1.09076,-7.45248 2.96065,-8.96663 3.31785,-2.68663 6.21055,-2.32639 11.8629,1.47737 l 4.97522,3.34807 12.37527,-0.25465 c 16.66684,-0.34295 47.6631,-6.53075 52.39778,-10.46018 0.65735,-0.54555 3.65706,-1.83892 6.66602,-2.87416 6.63286,-2.28204 7.18989,-1.77076 8.27716,7.59724 l 0.71076,6.12396 -4.83822,2.18436 c -12.62741,5.70103 -33.81022,10.74286 -48.83823,11.62425 -11.65846,0.68376 -11.70261,0.69993 -10.50561,3.84826 0.5811,1.52843 0.64576,4.94215 0.16078,8.48841 -0.44617,3.2625 -0.43861,5.70154 0.0168,5.42008 1.32411,-0.81835 0.95588,2.04918 -0.52282,4.07142 -1.20983,1.65454 -1.83606,1.72523 -5.99854,0.6771 -3.82996,-0.96439 -5.28524,-0.90392 -8.27127,0.34373 -4.144,1.73147 -9.08024,1.91877 -11.61708,0.44079 z m 7.23774,-12.56723 c 0,-0.90226 -0.86368,-3.48976 -1.9193,-5.75 -1.05561,-2.26024 -2.16649,-4.89703 -2.46861,-5.85953 -0.30213,-0.9625 -0.97271,-1.75 -1.49019,-1.75 -0.93473,0 0.59484,6.84208 2.73851,12.25 1.19669,3.01893 3.13959,3.70555 3.13959,1.10953 z m -32.07245,-17.57906 c -0.68622,-2.07926 -1.68289,-3.78047 -2.21484,-3.78047 -1.41713,0 -0.26988,9.62118 1.38731,11.63435 1.27544,1.54942 1.43001,1.44388 1.73759,-1.18636 0.18568,-1.58788 -0.22385,-4.58827 -0.91006,-6.66752 z m 63.07245,5.67273 c 14.43478,-1.18816 37.63094,-6.71708 46.0352,-10.97272 4.4434,-2.24999 4.52854,-2.38436 4.20612,-6.63848 -0.48766,-6.43439 -1.14623,-8.842 -2.41863,-8.842 -0.62656,0 -5.00549,1.77838 -9.73095,3.95195 -12.64645,5.817 -43.4924,11.59788 -57.99908,10.86968 l -6.40734,-0.32163 -0.39417,4.5848 c -0.44479,5.17348 0.6789,6.67302 5.96501,7.96021 3.14745,0.76642 4.82424,0.71858 20.74384,-0.59181 z m 36.58098,8.2968 c -0.72433,-1.7875 -1.59973,-5.11905 -1.94535,-7.40344 -0.60127,-3.97423 -0.49266,-4.20075 2.51722,-5.25 4.7973,-1.67235 5.42382,-1.40929 6.83621,2.8703 1.67052,5.06173 2.91449,4.35704 2.27794,-1.29042 -0.42785,-3.79589 -0.15948,-4.61585 2.08987,-6.3852 2.20229,-1.73232 3.13529,-1.88299 6.36195,-1.02744 4.89163,1.29702 11.95314,-1.65173 11.49652,-4.80072 -2.59983,-17.92933 -3.63473,-23.38528 -4.91826,-25.92894 -3.23554,-6.41208 -8.7505,-10.53414 -14.09378,-10.53414 -1.59281,0 -4.3129,-0.70683 -6.04464,-1.57074 -3.5389,-1.76543 -8.42427,-2.23359 -12.15866,-1.16514 -1.375,0.3934 -0.95559,0.0102 0.93203,-0.85157 3.72913,-1.70247 7.75308,-1.34875 12.43228,1.09286 1.57537,0.82202 3.95232,1.49459 5.28212,1.49459 5.78144,0 13.09552,5.56089 15.44625,11.74377 1.2824,3.37296 4.86979,27.50794 4.24017,28.52669 -0.28992,0.4691 -1.53861,1.23747 -2.77487,1.7075 -2.14296,0.81475 -2.20013,1.11726 -1.22644,6.48916 0.96439,5.32059 0.88609,5.76411 -1.40512,7.95905 -2.52124,2.41531 -17.19154,7.57383 -21.53919,7.57383 -1.87161,0 -2.81607,-0.80644 -3.80625,-3.25 z m -44.94612,-26.82258 c -5.09013,-4.0039 -2.42902,-12.26641 3.35899,-10.42937 2.30133,0.73041 7.00615,6.1075 7.00615,8.00725 0,2.09813 -2.89878,4.4947 -5.43657,4.4947 -1.26154,0 -3.4794,-0.93266 -4.92857,-2.07258 z m 7.16514,-0.12742 c 1.78087,-1.78087 1.46401,-3.89007 -0.97431,-6.48555 -2.46067,-2.61926 -6.59872,-3.0695 -7.46492,-0.81221 -1.93005,5.02963 4.84698,10.89001 8.43923,7.29776 z m 5.2,-0.63877 c 0,-0.53546 2.3625,-1.2967 5.25,-1.69165 2.8875,-0.39495 6.32491,-1.12477 7.63869,-1.62181 1.31378,-0.49705 2.65074,-0.64167 2.97104,-0.32137 1.03364,1.03364 -2.13578,2.32531 -7.31191,2.9799 -2.7763,0.3511 -5.83532,0.86114 -6.79782,1.13342 -0.9625,0.27228 -1.75,0.057 -1.75,-0.47849 z m -74.99384,-0.97697 c -0.0105,-2.24818 1.94015,-5.09024 4.26676,-6.21651 1.99833,-0.96735 2.04951,-0.9343 0.49836,0.32177 -0.9508,0.76992 -2.41053,2.70724 -3.24384,4.30517 -0.83332,1.59792 -1.51789,2.31323 -1.52128,1.58957 z m 93.93326,-5.24484 c -2.91219,-2.91219 -2.29834,-7.35695 1.06058,-7.67946 2.46355,-0.23653 2.4672,-0.22607 0.25,0.71778 -2.64442,1.12572 -2.83725,2.73883 -0.6933,5.79975 2.03074,2.89928 4.93833,2.81839 7.97868,-0.22196 2.86167,-2.86168 2.39606,-5.04205 -1.37139,-6.42192 -1.84683,-0.67642 -2.10702,-0.99993 -0.84825,-1.05466 2.91084,-0.12656 5.68426,1.82591 5.68426,4.00169 0,2.82124 -4.41509,6.91936 -7.45455,6.91936 -1.4,0 -3.47271,-0.92726 -4.60603,-2.06058 z m -84.5005,-13.23801 c -0.30083,-0.78394 -0.38274,-4.07497 -0.18203,-7.31338 l 0.36494,-5.88803 0.18909,6.25 c 0.10399,3.4375 0.52658,6.24311 0.93908,6.23469 1.5448,-0.0315 3.18155,-1.61928 4.1368,-4.01292 0.89327,-2.23834 0.99241,-2.27392 1.04981,-0.37676 0.0968,3.1984 -5.5323,7.62217 -6.49769,5.1064 z m 94.56108,0.44863 c 0,-1.50656 5.87408,-9.01228 7.90288,-10.09806 2.36209,-1.26415 9.09712,-1.4053 9.09712,-0.19065 0,0.47373 -1.06725,0.65731 -2.37167,0.40795 -3.46247,-0.66189 -8.25925,2.21588 -11.26548,6.75861 -2.6561,4.01363 -3.36285,4.6698 -3.36285,3.12215 z m -85.92105,-7.90004 c 0.0472,-1.04544 0.28201,-1.24674 0.58333,-0.5 0.87764,2.17501 2.14906,1.37564 4.77158,-3 1.40097,-2.3375 2.55148,-3.79196 2.55668,-3.23214 0.005,0.55983 -1.13176,2.69733 -2.52659,4.75 -2.65865,3.91257 -5.5196,4.96563 -5.385,1.98214 z m 11.98963,0.0855 c -2.59318,-1.81633 -2.72863,-7.14606 -0.50411,-19.83548 2.67335,-15.2497 3.05164,-16.2182 6.82064,-17.46208 4.91712,-1.6228 28.50482,-6.03792 32.25745,-6.03792 8.00924,0 13.22192,4.42927 16.96227,14.41301 1.4603,3.89785 4.04556,9.66554 5.74502,12.8171 2.50708,4.64926 2.84865,5.96965 1.81079,7 -1.03622,1.02873 -1.15065,0.93244 -0.60256,-0.50705 0.42738,-1.12245 -0.24286,-3.14826 -1.81966,-5.5 -1.37293,-2.04769 -3.76244,-7.09806 -5.31002,-11.22306 -3.7694,-10.04714 -5.63589,-12.53192 -10.93326,-14.55501 -4.2164,-1.61025 -5.07421,-1.61171 -14.60007,-0.0247 -14.01811,2.33537 -23.47542,4.55239 -25.3893,5.95185 -1.5703,1.14823 -1.93618,2.82082 -4.63459,21.18656 -1.3098,8.91466 -0.70421,13.44132 1.7982,13.44132 0.8972,0 3.92613,-1.11449 6.73095,-2.47665 7.77999,-3.77835 18.4705,-5.58176 35.59967,-6.00538 l 15.5,-0.38333 -15.346,0.87938 c -18.45102,1.05731 -28.72508,3.00189 -36.33542,6.87725 -5.12565,2.61009 -5.88377,2.75137 -7.75,1.44421 z m -15.87363,-2.83548 c -0.0204,-1.65 0.18706,-2.44606 0.46099,-1.76903 0.27392,0.67703 0.29059,2.02703 0.0371,3 -0.25354,0.97297 -0.47766,0.41903 -0.49804,-1.23097 z m 3.05723,-5 c -0.0111,-2.2 0.18461,-3.21775 0.4349,-2.26166 0.25029,0.95609 0.25937,2.75609 0.0202,4 -0.23919,1.24391 -0.44398,0.46166 -0.45508,-1.73834 z m -7.25218,0.69113 c 0,-1.46146 2.82147,-4.70299 3.50157,-4.02289 0.3658,0.3658 -0.2724,1.60259 -1.41824,2.74843 -1.14583,1.14583 -2.08333,1.71934 -2.08333,1.27446 z m 14.11832,-6.77446 c 0.0651,-3.25417 0.45893,-7.26667 0.87524,-8.91667 0.41669,-1.65148 0.52563,0.82081 0.24236,5.5 -0.5993,9.89941 -1.28943,12.00923 -1.1176,3.41667 z m 43.55076,-1.26765 c 4.47969,-4.37354 7.86645,-5.73339 11.81258,-4.74298 2.88507,0.72411 9.52065,6.26753 9.51337,7.94755 -0.003,0.63053 -1.08315,-0.20118 -2.40093,-1.84823 l -2.39597,-2.99464 -2.24457,1.99464 -2.24458,1.99464 1.22653,-2.33565 c 1.55762,-2.96613 0.86033,-3.61889 -3.86577,-3.61889 -2.90228,0 -4.97084,0.9134 -8.68939,3.83692 l -4.88035,3.83693 4.16908,-4.07029 z m 6.838,1.86243 c -0.35034,-0.56686 0.0511,-0.7345 0.94098,-0.39301 1.73242,0.66479 2.04939,1.38156 0.61096,1.38156 -0.51754,0 -1.21592,-0.44485 -1.55194,-0.98855 z m -56.42813,-8.90846 c -0.11006,-1.94745 6.7418,-10.10299 8.488,-10.10299 0.78818,0 1.43305,0.43588 1.43305,0.96862 0,0.53273 -0.61676,0.73194 -1.37057,0.44267 -1.31339,-0.50399 -6.6691,5.31479 -7.9052,8.58871 -0.44452,1.17736 -0.58332,1.19951 -0.64528,0.10299 z m 12.92105,-33.01301 c 3.30736,-2.90694 11.49861,-6.19799 14.9315,-5.99912 0.86268,0.05 -0.86204,0.75017 -3.83269,1.55598 -2.97065,0.80582 -7.47065,2.82733 -10,4.49226 l -4.59881,3.02714 3.5,-3.07626 z m 30.87244,-2.83998 c -1.24387,-1.58606 -1.2085,-1.62143 0.37756,-0.37756 1.66575,1.30637 2.19548,2.12756 1.37244,2.12756 -0.20765,0 -0.99515,-0.7875 -1.75,-1.75 z m -11.12244,-2.95573 c 1.2375,-0.23836 3.2625,-0.23836 4.5,0 1.2375,0.23835 0.225,0.43337 -2.25,0.43337 -2.475,0 -3.4875,-0.19502 -2.25,-0.43337 z"
         id="path2206" />
      <path
         inkscape:connector-curvature="0"
         sodipodi:nodetypes="csssssssssssssssssssssssssssssccsssssccscccsssssssssssssssssssssssssssssssssssccsssccsssssssssssccssccsssssssssccsssssssccssccsssssssssccssccssscccccssccssssccssccssccssccssccsssssssccssccssccssccsssccssccssccssscccccsccccsccccsccsscccccssssccssccssccsssccssc"
         style="fill:#030302"
         d="m 448.54898,440.76492 c -1.41175,-1.41175 -2.73102,-4.55668 -3.46081,-8.25 -1.80465,-9.13299 -3.10478,-13.26364 -4.6662,-14.82506 -1.08912,-1.08912 -1.19784,-2.21252 -0.46231,-4.77714 0.52892,-1.84424 0.96167,-5.04363 0.96167,-7.10976 0,-4.24505 2.75277,-7.7566 6.08053,-7.7566 1.1443,0 4.4068,1.53828 7.25,3.4184 3.82606,2.53005 5.94909,3.30411 8.16947,2.97862 2.68615,-0.39377 2.76461,-0.33629 0.75,0.54938 -1.84364,0.81051 -2.25,1.78558 -2.25,5.39893 0,7.47398 4.28378,8.96437 21.88543,7.61425 18.70087,-1.43443 41.14672,-6.49875 51.27335,-11.56848 4.61711,-2.31148 4.65458,-2.37063 4.18795,-6.61172 -0.94425,-8.58227 -1.17031,-9.04047 -4.09783,-8.30571 -1.46524,0.36775 -5.83316,2.18936 -9.70649,4.04802 -7.30578,3.50577 -27.78712,8.23313 -38.54241,8.89609 -3.025,0.18647 -4.15,0.14532 -2.5,-0.0914 15.03664,-2.15759 33.87489,-6.83922 41.70248,-10.3638 4.84014,-2.1794 9.45881,-3.96254 10.2637,-3.96254 2.06698,0 3.20071,2.66205 3.76836,8.84823 0.47052,5.12771 0.36241,5.42696 -2.62189,7.25781 -1.71196,1.05027 -5.58765,2.86077 -8.61265,4.02333 -7.99549,3.0728 -37.40445,8.85446 -45.08333,8.86317 -3.62084,0.004 -6.85461,0.27873 -7.18616,0.61028 -0.33155,0.33156 -0.22163,1.60544 0.24427,2.83085 0.4659,1.22541 0.52089,4.99455 0.12221,8.37586 -0.39869,3.38131 -0.33286,6.27851 0.14629,6.43823 1.27399,0.42466 -0.14249,3.49959 -1.92769,4.18463 -0.84137,0.32286 -3.26512,0.11974 -5.38611,-0.45138 -3.01883,-0.81289 -4.65094,-0.7064 -7.51504,0.49029 -5.35069,2.23566 -10.07659,1.95746 -12.78679,-0.75274 z m 8.37235,-11.87328 c 0,-1.12018 -0.67192,-3.23113 -1.49315,-4.69099 -0.82123,-1.45986 -1.93509,-3.89179 -2.47525,-5.40429 -0.54015,-1.5125 -1.44324,-2.75 -2.00685,-2.75 -0.56361,0 -1.01988,0.1125 -1.01393,0.25 0.0329,0.75932 3.16666,10.65975 4.11087,12.98729 1.22506,3.01987 2.87831,2.79471 2.87831,-0.39201 z m -34.74445,0.90472 c -1.72169,-2.17531 -5.62358,-15.13463 -5.41957,-18 0.25342,-3.55946 -1.39233,-3.55946 -2.38981,0 l -0.77064,2.75 -0.65866,-3 c -0.41013,-1.86806 -0.17875,-3.57525 0.61325,-4.52461 0.86948,-1.04223 1.08784,-3.30795 0.69016,-7.16108 -0.31995,-3.10006 -0.29161,-6.79241 0.063,-8.20522 0.68722,-2.73813 5.85846,-8.60909 7.58303,-8.60909 0.61771,0 1.0337,-2.9538 1.0337,-7.34004 0,-15.11439 6.99029,-32.86955 16.20138,-41.15111 4.37299,-3.93169 4.7904,-4.65568 3.77649,-6.5502 -0.62695,-1.17147 -0.91954,-2.35031 -0.6502,-2.61966 0.26935,-0.26934 0.78613,0.4442 1.14841,1.58565 0.97634,3.07618 2.64917,2.51748 2.01997,-0.67464 -0.51752,-2.62556 -0.49547,-2.64346 0.48739,-0.39548 0.75103,1.71775 1.50097,2.15724 2.773,1.62506 4.47413,-1.87184 13.63881,-4.47405 15.58265,-4.42452 1.1885,0.0303 -1.05795,0.89888 -4.99212,1.93021 -9.62894,2.5242 -14.29511,5.05811 -20.214,10.977 -8.7438,8.7438 -15.13297,25.85868 -15.13297,40.53718 0,6.68949 -0.17079,7.25734 -2.5023,8.31964 -3.62612,1.65218 -6.48958,6.93903 -6.49396,11.98993 -0.002,2.61885 0.3885,4.0666 0.99626,3.69098 0.58342,-0.36057 1,0.65628 1,2.44098 0,4.2959 1.46003,3.82313 1.68591,-0.5459 0.23417,-4.52945 2.36686,-6.91137 7.31208,-8.1666 4.57671,-1.16169 5.00201,-0.58401 5.00201,6.79429 0,7.13942 1.66253,6.94547 2.4426,-0.28495 0.77943,-7.22438 5.52735,-16.96838 9.79396,-20.0998 1.74787,-1.28282 4.81884,-2.15411 8.5,-2.4116 4.8668,-0.34042 6.60235,0.0384 11.15585,2.43522 7.11037,3.74263 10.68347,8.34894 12.47968,16.08836 0.79779,3.4375 1.04044,6.25 0.53922,6.25 -0.50122,0 -0.91131,-0.81832 -0.91131,-1.8185 0,-4.33291 -3.25047,-12.27812 -6.25042,-15.27807 -6.53359,-6.5336 -16.65126,-8.73492 -23.67892,-5.15188 -4.77568,2.43489 -9.69203,11.72746 -10.61745,20.06845 -0.78445,7.0704 0.74911,16.81898 2.92049,18.56511 2.34238,1.88363 2.80772,6.1442 0.86013,7.87515 -3.57442,3.17681 -14.1324,4.82196 -15.97828,2.48974 z m 2.672,-17.96953 c -0.68622,-2.07926 -1.68289,-3.78047 -2.21484,-3.78047 -1.41713,0 -0.26988,9.62118 1.38731,11.63435 1.27544,1.54942 1.43001,1.44388 1.73759,-1.18636 0.18568,-1.58788 -0.22385,-4.58827 -0.91006,-6.66752 z m 99.65343,13.96953 c -0.72433,-1.7875 -1.59973,-5.11905 -1.94535,-7.40344 -0.60127,-3.97423 -0.49266,-4.20075 2.51722,-5.25 4.81441,-1.67831 5.43753,-1.40712 6.73765,2.9323 1.54182,5.14612 2.84321,4.38586 2.51275,-1.46793 -0.21589,-3.82442 0.13956,-4.84274 2.27734,-6.52432 2.0188,-1.58799 2.9454,-1.77196 4.56344,-0.90601 1.9416,1.03911 5.96779,0.79532 10.25597,-0.62103 1.63852,-0.54119 1.71313,-0.47368 0.41279,0.37351 -1.34862,0.87865 -1.43484,1.87475 -0.57358,6.62636 0.95564,5.27228 0.8748,5.72526 -1.41279,7.91673 -2.52124,2.41531 -17.19154,7.57383 -21.53919,7.57383 -1.87161,0 -2.81607,-0.80644 -3.80625,-3.25 z m -55.85328,-20.47173 c 1.77523,-0.22091 4.92523,-0.22454 7,-0.008 2.07476,0.21648 0.6223,0.39722 -3.2277,0.40166 -3.85,0.004 -5.54754,-0.17268 -3.7723,-0.39359 z m 85.6538,-1.62376 c -0.0652,-1.18498 -0.8674,-7.10451 -1.78272,-13.15451 -2.59156,-17.12944 -6.26671,-22.6401 -16.33464,-24.49271 -5.72367,-1.05322 -17.61188,-5.42589 -12.4343,-4.57353 1.8314,0.3015 4.7564,1.1843 6.5,1.96179 1.74359,0.77749 4.89949,1.66006 7.01312,1.96125 4.90404,0.69884 10.12372,4.67749 12.6608,9.65057 1.09192,2.14033 2.64869,8.61736 3.4595,14.3934 0.81082,5.77604 1.74974,11.59971 2.0865,12.94147 0.33676,1.34176 0.23833,2.67069 -0.21873,2.95317 -0.45707,0.28249 -0.88436,-0.45592 -0.94953,-1.6409 z m -72.97699,-3.80902 c -0.45403,-0.73463 -0.27298,-0.88223 0.49782,-0.40585 2.29772,1.42006 6.09767,-0.3151 6.09767,-2.78438 0,-4.77621 -8.16535,-8.99391 -9.69496,-5.0078 -0.34771,0.90611 -0.12213,3.04361 0.50128,4.75 1.03175,2.82409 1.00156,2.92833 -0.33642,1.16141 -2.99401,-3.95385 -1.23163,-8.55887 3.27555,-8.55887 4.96412,0 9.23544,7.61911 6.05455,10.8 -1.52778,1.52778 -5.46209,1.55576 -6.39549,0.0455 z m 17.59549,-3.3818 c 3.575,-0.7372 7.175,-1.31466 8,-1.28323 2.66591,0.10154 -8.39828,2.62761 -11.5,2.62557 -1.65,-0.001 -0.075,-0.60513 3.5,-1.34234 z m 12.07258,-5.09855 c -1.13992,-1.44917 -2.07258,-3.15917 -2.07258,-3.8 0,-1.42374 2.03688,-3.56514 3.39113,-3.56514 0.54512,0 0.11762,0.6496 -0.95,1.44355 -1.80142,1.33965 -1.83077,1.64552 -0.40771,4.25 2.03591,3.72612 5.28057,4.08336 8.4352,0.92874 2.75835,-2.75835 2.5091,-5.1772 -0.63636,-6.17553 -1.09064,-0.34615 -1.73811,-0.87424 -1.43883,-1.17352 0.29928,-0.29929 1.70558,0.21684 3.12509,1.14694 2.99348,1.9614 2.65738,4.9603 -0.87502,7.80758 -3.07836,2.48131 -6.18666,2.16848 -8.57092,-0.86262 z M 426.2414,373.04636 c 0,-3.575 0.1815,-5.0375 0.40333,-3.25 0.22182,1.7875 0.22182,4.7125 0,6.5 -0.22183,1.7875 -0.40333,0.325 -0.40333,-3.25 z m 3.42993,4.02281 c 1.2375,-1.15539 2.25,-2.60819 2.25,-3.22843 0,-0.62024 0.26146,-0.86625 0.58102,-0.54669 0.91116,0.91116 -1.33464,4.44408 -3.30324,5.19643 -1.35303,0.51709 -1.24021,0.17751 0.47222,-1.42131 z m 93.19387,-0.94398 c 3.81148,-5.35273 7.90006,-8.08938 11.88286,-7.95366 l 3.67327,0.12516 -4.21402,0.68728 c -4.52564,0.73811 -7.46422,2.86268 -10.07683,7.28547 -0.9022,1.52731 -2.02398,2.77692 -2.49285,2.77692 -0.46887,0 0.0835,-1.31453 1.22757,-2.92117 z m -76.90869,-6.01309 c -0.56935,-1.06384 -0.97182,-3.87634 -0.89438,-6.25 0.14041,-4.30375 0.14258,-4.301 0.78313,0.99121 0.3594,2.96943 1.28843,5.71558 2.1092,6.23469 0.93911,0.59395 1.0298,0.93324 0.25205,0.94305 -0.66815,0.008 -1.68064,-0.85511 -2.25,-1.91895 z m 18.23565,-4.66991 c 0.33229,-0.33229 1.19479,-0.36781 1.91667,-0.0789 0.79773,0.31922 0.56078,0.55618 -0.60417,0.60416 -1.05416,0.0434 -1.64479,-0.19292 -1.3125,-0.52522 z m 4.47917,-1.05811 c 0.6875,-0.27741 1.8125,-0.27741 2.5,0 0.6875,0.27741 0.125,0.50439 -1.25,0.50439 -1.375,0 -1.9375,-0.22698 -1.25,-0.50439 z m 6,-1.04345 c 1.2375,-0.23836 3.2625,-0.23836 4.5,0 1.2375,0.23835 0.225,0.43337 -2.25,0.43337 -2.475,0 -3.4875,-0.19502 -2.25,-0.43337 z m 15,-1.03151 c 2.8875,-0.202 7.6125,-0.202 10.5,0 2.8875,0.202 0.525,0.36728 -5.25,0.36728 -5.775,0 -8.1375,-0.16528 -5.25,-0.36728 z m -6.25,-5.17185 c 4.25329,-4.63533 8.05341,-6.39727 12.14286,-5.63009 3.53599,0.66336 10.38065,5.89541 10.32546,7.89277 -0.0174,0.63053 -0.95496,-0.0911 -2.08341,-1.60359 -2.38639,-3.19856 -3.62246,-3.42008 -5.57983,-1 -1.26782,1.56752 -1.29694,1.50645 -0.27923,-0.58565 1.44885,-2.97838 0.74865,-3.61889 -3.95611,-3.61889 -2.92953,0 -4.93592,0.90223 -8.68939,3.90746 -4.57183,3.66044 -4.6907,3.70077 -1.88035,0.63799 z m -37.268,-1.09091 c 0,-1.925 0.2058,-2.7125 0.45733,-1.75 0.25152,0.9625 0.25152,2.5375 0,3.5 -0.25153,0.9625 -0.45733,0.175 -0.45733,-1.75 z m 45.27508,2.01145 c -0.35034,-0.56686 0.0511,-0.7345 0.94098,-0.39301 1.73242,0.66479 2.04939,1.38156 0.61096,1.38156 -0.51754,0 -1.21592,-0.44485 -1.55194,-0.98855 z m -44.42813,-7.42812 c -0.0434,-1.05416 0.19293,-1.64479 0.52522,-1.3125 0.33229,0.3323 0.36782,1.1948 0.0789,1.91667 -0.31922,0.79773 -0.55618,0.56078 -0.60416,-0.60417 z m 56.03216,-3.69444 c -0.61607,-1.76726 -0.94513,-3.38821 -0.73124,-3.60209 0.21389,-0.21389 0.89295,1.05705 1.50902,2.82431 0.61607,1.76726 0.94513,3.38821 0.73124,3.60209 -0.21389,0.21389 -0.89295,-1.05705 -1.50902,-2.82431 z m -54.91616,-1.38889 c -0.0204,-1.65 0.18706,-2.44606 0.46099,-1.76903 0.27392,0.67703 0.29059,2.02703 0.0371,3 -0.25354,0.97297 -0.47766,0.41903 -0.49804,-1.23097 z m -9.19495,-2.87755 c 0,-0.20766 0.7875,-0.99516 1.75,-1.75 1.58606,-1.24388 1.62143,-1.20851 0.37756,0.37755 -1.30637,1.66575 -2.12756,2.19548 -2.12756,1.37245 z m 61.1239,-3.69689 c -0.58947,-1.69094 -2.54599,-4.4607 -4.34783,-6.15503 -2.12208,-1.99547 -2.50801,-2.67446 -1.09561,-1.9276 2.4848,1.31393 5.72431,5.58506 6.75573,8.90707 1.05917,3.41139 -0.0866,2.69156 -1.31229,-0.82444 z m -49.1239,-3.15313 c 1.52697,-1.64712 24.55701,-6.89646 29.11473,-6.63625 l 2.38527,0.13618 -2.5,0.42728 c -11.01967,1.88337 -27.77683,5.6908 -29,6.58915 -1.33333,0.97927 -1.33333,0.92189 0,-0.51636 z m 52.40499,-1.02243 -1.90499,-2.25 2.25,1.90499 c 2.11444,1.79022 2.70524,2.59501 1.90499,2.59501 -0.18976,0 -1.20226,-1.0125 -2.25,-2.25 z m -4.48068,-5.5 -2.42431,-2.75 2.75,2.42431 c 1.5125,1.33338 2.75,2.57088 2.75,2.75 0,0.78428 -0.8098,0.14598 -3.07569,-2.42431 z m -12.92431,-0.25 c -3.41761,-0.71937 -3.42938,-0.73816 -0.5,-0.79807 1.65,-0.0337 3.9,0.32538 5,0.79807 2.40468,1.03333 0.40913,1.03333 -4.5,0 z m 1,-4.55171 c -2.475,-0.77986 -6.3,-1.50041 -8.5,-1.60121 l -4,-0.18329 3.75,-0.39226 c 2.66104,-0.27835 3.77041,-0.88291 3.82029,-2.08189 0.0569,-1.36839 0.21745,-1.31288 0.84431,0.29194 0.49341,1.26315 2.73389,2.58718 6.17972,3.65196 2.97312,0.91871 4.73068,1.6844 3.90568,1.70153 -0.825,0.0171 -3.525,-0.60693 -6,-1.38678 z m -43.72617,-2.27906 c -0.67597,-0.41776 -0.82775,-1.27296 -0.36021,-2.02947 0.62722,-1.01485 0.95636,-0.92097 1.47075,0.41952 0.79874,2.08148 0.4561,2.57819 -1.11054,1.60995 z m 23.997,0.2266 c 0.33229,-0.33229 1.19479,-0.36781 1.91667,-0.0789 0.79773,0.31922 0.56078,0.55618 -0.60417,0.60416 -1.05416,0.0434 -1.64479,-0.19292 -1.3125,-0.52522 z m -17.39001,-7.73128 c 1.36906,-1.67039 11.83996,-5.2771 12.73164,-4.38543 0.25528,0.25529 -1.69059,1.00125 -4.32415,1.65769 -2.63357,0.65644 -5.91331,1.91779 -7.28831,2.803 -2.33269,1.50177 -2.40759,1.49673 -1.11918,-0.0753 z m 28.99162,-1.41455 c -1.24387,-1.58606 -1.2085,-1.62143 0.37756,-0.37756 1.66575,1.30637 2.19548,2.12756 1.37244,2.12756 -0.20765,0 -0.99515,-0.7875 -1.75,-1.75 z"
         id="path2204" />
      <text
         transform="matrix(0.9823623,-0.1869875,0.1869875,0.9823623,0,0)"
         sodipodi:linespacing="100%"
         id="text2272"
         y="402.75854"
         x="385.13419"
         style="font-size:11.75293922px;font-style:normal;font-variant:normal;font-weight:normal;font-stretch:normal;text-align:start;line-height:100%;writing-mode:lr-tb;text-anchor:start;fill:#000000;fill-opacity:1;stroke:none;font-family:Impact"
         xml:space="preserve"><tspan
           y="402.75854"
           x="385.13419"
           id="tspan2166"
           sodipodi:role="line">tam</tspan></text>
    </g>
  </g>
</svg>
