<?xml version="1.0" encoding="UTF-8" standalone="no"?>
<!-- Created with Inkscape (http://www.inkscape.org/) -->

<svg
   xmlns:dc="http://purl.org/dc/elements/1.1/"
   xmlns:cc="http://creativecommons.org/ns#"
   xmlns:rdf="http://www.w3.org/1999/02/22-rdf-syntax-ns#"
   xmlns:svg="http://www.w3.org/2000/svg"
   xmlns="http://www.w3.org/2000/svg"
   xmlns:sodipodi="http://sodipodi.sourceforge.net/DTD/sodipodi-0.dtd"
   xmlns:inkscape="http://www.inkscape.org/namespaces/inkscape"
   width="596.96313"
   height="599.4519"
   viewBox="0 0 600 600"
   id="svg2987"
   version="1.1"
   inkscape:version="0.48.4 r9939"
   sodipodi:docname="Nuovo documento 1">
  <defs
     id="defs2989" />
  <sodipodi:namedview
     id="base"
     pagecolor="#ff42ff"
     bordercolor="#666666"
     borderopacity="1.0"
     inkscape:pageopacity="0"
     inkscape:pageshadow="2"
     inkscape:zoom="0.7"
     inkscape:cx="16.943107"
     inkscape:cy="342.68799"
     inkscape:document-units="px"
     inkscape:current-layer="layer1"
     showgrid="false"
     fit-margin-top="0"
     fit-margin-left="0"
     fit-margin-right="0"
     fit-margin-bottom="0"
     inkscape:window-width="1920"
     inkscape:window-height="1028"
     inkscape:window-x="1358"
     inkscape:window-y="-8"
     inkscape:window-maximized="1" />
  <metadata
     id="metadata2992">
    <rdf:RDF>
      <cc:Work
         rdf:about="">
        <dc:format>image/svg+xml</dc:format>
        <dc:type
           rdf:resource="http://purl.org/dc/dcmitype/StillImage" />
        <dc:title></dc:title>
      </cc:Work>
    </rdf:RDF>
  </metadata>
  <g
     inkscape:label="Livello 1"
     inkscape:groupmode="layer"
     id="layer1"
     transform="translate(-158.86465,-106.98724)">
    <g
       id="g3874"
       transform="translate(902.85714,-34.285714)">
      <path
         style="fill:#cecece"
         d="m -447.46598,739.07299 c -15.63133,-25.32664 -6.10741,-69.85824 -41.11336,-79.88168 -32.25105,-14.68461 -62.58846,3.16813 -80.00043,32.20318 -20.70946,13.7836 -47.45215,-5.10047 -63.03707,-20.15889 -23.45508,-26.45457 -57.53301,-47.56501 -66.46207,-83.53802 3.21303,-31.40953 57.86389,-39.31569 38.87174,-79.78683 -5.25581,-47.13392 -61.22076,-33.25339 -82.82178,-63.24121 -6.17864,-27.68751 6.82259,-56.04375 12.27034,-83.23841 9.46955,-24.80844 15.15882,-58.10643 36.44385,-73.63031 33.4317,3.21505 70.98441,33.98097 95.55331,-4.08659 24.94536,-25.67576 -5.48741,-59.27024 -1.60482,-88.63937 20.86632,-34.43233 65.09095,-35.54989 99.31856,-47.68891 28.30104,-9.92275 82.54649,-12.68243 72.64102,32.29859 1.19537,44.25549 70.16214,64.24056 93.10231,25.09955 17.79572,-36.96926 56.93704,-22.53446 76.57846,3.47762 27.57092,25.12308 51.86573,54.03006 70.64111,86.31659 -10.33114,28.59507 -53.28966,43.30617 -44.5361,78.20163 2.28964,45.29881 52.9992,37.31262 78.46281,60.20126 12.21225,32.80657 -1.55773,68.45981 -9.90375,100.77747 -5.67817,26.57813 -21.09756,75.86979 -57.10418,57.81337 -29.49095,-28.06692 -74.99715,-1.09628 -82.71671,33.90898 3.40032,29.18102 29.71906,74.83505 -15.85767,84.40373 -40.47235,17.42848 -83.79601,34.21683 -128.72557,29.18825 z M -595.20922,523.71964 c 27.44497,-27.23799 54.88995,-54.47599 82.33492,-81.71398 14.69554,-33.4971 -24.23359,-12.26183 -29.77269,4.12509 -48.37472,48.00553 -96.71952,96.0507 -144.06731,145.07365 33.09959,15.71953 45.95046,-29.8336 66.44874,-46.28046 9.75473,-5.55689 17.30152,-13.09034 25.05634,-21.2043 z m 173.79752,-20.88317 c 56.00443,-9.78232 60.73512,-102.34432 7.62148,-119.9356 -41.00968,-18.37661 -95.91835,18.41911 -87.69895,64.65255 2.64185,39.34789 42.3255,66.84783 80.07747,55.28305 z m -41.61769,-132.48476 c 38.86204,-1.58215 57.62835,-40.96005 84.84632,-62.81885 33.51866,-33.26511 67.03732,-66.53023 100.55598,-99.79535 -30.81896,-14.42728 -47.2877,23.48178 -64.69015,41.74159 -43.88572,37.65666 -82.91363,81.24506 -124.21,121.95452 1.16595,-0.36064 2.3319,-0.72127 3.49785,-1.08191 z"
         id="path3042"
         inkscape:connector-curvature="0" />
      <path
         style="fill:#bfbfbf"
         d="m -447.35633,738.66138 c -13.95382,-31.46843 -9.74599,-83.41624 -57.34012,-84.552 -44.33743,-14.53829 -54.20698,53.59135 -94.08243,40.09358 -27.32773,-14.02509 -46.80566,-39.25265 -68.53993,-60.22034 -16.89253,-16.40417 -46.91231,-47.29614 -18.99113,-67.47106 37.07426,-13.85562 35.05348,-63.50332 11.20167,-88.84051 -27.19688,-13.68215 -82.95763,-18.92182 -66.88975,-62.92832 8.2437,-43.42164 20.82428,-86.59514 42.95079,-125.11703 33.29946,-6.63398 71.39624,36.18732 98.69889,-0.70828 32.9944,-30.25197 -11.37822,-71.12213 7.21108,-102.34787 22.02392,-25.83578 59.21695,-25.84572 88.85693,-37.40952 24.3906,-4.48178 65.42569,-20.51204 75.92382,12.14155 -6.7477,36.83704 24.72307,69.45423 62.0312,65.19249 32.3073,-3.22095 50.0223,-66.87556 86.78093,-36.90185 28.57503,22.03377 50.37871,51.5123 75.86942,76.72725 22.79654,25.90493 5.76741,56.11375 -20.23655,69.18403 -21.43806,29.88863 -1.12982,82.86437 39.00375,80.51611 39.23846,5.96519 43.98332,48.54407 30.94258,78.59292 -6.63218,34.64071 -16.16545,69.57715 -35.66739,99.38916 -34.29678,0.0921 -74.16387,-32.29814 -100.92682,4.99341 -34.79666,28.17655 13.70725,67.89479 -7.71237,95.84704 -22.83914,24.32876 -58.65374,25.92682 -87.76146,38.72568 -19.91263,5.23575 -40.80507,8.03072 -61.32311,5.09356 z M -575.75754,560.66587 c 25.46767,-25.25592 50.93534,-50.51183 76.40301,-75.76775 -30.78836,-43.15514 0.71246,-119.22845 57.24505,-115.79815 32.08392,7.79915 69.81301,8.3775 85.60371,-26.14245 33.03373,-34.84449 68.49861,-67.45324 101.39521,-102.26096 8.05912,-28.02881 -42.28152,-56.98965 -66.25177,-37.38322 -15.2203,39.91357 -67.18298,43.03593 -99.4964,20.75665 -10.05634,-14.08577 -24.69033,-40.28878 -38.26354,-12.71045 -82.47272,80.51921 -163.87708,162.1221 -245.21062,243.78882 40.86562,-5.92596 61.93956,43.23796 59.44486,77.10422 -6.83954,27.57455 -50.92365,37.71018 -41.67893,69.86542 13.75515,36.55203 58.22988,28.68655 73.2604,-2.86981 10.34434,-14.78012 24.9455,-25.84058 37.54902,-38.58232 z m 156.54325,-57.6996 c 56.5014,-12.02856 57.63434,-107.4556 1.8935,-121.51075 -41.69634,-17.09954 -92.96277,22.44714 -84.86073,67.50408 2.79343,39.55131 45.63287,67.1739 82.96723,54.00667 z"
         id="path3044"
         inkscape:connector-curvature="0" />
      <path
         style="fill:#bebebe"
         d="m -447.93093,738.10865 c -12.48276,-26.97599 -7.05581,-67.68095 -39.618,-80.91326 -34.63579,-14.80425 -65.32057,8.42259 -85.0534,35.48266 -37.57296,14.99339 -63.10195,-33.19568 -89.34458,-53.25391 -22.1675,-18.29495 -55.01438,-56.6946 -17.57398,-77.91106 33.37015,-17.21129 28.20457,-62.32129 3.73782,-83.9043 -22.37844,-16.85294 -74.5045,-12.14352 -66.98952,-52.01058 4.47731,-40.56363 18.38785,-79.47327 33.02459,-117.27528 19.39766,-41.03709 59.8263,3.65132 90.03653,-5.10329 41.74665,-15.81981 33.9668,-64.0873 20.39865,-97.2634 0.12825,-31.11729 39.47539,-41.10238 64.73842,-47.76945 30.95167,-7.36689 64.38026,-23.98306 96.0953,-11.91713 22.526,21.07638 0.33692,69.00875 42.9618,76.11214 44.07798,22.86152 62.07183,-34.85477 98.01472,-40.64966 34.69483,12.1464 55.54365,46.22542 80.60176,71.33447 34.97064,20.63162 30.34906,70.99411 -7.95876,81.70056 -18.37829,30.32767 0.72939,84.65659 40.50973,81.95497 46.94835,2.95284 39.3182,61.10844 27.45201,92.14239 -11.22235,29.34874 -13.93636,95.74989 -59.34937,82.23462 -33.09235,-26.23904 -77.72321,-5.79061 -86.58914,33.5419 -8.71815,29.11036 34.60049,56.54293 -4.683,78.43565 -25.48385,15.52892 -55.2825,22.39214 -83.37833,31.59892 -18.59109,4.44163 -38.05461,6.6992 -57.03325,3.43304 z m 126.38353,-38.7115 c 18.10667,5.74392 18.67781,-33.13039 4.43901,-10.59442 -2.92194,0.57185 -17.62799,18.30902 -4.43901,10.59442 z M -519.47321,519.74959 c 8.91369,-8.93866 17.82738,-17.87731 26.74107,-26.81597 -34.79338,-37.21485 -16.99209,-109.99713 34.02781,-122.07888 28.53088,-19.48409 61.59937,29.50351 87.49972,0.99393 43.49293,-43.2075 86.98585,-86.41501 130.47878,-129.62251 -18.52792,-20.45186 -48.97704,-64.10837 -78.43093,-37.62602 -20.45994,33.14387 -59.35957,41.85958 -93.05172,24.30685 -34.35943,-7.32111 -10.46431,-74.0041 -47.50984,-60.45672 -22.73726,25.17839 -46.37912,49.30705 -71.12636,72.72422 -67.1553,66.41022 -133.59484,133.53907 -199.86961,200.82648 23.10426,20.50346 70.99378,12.02299 77.95398,49.12302 18.90539,32.73165 -3.57551,65.85939 -30.32638,87.3118 -15.52349,28.6646 33.31793,78.28672 58.83129,46.42695 32.99667,-36.75749 70.41261,-69.56267 104.78219,-105.11315 z m 325.52847,56.43403 c 28.746,-38.79161 -33.09828,18.87544 0,0 z m -224.26955,-73.28958 c 56.997,-13.33416 55.91488,-109.76361 -0.85099,-122.64469 -41.4289,-14.34652 -90.94391,23.81509 -83.52533,68.21774 2.80093,38.98872 46.07229,68.52203 83.20982,54.6035 l 1.1665,-0.17655 0,0 z"
         id="path3046"
         inkscape:connector-curvature="0" />
      <path
         style="fill:#afafaf"
         d="m -447.61269,738.31363 c -12.32226,-31.31734 -10.02084,-82.36458 -55.64632,-84.33417 -43.62548,-14.75973 -55.43942,49.91536 -93.43441,40.81874 -33.80813,-16.52541 -56.23499,-49.02233 -83.5082,-74.00043 -29.25127,-24.79623 -13.54829,-57.45594 15.58833,-72.54447 20.88637,-24.40948 2.12106,-68.25143 -26.24936,-79.09847 -28.02698,-6.43712 -63.62022,-17.24232 -50.93008,-54.18164 9.20093,-43.20336 20.13275,-86.72615 43.04852,-125.04018 33.81988,-5.1997 75.02105,37.06321 100.57666,-3.95391 30.14559,-30.41201 -13.20857,-66.03965 4.2396,-97.12101 22.97544,-27.46467 62.11592,-29.71641 94.14151,-39.90303 23.32878,-6.97485 67.59006,-19.36601 70.37242,17.10131 -5.69033,38.98627 37.84818,73.5357 74.27758,57.3357 24.16862,-16.40175 52.87712,-64.63322 82.58107,-27.85638 29.36325,27.75436 58.05115,56.97484 81.13473,90.17072 12.68072,34.01317 -42.20924,38.14734 -40.0655,69.1188 -3.4177,30.65093 18.85938,67.91777 52.98774,64.72338 44.15083,2.8379 28.82746,58.05313 22.35212,86.13922 -12.2459,30.15354 -11.90789,96.72186 -59.18559,85.42114 -29.98473,-16.34476 -66.55905,-14.03937 -83.30281,19.30501 -20.15419,32.23143 31.82614,70.28025 -10.32769,93.97776 -31.88851,18.08027 -68.59801,27.51809 -104.46804,34.27132 -11.34437,1.33105 -22.87709,1.39176 -34.18228,-0.34941 z m 71.15899,-18.90968 c 28.53321,-8.10702 77.51761,-14.76991 73.71107,-54.3764 -20.38156,-30.89012 -38.20722,13.15204 -53.87644,24.82876 -9.12063,7.07235 -24.38128,15.57992 -19.83463,29.54764 z M -560.22652,576.06806 c 25.32926,-25.10389 50.65851,-50.20778 75.98777,-75.31167 -41.66032,-32.52439 -32.10353,-111.09935 19.76711,-127.81685 24.1984,-18.5139 50.83423,5.31292 74.25944,12.79366 36.39697,4.59078 53.59878,-41.12033 80.74894,-59.30934 25.4675,-25.18934 50.8647,-50.45016 76.10873,-75.8636 -20.51933,-19.4987 -35.25971,-51.1058 -66.36042,-54.47902 -31.70795,4.63465 -46.84748,57.12958 -85.43791,39.60041 -45.3531,2.54182 -49.57178,-48.29384 -61.58484,-78.03513 -27.32558,-15.7982 -55.92099,7.89163 -72.30505,28.68509 -18.81599,18.86734 -37.63197,37.73467 -56.44796,56.602 7.62464,36.46365 -28.892,66.35504 -61.40824,72.57656 -37.72569,12.2925 -58.69899,49.09832 -86.35482,74.88317 -18.53808,23.85592 -7.01074,68.70893 26.79134,68.95937 35.13016,-4.98215 50.67288,35.42399 49.28933,64.47014 10.01762,36.25673 -58.57791,41.78624 -36.52521,78.71176 9.64339,33.75484 63.13685,58.09694 80.44593,17.4828 11.51982,-17.20763 28.32101,-29.69106 43.02586,-43.94935 z m 363.30363,6.11555 c 11.69976,-19.79429 35.52388,-67.22885 24.41221,-74.98518 -16.16429,21.58101 -62.93325,41.35398 -52.50503,70.181 8.72807,3.83945 18.49008,7.10593 28.09282,4.80418 z m -218.21299,-80.14318 c 55.23661,-15.97729 51.09705,-110.56417 -5.16741,-121.91566 -41.45594,-14.14778 -90.46378,25.58613 -81.99328,69.50279 2.58166,41.30908 49.58426,68.03283 87.16069,52.41287 z"
         id="path3048"
         inkscape:connector-curvature="0" />
      <path
         style="fill:#929292"
         d="m -448.09456,737.39355 c -9.76613,-31.18144 -10.76212,-77.50624 -51.48149,-84.12203 -41.0039,-13.94857 -56.70683,40.18738 -91.48852,40.88287 -34.7755,-6.7248 -51.49197,-42.40833 -78.42965,-61.77441 -26.03759,-18.93135 -39.10814,-62.82389 -1.04936,-75.22016 29.38493,-29.06295 10.10185,-86.96236 -31.29766,-91.71859 -36.50004,-0.63434 -50.91791,-35.11423 -36.18421,-65.50232 8.09511,-38.49956 19.80001,-76.77737 40.05037,-110.7553 33.02267,-0.82805 74.3256,34.74046 99.9754,-1.45817 23.55349,-22.9234 0.95048,-54.43097 0.0222,-81.18121 5.03575,-44.28724 61.97622,-43.78633 94.69515,-57.07924 24.8121,-8.48641 79.85856,-18.26508 73.81995,23.6335 -3.44694,45.337 62.27968,73.6405 91.24086,37.54149 16.61788,-26.99379 50.84659,-39.5574 71.32658,-8.98593 30.15506,26.50368 57.76465,56.63764 77.28609,91.93956 -12.07317,32.07369 -60.08063,51.88212 -40.55751,92.31297 9.93933,38.59161 69.36898,23.34465 79.79245,58.89103 7.24435,39.64326 -14.97166,76.40515 -20.14004,114.89305 -7.14964,31.38511 -44.8704,44.99251 -66.71796,20.30731 -38.96914,-10.2931 -81.81869,36.02269 -60.0653,73.06501 16.37201,36.165 -13.3498,59.54813 -45.21306,65.15432 -33.19133,13.60395 -69.30654,25.46434 -105.58431,19.17625 z m 50.98595,-12.8921 c 32.05805,-10.99787 90.42858,-7.90813 91.51931,-53.7894 -10.55968,-33.73374 -13.17127,-74.91663 22.71153,-94.32895 31.49063,-28.695 68.70601,25.10806 94.00459,-7.85801 21.21675,-25.96984 18.5418,-61.94266 31.09817,-91.62226 14.49515,-41.72268 -39.40325,-69.05884 -60.07316,-27.8655 -78.53521,78.45841 -157.4319,156.55373 -236.09809,234.88061 -10.87469,30.98832 31.23392,58.78669 56.83765,40.58351 z m -70.57211,-215.68296 c -57.61123,-21.51895 -55.72996,-119.97123 4.866,-136.33064 34.94146,-12.06993 80.17666,5.77151 91.25174,42.5494 40.15661,-2.06773 50.72573,-51.00056 83.00048,-68.21043 24.47381,-24.46479 48.8564,-49.02378 72.8482,-73.96265 -21.07439,-33.30417 -49.49568,-62.57791 -84.31365,-81.49059 -29.74906,9.8038 -43.59697,52.24977 -78.85904,46.87953 -30.158,-1.68192 -52.25838,-23.48129 -57.27148,-53.44354 -1.79316,-34.16732 -37.08936,-35.38504 -62.22564,-27.85474 -24.75754,7.04117 -49.43538,15.25317 -73.12917,25.08324 -35.67636,21.83799 5.62085,58.29399 -7.97702,85.538 -10.20557,27.06095 -39.88305,57.13825 -70.90568,43.32905 -32.89356,-30.85154 -64.38646,13.40711 -67.14568,45.32767 -5.00369,30.09392 -35.74368,90.64112 9.20284,98.03881 36.73629,2.6198 66.93263,34.48318 61.76647,71.55048 -4.93784,34.77325 -63.76239,55.70417 -27.80116,91.51582 21.6848,18.1886 47.41398,68.42822 78.72617,37.69298 44.39326,-48.6915 92.59613,-93.84889 138.74861,-140.90808 -3.594,-1.7681 -7.18799,-3.53621 -10.78199,-5.30431 z m 53.29425,-6.72126 c 55.8709,-17.03017 49.56383,-113.56122 -8.14491,-123.00412 -44.95875,-13.78068 -93.83502,34.39182 -78.79623,79.63299 8.63234,36.35619 52.70821,58.28961 86.94114,43.37113 z"
         id="path3050"
         inkscape:connector-curvature="0" />
      <path
         style="fill:#5f5f5f"
         d="m -447.5693,737.63724 c -11.22599,-27.06602 -6.91886,-68.97275 -40.56325,-80.07348 -35.39371,-19.42565 -62.27174,11.28553 -86.39629,34.11547 -41.86435,11.8515 -65.40948,-39.36138 -95.13116,-59.97978 -30.47423,-21.3725 -35.8774,-67.73126 4.34271,-79.27864 22.82014,-27.74914 3.89971,-73.8788 -27.44271,-86.27758 -38.83168,6.10845 -63.77543,-36.49257 -44.44407,-68.68178 7.92998,-37.39504 20.31435,-74.09377 39.21367,-107.42926 33.49059,-2.79797 72.18866,35.87092 98.64289,-1.15253 33.75808,-26.96527 -11.17824,-69.47931 6.3568,-99.76316 23.00884,-28.34051 62.59724,-28.4422 94.40604,-40.12732 29.38932,-13.00553 82.07894,-12.06018 69.3583,33.26318 2.59589,41.61057 64.9851,61.43846 90.86703,28.4553 18.7428,-33.81526 58.42088,-34.14301 78.40151,-2.30443 27.70186,26.20051 53.87646,54.80359 72.17135,88.51325 -19.1538,26.60011 -62.25782,49.28575 -41.942,87.45743 5.23005,45.49767 75.80648,22.9115 80.42875,65.02988 0.78881,38.53699 -13.86244,75.85947 -23.97454,112.66894 -7.48188,33.8953 -40.89044,37.02369 -65.15536,18.64393 -31.02367,-10.58582 -65.87964,22.55126 -66.05392,52.00389 11.51159,29.05128 22.77778,69.29452 -19.15605,78.36595 -39.59931,13.4536 -79.84252,32.0284 -122.71245,28.2602 l -0.98133,-1.37814 -0.23592,-0.33132 0,0 z m 50.78609,-12.18473 c 30.15342,-10.71494 70.87756,-7.43411 89.99862,-37.62773 13.50841,-28.3777 -23.85586,-62.78932 3.43654,-88.76346 18.61555,-27.69584 58.64607,-42.86098 85.92622,-15.74024 37.55253,-0.51486 43.69263,-45.9971 51.9703,-74.12124 11.83962,-30.45068 17.86789,-87.0987 -29.45771,-85.67761 -39.85698,1.32122 -53.30872,-46.92282 -45.04029,-78.4817 8.66407,-27.36936 58.75795,-45.33472 25.50769,-76.47109 -25.60819,-29.17155 -50.80447,-60.42769 -86.2472,-78.24641 -29.59395,9.88949 -42.53368,53.93838 -78.11097,47.21682 -37.90987,-2.10436 -62.05784,-36.60861 -59.63937,-73.49427 -29.31523,-27.20427 -69.45137,-0.70984 -102.34942,4.45641 -34.98442,4.08885 -64.48947,39.87585 -36.88394,69.89915 7.32174,32.91425 -20.85084,64.82487 -50.38157,74.6989 -29.16999,-3.86935 -76.17663,-30.71113 -81.73505,17.41695 -13.15543,37.20904 -25.86759,76.34877 -21.55793,116.354 30.02031,13.94119 77.46356,12.7259 80.91626,55.05217 20.88925,38.28133 -30.25504,60.20868 -37.01218,87.54066 6.55157,36.28753 43.471,52.96423 64.3673,79.94995 26.10166,27.87902 65.60283,15.61639 77.86494,-17.37256 27.38126,-18.16591 64.29181,-3.70684 85.73837,17.25644 0.88004,28.67733 15.45933,75.51998 53.1068,58.23272 3.22275,-0.55892 6.39291,-1.36199 9.58259,-2.07786 z m -52.81031,-212.0779 c -58.20819,-6.25503 -82.66009,-93.99952 -34.29836,-128.31157 38.09733,-32.16662 107.33656,-11.12722 115.58367,39.84861 11.31107,45.23731 -29.34205,97.16516 -77.35603,88.85633 -1.30976,-0.13113 -2.61952,-0.26225 -3.92928,-0.39337 z m 31.37923,-9.48409 c 55.85558,-12.79582 58.19668,-105.83618 3.98448,-122.7081 -41.97464,-18.96782 -95.7495,19.49414 -89.42628,65.7992 1.34288,40.53813 47.48139,71.43168 85.4418,56.9089 z"
         id="path3052"
         inkscape:connector-curvature="0" />
      <path
         style="fill:#0f0f0f"
         d="m -445.21429,739.66831 c -17.31752,-25.16338 -3.08983,-75.76455 -42.972,-81.30151 -34.5764,-22.17886 -67.07275,11.47538 -89.60527,35.82473 -41.26478,1.01721 -61.92314,-41.47377 -91.53578,-63.03621 -30.86005,-22.65825 -33.50733,-66.5987 5.72719,-79.21301 20.52879,-26.14932 4.24995,-64.65883 -19.46531,-82.88103 -32.35492,0.0473 -77.13672,-25.24106 -55.34885,-62.07987 8.79344,-40.6173 19.80737,-81.71222 42.3078,-117.13644 30.13216,-1.59778 67.15584,36.43376 91.24706,3.79866 38.90086,-23.32662 4.81307,-67.15376 9.82095,-98.73381 22.8221,-34.68639 69.55962,-34.05408 105.10411,-47.19586 27.92935,-14.56301 72.1759,-1.9015 59.56078,35.69956 5.05591,42.32922 68.88207,61.16501 94.49662,26.30151 15.10637,-25.8514 49.09814,-36.4132 67.77194,-7.74975 30.73875,27.63632 58.97494,58.71969 79.41543,94.85039 -17.94282,24.99651 -63.06207,49.96957 -40.61501,85.67511 -0.58003,36.56133 44.0567,32.54143 67.27214,45.53596 29.62917,32.50708 -1.2211,81.58129 -7.428,119.06324 -3.75921,30.74113 -33.28678,64.40086 -61.69115,33.83209 -34.3078,-15.19232 -73.77849,19.27211 -75.43141,53.42996 9.80071,25.40186 26.41973,63.3793 -12.53297,72.92517 -39.98165,16.38297 -82.19,32.88514 -126.09827,32.39111 z m 50,-13.22541 c 30.91007,-11.42027 73.91406,-7.52085 91.27857,-41.11745 3.35417,-30.97656 -23.26655,-73.88715 12.13074,-98.04438 25.25834,-37.95796 65.15224,5.35717 96.78402,-8.2272 22.52542,-22.48208 27.3867,-56.69193 34.17268,-86.65794 8.96913,-26.10795 11.78246,-65.26321 -25.11943,-68.80448 -42.13739,5.75294 -62.86032,-48.15169 -51.62541,-82.61852 21.0385,-17.65488 55.28234,-52.78708 20.06976,-76.88415 -23.64647,-29.98006 -50.72528,-58.86899 -85.62285,-75.65517 -28.11625,19.35444 -52.19727,63.34633 -92.72899,43.67769 -42.89412,-7.18089 -30.46886,-56.50491 -54.00759,-78.18711 -31.46596,-11.26013 -62.51423,8.65141 -93.2644,13.42145 -24.46365,6.42858 -59.67696,28.01085 -44.41101,57.5007 26.82674,28.9021 -2.05409,66.46059 -28.94855,82.21589 -28.0054,16.89822 -68.83052,-30.22573 -88.57812,7.5084 -15.85258,42.01667 -31.46543,86.12947 -27.86657,131.76135 25.21433,16.28949 67.83007,11.40446 78.50586,45.37085 18.29928,33.67566 -3.80049,64.30512 -31.2705,85.06941 -12.67784,37.93458 35.45471,61.05581 55.86279,86.88963 20.24402,26.54498 64.8366,36.6116 76.00486,-2.2687 24.76739,-24.89414 70.74693,-16.53683 92.52497,7.6218 4.43709,31.30005 13.43315,76.26306 55.61014,59.65488 3.51559,-0.66527 7.00943,-1.43856 10.49903,-2.22695 z m -57.01009,-215.02575 c -59.48143,-8.04339 -78.01869,-101.24445 -24.75073,-130.342 41.20145,-27.12 107.2712,1.40999 108.96566,52.76466 4.40964,44.54257 -38.65965,89.20092 -84.21493,77.57734 z m 34.01009,-6.5493 c 58.29505,-13.15097 58.53664,-111.3144 1.09524,-125.94532 -42.08023,-15.21068 -94.06306,22.1264 -87.14057,68.03132 1.1559,38.56917 41.86929,70.43233 79.5758,58.88002 l 6.46953,-0.96602 0,0 z"
         id="path3054"
         inkscape:connector-curvature="0" />
      <path
         style="color:#000000;fill:#d6d6d6;fill-opacity:1;fill-rule:nonzero;stroke:none;stroke-width:3;marker:none;visibility:visible;display:inline;overflow:visible;enable-background:accumulate"
         d="m -294.3125,196.96875 c -58.23045,58.33205 -116.45056,116.67442 -174.6875,175 42.41098,0.50794 64.68365,-41.06834 93.27384,-65.36488 32.72528,-32.56174 65.49756,-65.08104 97.66366,-98.19762 -2.48633,-6.66038 -9.35539,-10.89584 -16.25,-11.4375 z"
         id="path3074"
         inkscape:connector-curvature="0" />
      <path
         style="color:#000000;fill:#d6d6d6;fill-opacity:1;fill-rule:nonzero;stroke:none;stroke-width:3;marker:none;visibility:visible;display:inline;overflow:visible;enable-background:accumulate"
         d="M -511.34375,414.4375 C -571.21995,472.03743 -629.93982,530.84461 -687.25,591 c 36.72783,21.35628 50.36301,-41.56636 80.06714,-53.87684 32.21711,-31.61436 64.94294,-62.81525 94.66367,-96.83944 1.78767,-8.00839 8.62187,-18.65192 1.17544,-25.84622 z"
         id="path3076"
         inkscape:connector-curvature="0" />
    </g>
  </g>
</svg>
